<mxfile host="Electron" modified="2024-02-08T10:34:50.266Z" agent="Mozilla/5.0 (Windows NT 10.0; Win64; x64) AppleWebKit/537.36 (KHTML, like Gecko) draw.io/23.0.2 Chrome/120.0.6099.109 Electron/28.1.0 Safari/537.36" etag="eANQA2uInegKaOE2ht0r" version="23.0.2" type="device">
  <diagram name="DCM_IV_Solution_Diagram" id="OlpDoPdXUGUlS7InM_hl">
    <mxGraphModel dx="2359" dy="1652" grid="1" gridSize="10" guides="1" tooltips="1" connect="1" arrows="1" fold="1" page="1" pageScale="1" pageWidth="1169" pageHeight="827" math="0" shadow="0">
      <root>
        <mxCell id="0" />
        <mxCell id="1" parent="0" />
        <mxCell id="q-DKs4rhJ-QWINOPGp90-51" value="" style="rounded=1;whiteSpace=wrap;html=1;strokeColor=#666666;fillColor=#f5f5f5;arcSize=24;absoluteArcSize=1;imageWidth=64;imageHeight=64;strokeWidth=1.5;fontColor=#333333;" parent="1" vertex="1">
          <mxGeometry x="-1140" y="-800" width="380" height="120" as="geometry" />
        </mxCell>
        <mxCell id="zoqDzfi50deOThwgsuNi-15" value="" style="rounded=1;whiteSpace=wrap;html=1;strokeColor=#0070F2;fillColor=#EBF8FF;arcSize=32;absoluteArcSize=1;imageWidth=64;imageHeight=64;strokeWidth=1.5;" parent="1" vertex="1">
          <mxGeometry x="-1142" y="-600" width="210" height="570" as="geometry" />
        </mxCell>
        <mxCell id="q-DKs4rhJ-QWINOPGp90-1" value="" style="rounded=1;whiteSpace=wrap;html=1;strokeColor=#0070F2;fillColor=#EBF8FF;arcSize=32;absoluteArcSize=1;imageWidth=64;imageHeight=64;strokeWidth=1.5;" parent="1" vertex="1">
          <mxGeometry x="-680" y="-600" width="650" height="570" as="geometry" />
        </mxCell>
        <mxCell id="q-DKs4rhJ-QWINOPGp90-2" value="" style="rounded=1;whiteSpace=wrap;html=1;strokeColor=#0070F2;strokeWidth=1.5;arcSize=16;fillColor=#FFFFFF;perimeterSpacing=0;absoluteArcSize=1;" parent="1" vertex="1">
          <mxGeometry x="-650" y="-553" width="590" height="403" as="geometry" />
        </mxCell>
        <mxCell id="q-DKs4rhJ-QWINOPGp90-87" style="edgeStyle=orthogonalEdgeStyle;rounded=0;orthogonalLoop=1;jettySize=auto;html=1;exitX=0.5;exitY=1;exitDx=0;exitDy=0;strokeWidth=1;endArrow=block;endFill=1;" parent="1" source="q-DKs4rhJ-QWINOPGp90-80" target="q-DKs4rhJ-QWINOPGp90-40" edge="1">
          <mxGeometry relative="1" as="geometry" />
        </mxCell>
        <mxCell id="q-DKs4rhJ-QWINOPGp90-80" value="" style="rounded=1;whiteSpace=wrap;html=1;strokeColor=#666666;fillColor=#f5f5f5;arcSize=24;absoluteArcSize=1;imageWidth=64;imageHeight=64;strokeWidth=1.5;fontColor=#333333;" parent="1" vertex="1">
          <mxGeometry x="-680" y="-800" width="650" height="120" as="geometry" />
        </mxCell>
        <mxCell id="q-DKs4rhJ-QWINOPGp90-3" value="" style="shape=image;verticalLabelPosition=bottom;labelBackgroundColor=default;verticalAlign=top;aspect=fixed;imageAspect=0;image=data:image/svg+xml,PHN2ZyB4bWxuczp4bGluaz0iaHR0cDovL3d3dy53My5vcmcvMTk5OS94bGluayIgeG1sbnM9Imh0dHA6Ly93d3cudzMub3JnLzIwMDAvc3ZnIiB2aWV3Qm94PSIwIDAgMTQ0Ljc0NyAzOS44MzIiIGlkPSJhIj48ZGVmcz48bGluZWFyR3JhZGllbnQgZ3JhZGllbnRVbml0cz0idXNlclNwYWNlT25Vc2UiIHkyPSIzOS44MzIiIHgyPSI0MC4yNTgiIHkxPSIwIiB4MT0iNDAuMjU4IiBpZD0iYiI+PHN0b3Agc3RvcC1jb2xvcj0iIzAwYjhmMSIgb2Zmc2V0PSIwIi8+PHN0b3Agc3RvcC1jb2xvcj0iIzAwYjVlZiIgb2Zmc2V0PSIuMDE2Ii8+PHN0b3Agc3RvcC1jb2xvcj0iIzBkOTBkOCIgb2Zmc2V0PSIuMzA4Ii8+PHN0b3Agc3RvcC1jb2xvcj0iIzE2NzVjOCIgb2Zmc2V0PSIuNTc4Ii8+PHN0b3Agc3RvcC1jb2xvcj0iIzFjNjRiZSIgb2Zmc2V0PSIuODE3Ii8+PHN0b3Agc3RvcC1jb2xvcj0iIzFlNWZiYiIgb2Zmc2V0PSIxIi8+PC9saW5lYXJHcmFkaWVudD48L2RlZnM+PHBvbHlsaW5lIGZpbGwtcnVsZT0iZXZlbm9kZCIgZmlsbD0idXJsKCNiKSIgcG9pbnRzPSIwIDM5LjgzMiA0MC42OTIgMzkuODMyIDgwLjUxNyAwIDAgMCAwIDM5LjgzMiIvPjxwYXRoIGZpbGwtcnVsZT0iZXZlbm9kZCIgZmlsbD0iI2ZmZiIgZD0ibTQ3Ljc4Miw3LjQ4OWwtNy45MjUtLjAwNXYxOC44NDVsLTYuOTI0LTE4Ljg0NWgtNi44NjVsLTUuOTEyLDE1Ljc1OWMtLjYzLTMuOTczLTQuNzQtNS4zNDUtNy45NzQtNi4zNzQtMi4xMzUtLjY4Ni00LjQwMS0xLjY5NC00LjM4LTIuODA5LjAxNy0uOTE1LDEuMjE1LTEuNzY1LDMuNTg5LTEuNjM3LDEuNTk1LjA4NCwzLjAwMS4yMTMsNS44LDEuNTYzbDIuNzUzLTQuNzk1Yy0yLjU1NS0xLjMtNi4wODYtMi4xMjEtOC45NzgtMi4xMjRoLS4wMTdjLTMuMzc0LDAtNi4xODUsMS4wOTMtNy45MjgsMi44OTQtMS4yMTQsMS4yNTgtMS44NjksMi44NTYtMS44OTYsNC42MjMtLjA0NCwyLjQzMi44NDgsNC4xNTcsMi43MjEsNS41MzMsMS41ODMsMS4xNiwzLjYwNiwxLjkxMiw1LjM5LDIuNDY1LDIuMjAxLjY4MSwzLjk5NiwxLjI3NCwzLjk3NSwyLjUzOS0uMDE2LjQ1OS0uMTkxLjg4OC0uNTIxLDEuMjM2LS41NDguNTY2LTEuMzkxLjc3OS0yLjU1NS43OTktMi4yNDQuMDQ4LTMuOTEtLjMwMy02LjU2Mi0xLjg3bC0yLjQ0OCw0Ljg2MWMyLjY0NCwxLjUwNiw1Ljc3NiwyLjM4OCw4Ljk3MiwyLjM4OGwuNDExLS4wMDZjMi43ODItLjA1LDUuMDI2LS44NDIsNi44Mi0yLjI4Ni4xMDMtLjA4MS4xOTYtLjE2Ni4yOTEtLjI1bC0uNzk1LDIuMTIzaDcuMmwxLjIwOC0zLjY3NGMxLjI2NS40MzMsMi43MDQuNjcxLDQuMjMyLjY3MSwxLjQ4NywwLDIuODg5LS4yMjksNC4xMzEtLjYzNWwxLjE2NCwzLjYzN2gxMS43NDJ2LTcuNjA3aDIuNTYxYzYuMTg4LDAsOS44NTEtMy4xNTQsOS44NTEtOC40MzYsMC01Ljg4NS0zLjU1Ny04LjU4NS0xMS4xMzItOC41ODVabS0xOC4zMTcsMTYuMTI0Yy0uOTI1LDAtMS43OTItLjE2LTIuNTM5LS40NDNsMi41MTItNy45MjZoLjA0OGwyLjQ2OCw3Ljk0OGMtLjc0Mi4yNjMtMS41ODkuNDIxLTIuNDg4LjQyMVptMTguNzgzLTQuNTUzaC0xLjc0NnYtNi4zODZoMS43NDZjMi4zMjgsMCw0LjE4NS43NzMsNC4xODUsMy4xNTEsMCwyLjQ2MS0xLjg1NywzLjIzNi00LjE4NSwzLjIzNiIvPjxwYXRoIGZpbGw9IiMwMDJhODYiIGQ9Im04MC4yMTcsNy40MDFoMTAuMDYzYzUuNTk1LDAsOC42NzQsMS45MTcsOC42NzQsNi4xNTgsMCwyLjkwMy0xLjUxMyw1LjAxNC00LjMxMSw1LjcsMy4yOS40NTgsNS4yNzgsMi41ODYsNS4yNzgsNS44OTQsMCw1LjAxNC00LjA2NCw3LjAzNy05LjE4NCw3LjAzN2gtMTAuNTIxVjcuNDAxWm0xMy45NjksNi44MjZjMC0yLjE2NC0xLjQ5Ni0yLjk3My00LjI0LTIuOTczaC01LjA0OXY2LjI5OGg0Ljg5MWMzLjIwMiwwLDQuMzk4LTEuMTYxLDQuMzk4LTMuMzI1Wm0xLjAyMSwxMC41MjFjMC0yLjM1Ny0xLjc3Ny0zLjQ2Ni00LjgzOS0zLjQ2NmgtNS40NzF2Ny4wNTVoNS41MDZjMi44MTUsMCw0LjgwNC0uNzc0LDQuODA0LTMuNTg5WiIvPjxwYXRoIGZpbGw9IiMwMDJhODYiIGQ9Im0xMDkuMDUxLDExLjVoLTcuNTgzdi00LjA5OWgxOS44NDZ2NC4wOTloLTcuNTY1djIwLjY5aC00LjY5N1YxMS41WiIvPjxwYXRoIGZpbGw9IiMwMDJhODYiIGQ9Im0xMjUuMTQ4LDcuNDAxaDEwLjUwNGM2LjE5MiwwLDkuMDk2LDMuMTg1LDkuMDk2LDcuODk5LDAsNC4zOTgtMi44MzMsOC4xNDYtOC44NSw4LjE0NmgtNi4wN3Y4Ljc0NGgtNC42OFY3LjQwMVptMTQuOTAyLDcuOTUyYzAtMi41NTEtMS42ODktMy45MjMtNC45NDQtMy45MjNoLTUuMjc4djguMDRoNS40MTljMy4yNzIsMCw0LjgwNC0xLjU4Myw0LjgwNC00LjExN1oiLz48L3N2Zz4=;strokeWidth=1.5;" parent="1" vertex="1">
          <mxGeometry x="-652" y="-585.2799999999999" width="67.25" height="18.55" as="geometry" />
        </mxCell>
        <mxCell id="q-DKs4rhJ-QWINOPGp90-6" value="" style="shape=image;verticalLabelPosition=bottom;verticalAlign=top;imageAspect=0;aspect=fixed;image=data:image/svg+xml,PHN2ZyB4bWxucz0iaHR0cDovL3d3dy53My5vcmcvMjAwMC9zdmciIGZpbGw9Im5vbmUiIHZpZXdCb3g9IjAgMCAxNyAxNyIgaGVpZ2h0PSIxNyIgd2lkdGg9IjE3Ij4mI3hhOzxnIGNsaXAtcGF0aD0idXJsKCNjbGlwMF8yXzI4NzkzKSI+JiN4YTs8cGF0aCBmaWxsPSJ1cmwoI3BhaW50MF9saW5lYXJfMl8yODc5MykiIGQ9Ik04Ljg4ODg3IDExLjI5MTRDOC44ODg4NyAxMS43MzE0IDguNTI4ODcgMTIuMDkxNCA4LjA4ODg3IDEyLjA5MTRINy4yODg4N1YxMy42MzU0SDguMDg4ODdDOC41Mjg4NyAxMy42MzU0IDguODg4ODcgMTMuOTk1NCA4Ljg4ODg3IDE0LjQzNTRDOC44ODg4NyAxNC44NzU0IDguNTI4ODcgMTUuMjM1NCA4LjA4ODg3IDE1LjIzNTRINC4wODg4N0MzLjY0ODg3IDE1LjIzNTQgMy4yODg4NyAxNC44NzU0IDMuMjg4ODcgMTQuNDM1NEMzLjI4ODg3IDEzLjk5NTQgMy42NDg4NyAxMy42MzU0IDQuMDg4ODcgMTMuNjM1NEg1LjY4ODg3VjEyLjA5MTRIMi40ODg4N0MxLjE2ODg3IDEyLjA5MTQgMC4wODg4NjcyIDExLjA3NTQgMC4wODg4NjcyIDkuODI3NFYzLjk1NTRDMC4wODg4NjcyIDIuNzA3NCAxLjE2ODg3IDEuNjgzNCAyLjQ4ODg3IDEuNjk5NEgxMS4yODg5QzEyLjYwODkgMS42OTk0IDEzLjY4ODkgMi43MTU0IDEzLjY4ODkgMy45NjM0QzEzLjY4ODkgNC40MDM0IDEzLjMyODkgNC43Nzk0IDEyLjg4ODkgNC43Nzk0QzEyLjQ0ODkgNC43Nzk0IDEyLjA4ODkgNC40MzU0IDEyLjA4ODkgMy45OTU0QzEyLjA4ODkgMy41ODc0IDExLjcyODkgMy4yOTE0IDExLjI4ODkgMy4yOTE0SDIuNDg4ODdDMi4wNDg4NyAzLjI5MTQgMS42ODg4NyAzLjU4NzQgMS42ODg4NyAzLjk1NTRWOS44Mjc0QzEuNjg4ODcgMTAuMTk1NCAyLjA0ODg3IDEwLjQ5MTQgMi40ODg4NyAxMC40OTE0SDguMDg4ODdDOC41Mjg4NyAxMC40OTE0IDguODg4ODcgMTAuODUxNCA4Ljg4ODg3IDExLjI5MTRaTTkuNjg4ODcgNy40MDMzOUM5LjY4ODg3IDYuMjk5MzkgMTAuNTg0OSA1LjQwMzM5IDExLjY4ODkgNS40MDMzOUgxNC4wODg5QzE1LjE5MjkgNS40MDMzOSAxNi4wODg5IDYuMjk5MzkgMTYuMDg4OSA3LjQwMzM5VjEzLjIzNTRDMTYuMDg4OSAxNC4zMzk0IDE1LjE5MjkgMTUuMjM1NCAxNC4wODg5IDE1LjIzNTRIMTEuNjg4OUMxMC41ODQ5IDE1LjIzNTQgOS42ODg4NyAxNC4zMzk0IDkuNjg4ODcgMTMuMjM1NFY3LjQwMzM5Wk0xNC4wODg5IDEzLjYzNTRDMTQuMzEyOSAxMy42MzU0IDE0LjQ4ODkgMTMuNDU5NCAxNC40ODg5IDEzLjIzNTRWNy40MDMzOUMxNC40ODg5IDcuMTc5MzkgMTQuMzEyOSA3LjAwMzM5IDE0LjA4ODkgNy4wMDMzOUgxMS42ODg5QzExLjQ2NDkgNy4wMDMzOSAxMS4yODg5IDcuMTc5MzkgMTEuMjg4OSA3LjQwMzM5VjEzLjIzNTRDMTEuMjg4OSAxMy40NTk0IDExLjQ2NDkgMTMuNjM1NCAxMS42ODg5IDEzLjYzNTRIMTQuMDg4OVoiIGNsaXAtcnVsZT0iZXZlbm9kZCIgZmlsbC1ydWxlPSJldmVub2RkIi8+JiN4YTs8L2c+JiN4YTs8ZGVmcz4mI3hhOzxsaW5lYXJHcmFkaWVudCBncmFkaWVudFVuaXRzPSJ1c2VyU3BhY2VPblVzZSIgeTI9IjE1LjIzNTQiIHgyPSI4LjA4ODg3IiB5MT0iMS42OTkyMiIgeDE9IjguMDg4ODciIGlkPSJwYWludDBfbGluZWFyXzJfMjg3OTMiPiYjeGE7PHN0b3Agc3RvcC1jb2xvcj0iIzVCNzM4QiIvPiYjeGE7PHN0b3Agc3RvcC1jb2xvcj0iIzIyMzU0OCIgb2Zmc2V0PSIxIi8+JiN4YTs8L2xpbmVhckdyYWRpZW50PiYjeGE7PGNsaXBQYXRoIGlkPSJjbGlwMF8yXzI4NzkzIj4mI3hhOzxyZWN0IHRyYW5zZm9ybT0idHJhbnNsYXRlKDAuMDg4ODY3MiAwLjQ1ODk4NCkiIGZpbGw9IndoaXRlIiBoZWlnaHQ9IjE2IiB3aWR0aD0iMTYiLz4mI3hhOzwvY2xpcFBhdGg+JiN4YTs8L2RlZnM+JiN4YTs8L3N2Zz4=;strokeWidth=1.5;points=[[0,0.25,0,0,0],[0,0.5,0,0,0],[0,0.75,0,0,0],[0.25,0,0,0,0],[0.25,1,0,0,0],[0.5,0,0,0,0],[0.5,1,0,0,0],[0.75,0,0,0,0],[0.75,1,0,0,0],[1,0.25,0,0,0],[1,0.5,0,0,0],[1,0.75,0,0,0]];" parent="1" vertex="1">
          <mxGeometry x="-370" y="-756.55" width="34.5" height="34.5" as="geometry" />
        </mxCell>
        <mxCell id="q-DKs4rhJ-QWINOPGp90-7" value="&lt;font face=&quot;Helvetica&quot; size=&quot;1&quot; color=&quot;#1a2733&quot; style=&quot;&quot;&gt;&lt;span style=&quot;font-size: 14px;&quot;&gt;Application Clients&lt;/span&gt;&lt;/font&gt;" style="text;html=1;align=center;verticalAlign=middle;resizable=0;points=[];autosize=1;strokeColor=none;fillColor=none;fontSize=12;fontColor=default;fontFamily=Helvetica;strokeWidth=1.5;" parent="1" vertex="1">
          <mxGeometry x="-420" y="-723.46" width="140" height="30" as="geometry" />
        </mxCell>
        <mxCell id="q-DKs4rhJ-QWINOPGp90-14" value="&lt;font size=&quot;1&quot; face=&quot;Helvetica&quot; style=&quot;&quot;&gt;&lt;b style=&quot;font-size: 14px;&quot;&gt;Subaccount&lt;/b&gt;&lt;/font&gt;" style="text;html=1;align=left;verticalAlign=middle;resizable=0;points=[];autosize=1;strokeColor=none;fillColor=none;fontSize=12;fontColor=#1d2d3e;fontFamily=Helvetica;" parent="1" vertex="1">
          <mxGeometry x="-642" y="-553" width="100" height="30" as="geometry" />
        </mxCell>
        <mxCell id="q-DKs4rhJ-QWINOPGp90-15" value="" style="group" parent="1" vertex="1" connectable="0">
          <mxGeometry x="-674.37" y="-770.0000000000001" width="80" height="80.00000000000001" as="geometry" />
        </mxCell>
        <mxCell id="q-DKs4rhJ-QWINOPGp90-16" value="" style="shape=image;verticalLabelPosition=bottom;verticalAlign=top;imageAspect=0;aspect=fixed;image=data:image/svg+xml,PHN2ZyB4bWxucz0iaHR0cDovL3d3dy53My5vcmcvMjAwMC9zdmciIGZpbGw9Im5vbmUiIHZpZXdCb3g9IjAgMCAxNyAxNyIgaGVpZ2h0PSIxNyIgd2lkdGg9IjE3Ij4mI3hhOzxwYXRoIGZpbGw9InVybCgjcGFpbnQwX2xpbmVhcl8yXzI4Nzk4KSIgZD0iTTAuMjEzODY3IDguNTUyNzNDMC4yMTM4NjcgNy40Njk0IDAuNDIyMjAxIDYuNDU4OTggMC44Mzg4NjcgNS41MjE0OEMxLjI1NTUzIDQuNTYzMTUgMS44MTgwMyAzLjcyOTgyIDIuNTI2MzcgMy4wMjE0OEMzLjIzNDcgMi4zMTMxNSA0LjA2ODAzIDEuNzUwNjUgNS4wMjYzNyAxLjMzMzk4QzUuOTg0NyAwLjkxNzMxOCA3LjAwNTUzIDAuNzA4OTg0IDguMDg4ODcgMC43MDg5ODRDOS4xNzIyIDAuNzA4OTg0IDEwLjE4MjYgMC45MTczMTggMTEuMTIwMSAxLjMzMzk4QzEyLjA3ODUgMS43NTA2NSAxMi45MTE4IDIuMzEzMTUgMTMuNjIwMSAzLjAyMTQ4QzE0LjMyODUgMy43Mjk4MiAxNC44OTEgNC41NjMxNSAxNS4zMDc2IDUuNTIxNDhDMTUuNzI0MyA2LjQ1ODk4IDE1LjkzMjYgNy40Njk0IDE1LjkzMjYgOC41NTI3M0MxNS45MzI2IDkuNjM2MDcgMTUuNzI0MyAxMC42NTY5IDE1LjMwNzYgMTEuNjE1MkMxNC44OTEgMTIuNTczNiAxNC4zMjg1IDEzLjQwNjkgMTMuNjIwMSAxNC4xMTUyQzEyLjkxMTggMTQuODIzNiAxMi4wNzg1IDE1LjM4NjEgMTEuMTIwMSAxNS44MDI3QzEwLjE4MjYgMTYuMjE5NCA5LjE3MjIgMTYuNDI3NyA4LjA4ODg3IDE2LjQyNzdDNy4wMDU1MyAxNi40Mjc3IDUuOTg0NyAxNi4yMTk0IDUuMDI2MzcgMTUuODAyN0M0LjA2ODAzIDE1LjM4NjEgMy4yMzQ3IDE0LjgyMzYgMi41MjYzNyAxNC4xMTUyQzEuODE4MDMgMTMuNDA2OSAxLjI1NTUzIDEyLjU3MzYgMC44Mzg4NjcgMTEuNjE1MkMwLjQyMjIwMSAxMC42NTY5IDAuMjEzODY3IDkuNjM2MDcgMC4yMTM4NjcgOC41NTI3M1pNOS42NTEzNyAxMC45Mjc3QzEwLjMxOCAxMC45Mjc3IDEwLjkzMjYgMTEuMDg0IDExLjQ5NTEgMTEuMzk2NUMxMi4wNTc2IDExLjY4ODIgMTIuNTE2IDEyLjA5NDQgMTIuODcwMSAxMi42MTUyQzEzLjM0OTMgMTIuMDczNiAxMy43MTM5IDExLjQ1OSAxMy45NjM5IDEwLjc3MTVDMTQuMjM0NyAxMC4wODQgMTQuMzcwMSA5LjM0NDQgMTQuMzcwMSA4LjU1MjczQzE0LjM3MDEgNy42Nzc3MyAxNC4yMDM1IDYuODY1MjMgMTMuODcwMSA2LjExNTIzQzEzLjUzNjggNS4zNDQ0IDEzLjA4ODkgNC42Nzc3MyAxMi41MjY0IDQuMTE1MjNDMTEuOTYzOSAzLjU1MjczIDExLjI5NzIgMy4xMDQ4MiAxMC41MjY0IDIuNzcxNDhDOS43NzYzNyAyLjQzODE1IDguOTYzODcgMi4yNzE0OCA4LjA4ODg3IDIuMjcxNDhDNy4yMTM4NyAyLjI3MTQ4IDYuMzkwOTUgMi40MzgxNSA1LjYyMDEyIDIuNzcxNDhDNC44NzAxMiAzLjEwNDgyIDQuMjAzNDUgMy41NTI3MyAzLjYyMDEyIDQuMTE1MjNDMy4wNTc2MiA0LjY3NzczIDIuNjA5NyA1LjM0NDQgMi4yNzYzNyA2LjExNTIzQzEuOTQzMDMgNi44NjUyMyAxLjc3NjM3IDcuNjc3NzMgMS43NzYzNyA4LjU1MjczQzEuNzc2MzcgOS4zNDQ0IDEuOTAxMzcgMTAuMDg0IDIuMTUxMzcgMTAuNzcxNUMyLjQyMjIgMTEuNDU5IDIuNzk3MiAxMi4wNzM2IDMuMjc2MzcgMTIuNjE1MkMzLjYzMDUzIDEyLjA5NDQgNC4wODg4NyAxMS42ODgyIDQuNjUxMzcgMTEuMzk2NUM1LjIxMzg3IDExLjA4NCA1LjgyODQ1IDEwLjkyNzcgNi40OTUxMiAxMC45Mjc3SDkuNjUxMzdaTTExLjIxMzkgNi45OTAyM0MxMS4yMTM5IDcuNDI3NzMgMTEuMTMwNSA3Ljg0NDQgMTAuOTYzOSA4LjI0MDIzQzEwLjc5NzIgOC42MTUyMyAxMC41NjggOC45NDg1NyAxMC4yNzY0IDkuMjQwMjNDMTAuMDA1NSA5LjUxMTA3IDkuNjgyNjIgOS43Mjk4MiA5LjMwNzYyIDkuODk2NDhDOC45MzI2MiAxMC4wNjMyIDguNTI2MzcgMTAuMTQ2NSA4LjA4ODg3IDEwLjE0NjVDNy42NTEzNyAxMC4xNDY1IDcuMjM0NyAxMC4wNjMyIDYuODM4ODcgOS44OTY0OEM2LjQ2Mzg3IDkuNzI5ODIgNi4xMzA1MyA5LjUxMTA3IDUuODM4ODcgOS4yNDAyM0M1LjU2ODAzIDguOTQ4NTcgNS4zNDkyOCA4LjYxNTIzIDUuMTgyNjIgOC4yNDAyM0M1LjAxNTk1IDcuODQ0NCA0LjkzMjYyIDcuNDI3NzMgNC45MzI2MiA2Ljk5MDIzQzQuOTMyNjIgNi41NTI3MyA1LjAxNTk1IDYuMTQ2NDggNS4xODI2MiA1Ljc3MTQ4QzUuMzQ5MjggNS4zOTY0OCA1LjU2ODAzIDUuMDYzMTUgNS44Mzg4NyA0Ljc3MTQ4QzYuMTMwNTMgNC40Nzk4MiA2LjQ2Mzg3IDQuMjUwNjUgNi44Mzg4NyA0LjA4Mzk4QzcuMjM0NyAzLjkxNzMyIDcuNjUxMzcgMy44MzM5OCA4LjA4ODg3IDMuODMzOThDOC41MjYzNyAzLjgzMzk4IDguOTMyNjIgMy45MTczMiA5LjMwNzYyIDQuMDgzOThDOS42ODI2MiA0LjI1MDY1IDEwLjAwNTUgNC40Nzk4MiAxMC4yNzY0IDQuNzcxNDhDMTAuNTY4IDUuMDYzMTUgMTAuNzk3MiA1LjM5NjQ4IDEwLjk2MzkgNS43NzE0OEMxMS4xMzA1IDYuMTQ2NDggMTEuMjEzOSA2LjU1MjczIDExLjIxMzkgNi45OTAyM1pNOS42NTEzNyA2Ljk5MDIzQzkuNjUxMzcgNi41NTI3MyA5LjQ5NTEyIDYuMTg4MTUgOS4xODI2MiA1Ljg5NjQ4QzguODcwMTIgNS41ODM5OCA4LjUwNTUzIDUuNDI3NzMgOC4wODg4NyA1LjQyNzczQzcuNjUxMzcgNS40Mjc3MyA3LjI3NjM3IDUuNTgzOTggNi45NjM4NyA1Ljg5NjQ4QzYuNjUxMzcgNi4xODgxNSA2LjQ5NTEyIDYuNTUyNzMgNi40OTUxMiA2Ljk5MDIzQzYuNDk1MTIgNy40Mjc3MyA2LjY1MTM3IDcuODAyNzMgNi45NjM4NyA4LjExNTIzQzcuMjc2MzcgOC40MDY5IDcuNjUxMzcgOC41NTI3MyA4LjA4ODg3IDguNTUyNzNDOC41MDU1MyA4LjU1MjczIDguODcwMTIgOC40MDY5IDkuMTgyNjIgOC4xMTUyM0M5LjQ5NTEyIDcuODAyNzMgOS42NTEzNyA3LjQyNzczIDkuNjUxMzcgNi45OTAyM1pNNC40NjM4NyAxMy43MDlDNC45NjM4NyAxNC4wNjMyIDUuNTE1OTUgMTQuMzQ0NCA2LjEyMDEyIDE0LjU1MjdDNi43NDUxMiAxNC43NjExIDcuNDAxMzcgMTQuODY1MiA4LjA4ODg3IDE0Ljg2NTJDOC43NTU1MyAxNC44NjUyIDkuMzkwOTUgMTQuNzYxMSA5Ljk5NTEyIDE0LjU1MjdDMTAuNjIwMSAxNC4zNDQ0IDExLjE4MjYgMTQuMDYzMiAxMS42ODI2IDEzLjcwOUMxMS40NzQzIDEzLjMzNCAxMS4xODI2IDEzLjA0MjMgMTAuODA3NiAxMi44MzRDMTAuNDUzNSAxMi42MDQ4IDEwLjA2OCAxMi40OTAyIDkuNjUxMzcgMTIuNDkwMkg2LjQ5NTEyQzYuMDc4NDUgMTIuNDkwMiA1LjY4MjYyIDEyLjYwNDggNS4zMDc2MiAxMi44MzRDNC45NTM0NSAxMy4wNDIzIDQuNjcyMiAxMy4zMzQgNC40NjM4NyAxMy43MDlaIi8+JiN4YTs8ZGVmcz4mI3hhOzxsaW5lYXJHcmFkaWVudCBncmFkaWVudFVuaXRzPSJ1c2VyU3BhY2VPblVzZSIgeTI9IjE2LjQyNzciIHgyPSI4LjA3MzI0IiB5MT0iMC43MDg5ODQiIHgxPSI4LjA3MzI0IiBpZD0icGFpbnQwX2xpbmVhcl8yXzI4Nzk4Ij4mI3hhOzxzdG9wIHN0b3AtY29sb3I9IiM1QjczOEIiLz4mI3hhOzxzdG9wIHN0b3AtY29sb3I9IiMyMjM1NDgiIG9mZnNldD0iMSIvPiYjeGE7PC9saW5lYXJHcmFkaWVudD4mI3hhOzwvZGVmcz4mI3hhOzwvc3ZnPg==;strokeWidth=1.5;" parent="q-DKs4rhJ-QWINOPGp90-15" vertex="1">
          <mxGeometry x="16.5" width="50" height="50" as="geometry" />
        </mxCell>
        <mxCell id="q-DKs4rhJ-QWINOPGp90-17" value="&lt;font size=&quot;1&quot; color=&quot;#1a2733&quot; face=&quot;arial&quot; style=&quot;&quot;&gt;&lt;b style=&quot;font-size: 14px;&quot;&gt;End User&lt;/b&gt;&lt;/font&gt;" style="text;html=1;align=center;verticalAlign=middle;resizable=0;points=[];autosize=1;strokeColor=none;fillColor=none;fontSize=12;fontColor=default;fontFamily=Helvetica;strokeWidth=1.5;" parent="q-DKs4rhJ-QWINOPGp90-15" vertex="1">
          <mxGeometry y="50.00000000000001" width="80" height="30" as="geometry" />
        </mxCell>
        <mxCell id="q-DKs4rhJ-QWINOPGp90-26" value="" style="group" parent="1" vertex="1" connectable="0">
          <mxGeometry x="-1169" y="-770" width="140" height="90" as="geometry" />
        </mxCell>
        <mxCell id="q-DKs4rhJ-QWINOPGp90-27" value="&lt;div style=&quot;&quot;&gt;&lt;br&gt;&lt;/div&gt;" style="text;html=1;align=center;verticalAlign=middle;resizable=0;points=[];autosize=1;strokeColor=none;fillColor=none;fontSize=12;fontColor=#556B82;fontFamily=Helvetica;" parent="q-DKs4rhJ-QWINOPGp90-26" vertex="1">
          <mxGeometry x="60" y="55" width="20" height="30" as="geometry" />
        </mxCell>
        <mxCell id="q-DKs4rhJ-QWINOPGp90-28" value="" style="shape=image;verticalLabelPosition=bottom;labelBackgroundColor=default;verticalAlign=top;aspect=fixed;imageAspect=0;image=data:image/svg+xml,PHN2ZyB4bWxucz0iaHR0cDovL3d3dy53My5vcmcvMjAwMC9zdmciIGZpbGw9Im5vbmUiIHZpZXdCb3g9IjAgMCAxNyAxNyIgaGVpZ2h0PSIxNyIgd2lkdGg9IjE3Ij4mI3hhOzxwYXRoIGZpbGw9InVybCgjcGFpbnQwX2xpbmVhcl83NzVfOCkiIGQ9Ik0xMy42NzU2IDguNjM3NDhDMTQuNjQ2OSA5LjE3MTcxIDE1LjQ2NDcgOS45NDY0NiAxNi4wNTA2IDEwLjg4NzVDMTYuNjU0NiAxMS44NDU1IDE2Ljk1NjYgMTIuOTI4NSAxNi45NTY2IDE0LjEzNzVWMTUuOTE4NUMxNi45NTY2IDE2LjUwMTUgMTYuNjU0NiAxNi43OTM1IDE2LjA1MDYgMTYuNzkzNUg1LjQyNTY0QzUuMTU0NjQgMTYuNzkzNSA0LjkzNTY0IDE2LjcxMDUgNC43Njg2NCAxNi41NDM1QzQuNjAyNjQgMTYuMzk3NSA0LjUxODY0IDE2LjE4OTUgNC41MTg2NCAxNS45MTg1VjE1LjAxMjVIMS44NjI2NEMxLjI3OTY0IDE1LjAxMjUgMC45ODc2NCAxNC43MjA1IDAuOTg3NjQgMTQuMTM3NVYxMi4zNTY1QzAuOTg3NjQgMTEuNDgwNSAxLjIyNzY0IDEwLjY4OTUgMS43MDY2NCA5Ljk4MDQ4QzIuMTY0MzUgOS4yOTEwOSAyLjgwMjA3IDguNzQwMTcgMy41NTA2NCA4LjM4NzQ4QzMuMjg2MjIgOC4wODYyMyAzLjA4NDMxIDcuNzM1NDMgMi45NTY2NCA3LjM1NTQ4QzIuODMzNCA2Ljk3MTgxIDIuNzY5OTkgNi41NzE0NSAyLjc2ODY0IDYuMTY4NDhDMi43Njg2NCA1LjY2ODQ4IDIuODYyNjQgNS4yMTA0OCAzLjA1MDY0IDQuNzkzNDhDMy4yMzc2NCA0LjM1NTQ4IDMuNDg3NjQgMy45ODA0OCAzLjgwMDY0IDMuNjY4NDhDNC4xMjQ3OCAzLjM0MTYxIDQuNTA2MDggMy4wNzY5IDQuOTI1NjQgMi44ODc0OEM1LjM1OTkyIDIuNzAwNzMgNS44Mjc5MSAyLjYwNTA5IDYuMzAwNjQgMi42MDY0OEM2LjQ0NjY0IDIuNjA2NDggNi41ODE2NCAyLjYxNjQ4IDYuNzA2NjQgMi42MzY0OEM2LjgzMTY0IDIuNjM2NDggNi45NjY2NCAyLjY1ODQ4IDcuMTEyNjQgMi42OTk0OEM3LjUwMjE5IDIuMTIxOSA4LjAyODQ3IDEuNjQ5NTYgOC42NDQ2NCAxLjMyNDQ4QzkuMjkxNTggMC45OTA5MiAxMC4wMDk4IDAuODE5MzQzIDEwLjczNzYgMC44MjQ0NzZDMTEuMzYyNiAwLjgyNDQ3NiAxMS45NDY2IDAuOTM5NDc2IDEyLjQ4NzYgMS4xNjg0OEMxMy4wMjk2IDEuMzk4NDggMTMuNDk3NiAxLjcyMDQ4IDEzLjg5MzYgMi4xMzc0OEMxNC4yODk2IDIuNTMzNDggMTQuNjAyNiAzLjAwMTQ4IDE0LjgzMTYgMy41NDM0OEMxNS4wNjE2IDQuMDYzNDggMTUuMTc1NiA0LjYzNzQ4IDE1LjE3NTYgNS4yNjI0OEMxNS4xNzc3IDUuOTE5NDggMTUuMDM5MiA2LjU2OTMzIDE0Ljc2OTYgNy4xNjg0OEMxNC41MjkgNy43MzkzMiAxNC4xNTM2IDguMjQzMzYgMTMuNjc1NiA4LjYzNzQ4Wk0xMC43MzY2IDIuNjA1NDhDOS45ODY2NCAyLjYwNTQ4IDkuMzUxNjQgMi44NjU0OCA4LjgzMDY0IDMuMzg3NDhDOC4zMzA2NCAzLjg4NzQ4IDguMDgwNjQgNC41MTI0OCA4LjA4MDY0IDUuMjYyNDhDOC4wODA2NCA2LjAxMjQ4IDguMzMwNjQgNi42NDc0OCA4LjgzMDY0IDcuMTY4NDhDOS4zNTA2NCA3LjY2ODQ4IDkuOTg2NjQgNy45MTg0OCAxMC43MzY2IDcuOTE4NDhDMTEuNDg2NiA3LjkxODQ4IDEyLjExMTYgNy42Njg0OCAxMi42MTE2IDcuMTY4NDhDMTMuMTMyNiA2LjY0ODQ4IDEzLjM5MjYgNi4wMTI0OCAxMy4zOTI2IDUuMjYyNDhDMTMuMzkyNiA0LjUxMjQ4IDEzLjEzMjYgMy44ODc0OCAxMi42MTI2IDMuMzg3NDhDMTIuMTEyNiAyLjg2NjQ4IDExLjQ4NjYgMi42MDU0OCAxMC43MzY2IDIuNjA1NDhaTTYuMjA2NjQgNC4zODg0OEM1LjcyNjY0IDQuMzg4NDggNS4zMTA2NCA0LjU2NTQ4IDQuOTU2NjQgNC45MTk0OEM0LjYyMzY0IDUuMjUyNDggNC40NTY2NCA1LjY2OTQ4IDQuNDU2NjQgNi4xNjk0OEM0LjQ1NjY0IDYuNjQ5NDggNC42MjM2NCA3LjA2NTQ4IDQuOTU2NjQgNy40MTk0OEM1LjMxMDY0IDcuNzUyNDggNS43MjY2NCA3LjkxOTQ4IDYuMjA2NjQgNy45MTk0OEg3LjIwNjY0QzYuOTI3MDggNy41NDg5OCA2LjcwNTg1IDcuMTM3ODkgNi41NTA2NCA2LjcwMDQ4QzYuMzg3MDYgNi4yMzg5NSA2LjMwMjU0IDUuNzUzMTMgNi4zMDA2NCA1LjI2MzQ4VjQuODIzNDhDNi4zMTczMiA0LjY3NTEzIDYuMzQ4NDcgNC41Mjg3NiA2LjM5MzY0IDQuMzg2NDhINi4yMDY2NFY0LjM4ODQ4Wk0yLjc2ODY0IDEzLjI2MzVINC42MTI2NEM0LjgwMDY0IDExLjgyNTUgNS4zOTM2NCAxMC42Mzg1IDYuMzkzNjQgOS43MDA0N0g1LjQyNjY0QzQuNjc2NjQgOS43MDA0NyA0LjA0MDY0IDkuOTYwNDcgMy41MTk2NCAxMC40ODE1QzMuMDE5NjQgMTAuOTgxNSAyLjc2OTY0IDExLjYwNzUgMi43Njk2NCAxMi4zNTc1TDIuNzY4NjQgMTMuMjYzNVpNMTUuMTc1NiAxNC4xMzg1QzE1LjE4MjYgMTMuNTQ3NyAxNS4wNjU0IDEyLjk2MjEgMTQuODMxNiAxMi40MTk1QzE0LjYxMzMgMTEuODk0MyAxNC4yOTQ3IDExLjQxNjcgMTMuODkzNiAxMS4wMTM1QzEzLjQ5NzQgMTAuNTk2MyAxMy4wMTg1IDEwLjI2NjMgMTIuNDg3NiAxMC4wNDQ1QzExLjkzMzUgOS44MTI3MyAxMS4zMzgyIDkuNjk1NzEgMTAuNzM3NiA5LjcwMDQ3QzEwLjExMjYgOS43MDA0NyA5LjUyOTY0IDkuODE1NDggOC45ODc2NCAxMC4wNDQ1QzguNDY3NjQgMTAuMjc0NSA3Ljk5NzY0IDEwLjU5NjUgNy41ODE2NCAxMS4wMTM1QzcuMTgwNTggMTEuNDE2NyA2Ljg2MTk3IDExLjg5NDMgNi42NDM2NCAxMi40MTk1QzYuNDEwMjggMTIuOTYyMiA2LjI5MzQzIDEzLjU0NzggNi4zMDA2NCAxNC4xMzg1VjE1LjAxMzVIMTUuMTc1NlYxNC4xMzg1WiIvPiYjeGE7PGRlZnM+JiN4YTs8bGluZWFyR3JhZGllbnQgZ3JhZGllbnRVbml0cz0idXNlclNwYWNlT25Vc2UiIHkyPSIxNi43OTM1IiB4Mj0iOC45NzIxNCIgeTE9IjAuODI0MzY0IiB4MT0iOC45NzIxNCIgaWQ9InBhaW50MF9saW5lYXJfNzc1XzgiPiYjeGE7PHN0b3Agc3RvcC1jb2xvcj0iIzVCNzM4QiIvPiYjeGE7PHN0b3Agc3RvcC1jb2xvcj0iIzIyMzU0OCIgb2Zmc2V0PSIxIi8+JiN4YTs8L2xpbmVhckdyYWRpZW50PiYjeGE7PC9kZWZzPiYjeGE7PC9zdmc+;" parent="q-DKs4rhJ-QWINOPGp90-26" vertex="1">
          <mxGeometry x="43" width="50" height="50" as="geometry" />
        </mxCell>
        <mxCell id="q-DKs4rhJ-QWINOPGp90-39" value="" style="group" parent="1" vertex="1" connectable="0">
          <mxGeometry x="-410" y="-530" width="160" height="95" as="geometry" />
        </mxCell>
        <mxCell id="q-DKs4rhJ-QWINOPGp90-40" value="" style="shape=image;verticalLabelPosition=bottom;verticalAlign=top;imageAspect=0;aspect=fixed;image=data:image/svg+xml,PHN2ZyB4bWxucz0iaHR0cDovL3d3dy53My5vcmcvMjAwMC9zdmciIGZpbGw9Im5vbmUiIHZpZXdCb3g9IjAgMCA0OSA0OSIgaGVpZ2h0PSI0OSIgd2lkdGg9IjQ5Ij4mI3hhOzxnIGNsaXAtcGF0aD0idXJsKCNjbGlwMF8yNjIyXzQwOTQpIj4mI3hhOzxjaXJjbGUgc3Ryb2tlLXdpZHRoPSIwLjg1NzE0MyIgc3Ryb2tlPSIjRDVEQUREIiBmaWxsPSJ1cmwoI3BhaW50MF9saW5lYXJfMjYyMl80MDk0KSIgcj0iMjMuNTcxNCIgY3k9IjI0LjAzNDkiIGN4PSIyNC41Ii8+JiN4YTs8ZyBjbGlwLXBhdGg9InVybCgjY2xpcDFfMjYyMl80MDk0KSI+JiN4YTs8bWFzayBoZWlnaHQ9IjI4IiB3aWR0aD0iMjciIHk9IjkiIHg9IjEyIiBtYXNrVW5pdHM9InVzZXJTcGFjZU9uVXNlIiBzdHlsZT0ibWFzay10eXBlOmx1bWluYW5jZSIgaWQ9Im1hc2swXzI2MjJfNDA5NCI+JiN4YTs8cGF0aCBmaWxsPSJ3aGl0ZSIgZD0iTTI1LjIwMDQgOS41MzQ4OEMyNS4yMDA0IDkuNTM0ODggMjUuMTk3MSAxMC42NTg2IDI4LjEzNDcgMTIuNDQzM0MzMy44MzgyIDE1LjkwNjkgMzMuODE4OCAxOS4wODQ4IDMzLjgxODggMTkuNzUxN0MzMy44MTg4IDIyLjU4MzQgMzAuODcxNCAyNC40MTQgMjkuNTA0MiAyMi45MzIzQzI5LjUwNDIgMjIuOTMyMyAzMC44NDYxIDIxLjkzNjUgMzAuODQ2MSAyMC40MDUxQzMwLjg0NjEgMjAuNDA1MSAyOS44NjIyIDIxLjA1MzEgMjkuMzQ3NiAyMS4xNjU0QzI5LjM0NzYgMjEuMTY1NCAzMC4wMTgyIDE5Ljk4MDEgMjkuNzA1NiAxNy45MDA2QzI5LjcwNTYgMTcuOTAwNiAyOS4xNjg4IDE4Ljk1MTQgMjcuNDQ2OCAxOS44MDE0QzI3LjQ0NjggMTkuODAxNCAyOC4xMTc0IDE4LjMwMjkgMjcuNDkxNiAxNi44NzE5QzI3LjQ5MTYgMTYuODcxOSAyNy42MjU1IDE4LjY2MDkgMjMuNTU1IDIwLjU2MTdDMTkuNDg0NSAyMi40NjI1IDIwLjczNzMgMjQuMzYzOCAyMC43MzczIDI0LjM2MzhDMjAuNzM3MyAyNC4zNjM4IDIxLjU0NzMgMjMuNDk5OCAyMi45MjY0IDI0LjEwNzNDMjQuNzkgMjQuOTI2IDI0LjAzNjcgMjguMjExMyAyMS4wMzk3IDI4LjIxMTNDMTguMTIzNyAyOC4yMTEzIDE2LjIwNzIgMjUuMDM4MyAxNi4yMDcyIDIyLjU2MDJDMTYuMjA3MiAyMS41MzQyIDE2LjMxODQgMTkuNjUxMiAxOC4xNjkgMTcuNTc4MkMxOS42NDExIDE1LjkyOTYgMjEuNDU2NSAxNS4wNTk2IDIxLjg0NTkgMTMuMjM2NkMxOS44MzAxIDE1LjEwNTUgMTYuMTkxIDE2LjMyNTkgMTQuMDI4MyAxOS41MjQ5QzEyLjA4NDMgMjIuMzk4MiAxMi43MTYxIDI2LjE5OTMgMTMuMDY1NSAyNy4zNjg0QzE0LjY1MiAzMi42NzA2IDE5LjU2NzYgMzYuNTM0OSAyNS4zODU2IDM2LjUzNDlDMzIuNDg3MSAzNi41MzQ5IDM4LjMxNzUgMzAuODUyNSAzOC4zMTc1IDIzLjc1MDlDMzguMzE3NSAxMy4wMDA2IDI4LjA5NzUgMTEuODYwMSAyNS4yMDA0IDkuNTM0ODhaTTIzLjQ3OTkgMjIuNjk1MkMyMy4yNjM5IDIyLjc0NTQgMjMuMDU2IDIyLjY1NDcgMjIuNzEwNCAyMi41NUMyMi4zODY0IDIyLjQ1MTcgMjIuMjcyNSAyMi40NyAyMi4yNzI1IDIyLjQ3QzIyLjQ5MDggMjIuMzIzMSAyMi43MTk1IDIyLjE5MjEgMjIuOTU2NyAyMi4wNzhDMjMuMzAwMSAyMS45MTk4IDIzLjU5MzkgMjEuOTExNyAyMy43Mjk5IDIyLjIyNkMyMy44MTk2IDIyLjQzMjggMjMuNjU3IDIyLjY1MzYgMjMuNDc5OSAyMi42OTUyWiIvPiYjeGE7PC9tYXNrPiYjeGE7PGcgbWFzaz0idXJsKCNtYXNrMF8yNjIyXzQwOTQpIj4mI3hhOzxwYXRoIGZpbGw9InVybCgjcGFpbnQxX3JhZGlhbF8yNjIyXzQwOTQpIiBkPSJNMjUuMjAwNCA5LjUzNDg4QzI1LjIwMDQgOS41MzQ4OCAyNS4xOTcxIDEwLjY1ODYgMjguMTM0NyAxMi40NDMzQzMzLjgzODIgMTUuOTA2OSAzMy44MTg4IDE5LjA4NDggMzMuODE4OCAxOS43NTE3QzMzLjgxODggMjIuNTgzNCAzMC44NzE0IDI0LjQxNCAyOS41MDQyIDIyLjkzMjNDMjkuNTA0MiAyMi45MzIzIDMwLjg0NjEgMjEuOTM2NSAzMC44NDYxIDIwLjQwNTFDMzAuODQ2MSAyMC40MDUxIDI5Ljg2MjIgMjEuMDUzMSAyOS4zNDc2IDIxLjE2NTRDMjkuMzQ3NiAyMS4xNjU0IDMwLjAxODIgMTkuOTgwMSAyOS43MDU2IDE3LjkwMDZDMjkuNzA1NiAxNy45MDA2IDI5LjE2ODggMTguOTUxNCAyNy40NDY4IDE5LjgwMTRDMjcuNDQ2OCAxOS44MDE0IDI4LjExNzQgMTguMzAyOSAyNy40OTE2IDE2Ljg3MTlDMjcuNDkxNiAxNi44NzE5IDI3LjYyNTUgMTguNjYwOSAyMy41NTUgMjAuNTYxN0MxOS40ODQ1IDIyLjQ2MjUgMjAuNzM3MyAyNC4zNjM4IDIwLjczNzMgMjQuMzYzOEMyMC43MzczIDI0LjM2MzggMjEuNTQ3MyAyMy40OTk4IDIyLjkyNjQgMjQuMTA3M0MyNC43OSAyNC45MjYgMjQuMDM2NyAyOC4yMTEzIDIxLjAzOTcgMjguMjExM0MxOC4xMjM3IDI4LjIxMTMgMTYuMjA3MiAyNS4wMzgzIDE2LjIwNzIgMjIuNTYwMkMxNi4yMDcyIDIxLjUzNDIgMTYuMzE4NCAxOS42NTEyIDE4LjE2OSAxNy41NzgyQzE5LjY0MTEgMTUuOTI5NiAyMS40NTY1IDE1LjA1OTYgMjEuODQ1OSAxMy4yMzY2QzE5LjgzMDEgMTUuMTA1NSAxNi4xOTEgMTYuMzI1OSAxNC4wMjgzIDE5LjUyNDlDMTIuMDg0MyAyMi4zOTgyIDEyLjcxNjEgMjYuMTk5MyAxMy4wNjU1IDI3LjM2ODRDMTQuNjUyIDMyLjY3MDYgMTkuNTY3NiAzNi41MzQ5IDI1LjM4NTYgMzYuNTM0OUMzMi40ODcxIDM2LjUzNDkgMzguMzE3NSAzMC44NTI1IDM4LjMxNzUgMjMuNzUwOUMzOC4zMTc1IDEzLjAwMDYgMjguMDk3NSAxMS44NjAxIDI1LjIwMDQgOS41MzQ4OFoiLz4mI3hhOzxwYXRoIGZpbGw9InVybCgjcGFpbnQyX3JhZGlhbF8yNjIyXzQwOTQpIiBkPSJNMjQuNDYyMSAyMi45NjRDMjYuNzI2MyAyMS43OTcxIDI3LjQ1MjEgMTkuNzk3NCAyNy40NTIxIDE5Ljc5NzRDMjcuNDUyMSAxOS43OTc0IDI4LjEyMjggMTguMjk4NCAyNy40OTY0IDE2Ljg2NThDMjcuNDk2NCAxNi44NjU4IDI3LjYzMDMgMTguNjU2NCAyMy41NTQ0IDIwLjU1ODhDMTkuNDc4NSAyMi40NjEzIDIwLjczNDUgMjQuMzYzNyAyMC43MzQ1IDI0LjM2MzdDMjAuOTQ3OCAyNC4xNzM2IDIxLjE1MDggMjQuMDQ1MSAyMS41NTMxIDIzLjkzNzFDMjIuMjI2IDIzLjc1NjcgMjMuMjgwNiAyMy41NzQ3IDI0LjQ2MjEgMjIuOTY0WiIgb3BhY2l0eT0iMC42Ii8+JiN4YTs8cGF0aCBmaWxsPSJ1cmwoI3BhaW50M19yYWRpYWxfMjYyMl80MDk0KSIgZD0iTTI0LjU3ODggMjMuNzkwOEMyNi4zMjg0IDIzLjc5MDggMjguMzUyOCAyMi45Nzc1IDI5LjM1NDUgMjEuMTYxQzI5LjUxMTEgMjAuODc3NSAyOS42NTA1IDIwLjQxNjkgMjkuNzIwMSAxOS45ODMyQzI5LjgyODEgMTkuMjkyIDI5Ljg0MTYgMTguNzc4IDI5LjcxNDIgMTcuODQ0M0MyOS43MTQyIDE3Ljg0NDMgMjkuMzgyNiAxOC43NzM2IDI3LjQ1MjEgMTkuNzk1M0MyNi43NTAxIDIwLjE2NjMgMjUuODUzMiAyMC41MzczIDI0LjY2NTIgMjAuODk4QzIwLjA2MjIgMjIuMjk1IDIwLjczNzIgMjQuMzYxNiAyMC43MzcyIDI0LjM2MTZDMjEuNDYyNCAyMy44ODM3IDIxLjQ2NjggMjMuNzkwOCAyNC41Nzg4IDIzLjc5MDhaIiBvcGFjaXR5PSIwLjQiLz4mI3hhOzxwYXRoIGZpbGw9InVybCgjcGFpbnQ0X3JhZGlhbF8yNjIyXzQwOTQpIiBkPSJNMjQuNTc4NyAyMy43OTA3QzI2LjE4NzQgMjMuNzkwNyAyOC4zNzQ0IDIzLjg4MTQgMjkuNTEwNiAyMi45MjY3QzMwLjIwNzIgMjIuMzQzIDMwLjg0MzMgMjEuNTcxMyAzMC44NTUyIDIwLjM5NTJDMzAuODU1MiAyMC4zOTUyIDI5LjkwMjEgMjEuMDI0MyAyOS4zNTQ1IDIxLjE1OTNDMjguNTk4NSAyMS4zNDYxIDI3LjIzMjggMjEuNjMzNCAyNS45ODU0IDIxLjU2MjdDMjEuNzUxMyAyMS4zMjI0IDIwLjczNzIgMjQuMzU5MyAyMC43MzcyIDI0LjM1OTNDMjEuMzIwOSAyMy44MjM3IDIyLjAzMTYgMjMuNzkwNyAyNC41Nzg3IDIzLjc5MDdaIiBvcGFjaXR5PSIwLjIiLz4mI3hhOzxwYXRoIGZpbGw9InVybCgjcGFpbnQ1X3JhZGlhbF8yNjIyXzQwOTQpIiBkPSJNMjQuNDYyMSAyMi45NjRDMjYuNzI2NCAyMS43OTcxIDI3LjQ1MjEgMTkuNzk3NSAyNy40NTIxIDE5Ljc5NzVDMjYuNzUwMSAyMC4xNjg1IDI1Ljg1MzIgMjAuNTM5NCAyNC42NjUyIDIwLjkwMDJDMjAuMDYyMiAyMi4yOTcxIDIwLjczNzIgMjQuMzYzNyAyMC43MzcyIDI0LjM2MzdDMjAuOTUwNSAyNC4xNzM2IDIxLjE1MzYgMjQuMDQ1MSAyMS41NTU5IDIzLjkzNzFDMjIuMjI2IDIzLjc1NjggMjMuMjgwNiAyMy41NzQ4IDI0LjQ2MjEgMjIuOTY0WiIgb3BhY2l0eT0iMC40Ii8+JiN4YTs8cGF0aCBmaWxsPSJ1cmwoI3BhaW50Nl9yYWRpYWxfMjYyMl80MDk0KSIgZD0iTTIxLjU1OCAyMy45MzcxQzIyLjIyODEgMjMuNzU2NyAyMy4yODI3IDIzLjU3MzEgMjQuNDY0MyAyMi45NjUxQzI1LjE0ODYgMjIuNjEyMiAyNS43NjU5IDIyLjE0MjMgMjYuMjg4NCAyMS41NzY3QzI2LjE4NjkgMjEuNTc2NyAyNi4wODU5IDIxLjU3MyAyNS45ODU0IDIxLjU2NzZDMjEuNzUxMyAyMS4zMjczIDIwLjczNzIgMjQuMzY0MiAyMC43MzcyIDI0LjM2NDJDMjAuOTIxMSAyNC4xODk5IDIxLjE0MjkgMjQuMDYwNSAyMS4zODUyIDIzLjk4NjJDMjEuNDM5NyAyMy45NzA2IDIxLjQ5NDggMjMuOTUyNyAyMS41NTggMjMuOTM3MVoiLz4mI3hhOzxwYXRoIGZpbGw9InVybCgjcGFpbnQ3X3JhZGlhbF8yNjIyXzQwOTQpIiBkPSJNMzguMzE3NSAyMy43NTA4QzM4LjMxNzUgMjEuNjA3IDM3LjkxMDMgMTkuODQ2MSAzNy4yMzc1IDE4LjM4MDVDMzcuMzAxNyAxOC41NzQ0IDM4LjYwMzcgMjIuNjQ2NSAzNS4zNDQyIDI1LjkwNDNDMzMuNDgzNCAyNy43NjUyIDMwLjMxNzQgMjguNDA5NCAyNy43NzE4IDI2LjM3NDdDMjcuNzcxOCAyNi4zNzQ3IDI4LjA5NTggMzEuNDgyIDIyLjA0NDYgMzIuMjM1M0MxOC4wOTM0IDMyLjcyNzIgMTQuOTg0MSAzMC4yMDk3IDEzLjYzNTEgMjcuMDAzMkMxMi42OTY2IDI0Ljc3MyAxMi42MDkxIDIyLjIwOTYgMTMuNjgzNyAyMC4wOTEyQzEyLjE2NTggMjIuODc5MiAxMi43Mzg3IDI2LjI3NDggMTMuMDY1NCAyNy4zNjgzQzE0LjY1MiAzMi42NzA1IDE5LjU2NzYgMzYuNTM0OCAyNS4zODU1IDM2LjUzNDhDMzIuNDg3MSAzNi41MzQ4IDM4LjMxNzUgMzAuODUyMyAzOC4zMTc1IDIzLjc1MDhaIiBvcGFjaXR5PSIwLjQiLz4mI3hhOzxwYXRoIGZpbGw9InVybCgjcGFpbnQ4X3JhZGlhbF8yNjIyXzQwOTQpIiBkPSJNMzcuMDExOSAyOS4zNTgyQzM2LjM0MTIgMjkuNTM5NiAzMS4wODQ5IDMwLjc5MDMgMjcuNzcwOSAyNi4zNzQ3QzI3Ljc3MDkgMjYuMzc0NyAyOS4zMTQyIDMyLjM2MDYgMjIuNzU0MyAzNi4yNjQ4QzIzLjYxOTggMzYuNDQ0OSAyNC41MDE2IDM2LjUzNTMgMjUuMzg1NyAzNi41MzQ4QzMwLjQ3MDkgMzYuNTM0OCAzNC45MDQzIDMzLjYxODggMzcuMDExOSAyOS4zNTgyWiIgb3BhY2l0eT0iMC42Ii8+JiN4YTs8cGF0aCBmaWxsPSJ1cmwoI3BhaW50OV9yYWRpYWxfMjYyMl80MDk0KSIgZD0iTTM0LjE1NzkgMzMuMTQyNUMzMC4wNDc5IDMxLjAyNjggMjcuNzcwOCAyNi4zNzQ3IDI3Ljc3MDggMjYuMzc0N0MyOS42MDI0IDMwLjg0MjEgMjguODA4NiAzNC4zMjg0IDI3Ljk4NjggMzYuMjc1MUMzMC4yODk1IDM1LjgwODkgMzIuNDIyNCAzNC43MjYyIDM0LjE1NzkgMzMuMTQyNVoiIG9wYWNpdHk9IjAuNyIvPiYjeGE7PC9nPiYjeGE7PC9nPiYjeGE7PC9nPiYjeGE7PGRlZnM+JiN4YTs8bGluZWFyR3JhZGllbnQgZ3JhZGllbnRVbml0cz0idXNlclNwYWNlT25Vc2UiIHkyPSI0NC4yNzkyIiB4Mj0iNDEuNTY0NSIgeTE9IjYuODQ3NzUiIHgxPSI0Ljg1Mjg3IiBpZD0icGFpbnQwX2xpbmVhcl8yNjIyXzQwOTQiPiYjeGE7PHN0b3Agc3RvcC1jb2xvcj0id2hpdGUiLz4mI3hhOzxzdG9wIHN0b3AtY29sb3I9IiNFQUVDRUUiIG9mZnNldD0iMSIvPiYjeGE7PC9saW5lYXJHcmFkaWVudD4mI3hhOzxyYWRpYWxHcmFkaWVudCBncmFkaWVudFRyYW5zZm9ybT0idHJhbnNsYXRlKDE2LjY1NzYgMTMuNDk5Mykgcm90YXRlKDQ2LjgwMjgpIHNjYWxlKDI1LjkyODYgNDguODk2MikiIGdyYWRpZW50VW5pdHM9InVzZXJTcGFjZU9uVXNlIiByPSIxIiBjeT0iMCIgY3g9IjAiIGlkPSJwYWludDFfcmFkaWFsXzI2MjJfNDA5NCI+JiN4YTs8c3RvcCBzdG9wLWNvbG9yPSIjMDE5NUZGIi8+JiN4YTs8c3RvcCBzdG9wLWNvbG9yPSIjMTE0N0U5IiBvZmZzZXQ9IjEiLz4mI3hhOzwvcmFkaWFsR3JhZGllbnQ+JiN4YTs8cmFkaWFsR3JhZGllbnQgZ3JhZGllbnRUcmFuc2Zvcm09InRyYW5zbGF0ZSgyMS42OTk2IDE3Ljk5MTEpIHJvdGF0ZSg0Ni4xMTQpIHNjYWxlKDcuMjg1NTEgOC44MzUzKSIgZ3JhZGllbnRVbml0cz0idXNlclNwYWNlT25Vc2UiIHI9IjEiIGN5PSIwIiBjeD0iMCIgaWQ9InBhaW50Ml9yYWRpYWxfMjYyMl80MDk0Ij4mI3hhOzxzdG9wIHN0b3AtY29sb3I9IiMwMEJCRkYiLz4mI3hhOzxzdG9wIHN0b3AtY29sb3I9IiMwMDhCRkYiIG9mZnNldD0iMSIvPiYjeGE7PC9yYWRpYWxHcmFkaWVudD4mI3hhOzxyYWRpYWxHcmFkaWVudCBncmFkaWVudFRyYW5zZm9ybT0idHJhbnNsYXRlKDIyLjE1MTIgMTguODIyNCkgcm90YXRlKDM1LjYwMDgpIHNjYWxlKDcuODQwMjQgOS4wMDc2NikiIGdyYWRpZW50VW5pdHM9InVzZXJTcGFjZU9uVXNlIiByPSIxIiBjeT0iMCIgY3g9IjAiIGlkPSJwYWludDNfcmFkaWFsXzI2MjJfNDA5NCI+JiN4YTs8c3RvcCBzdG9wLWNvbG9yPSIjMDBCQkZGIi8+JiN4YTs8c3RvcCBzdG9wLWNvbG9yPSIjMDA4QkZGIiBvZmZzZXQ9IjEiLz4mI3hhOzwvcmFkaWFsR3JhZGllbnQ+JiN4YTs8cmFkaWFsR3JhZGllbnQgZ3JhZGllbnRUcmFuc2Zvcm09InRyYW5zbGF0ZSgyMi4zNDc0IDIwLjk5MDIpIHJvdGF0ZSgyMS4zOTQ4KSBzY2FsZSg3LjYxMDA5IDYuMjc0MDMpIiBncmFkaWVudFVuaXRzPSJ1c2VyU3BhY2VPblVzZSIgcj0iMSIgY3k9IjAiIGN4PSIwIiBpZD0icGFpbnQ0X3JhZGlhbF8yNjIyXzQwOTQiPiYjeGE7PHN0b3Agc3RvcC1jb2xvcj0iIzAwQkJGRiIvPiYjeGE7PHN0b3Agc3RvcC1jb2xvcj0iIzAwOEJGRiIgb2Zmc2V0PSIxIi8+JiN4YTs8L3JhZGlhbEdyYWRpZW50PiYjeGE7PHJhZGlhbEdyYWRpZW50IGdyYWRpZW50VHJhbnNmb3JtPSJ0cmFuc2xhdGUoMjEuNzc2NyAyMC40ODI4KSByb3RhdGUoMzQuMDc5MSkgc2NhbGUoNS43MDY4NSA2LjQyODg3KSIgZ3JhZGllbnRVbml0cz0idXNlclNwYWNlT25Vc2UiIHI9IjEiIGN5PSIwIiBjeD0iMCIgaWQ9InBhaW50NV9yYWRpYWxfMjYyMl80MDk0Ij4mI3hhOzxzdG9wIHN0b3AtY29sb3I9IiMwMEJCRkYiLz4mI3hhOzxzdG9wIHN0b3AtY29sb3I9IiMwMDhCRkYiIG9mZnNldD0iMSIvPiYjeGE7PC9yYWRpYWxHcmFkaWVudD4mI3hhOzxyYWRpYWxHcmFkaWVudCBncmFkaWVudFRyYW5zZm9ybT0idHJhbnNsYXRlKDIxLjYyMDYgMjEuOTc1OCkgcm90YXRlKDI2Ljg1MDEpIHNjYWxlKDQuMzU3MjggNC4yNjE4OSkiIGdyYWRpZW50VW5pdHM9InVzZXJTcGFjZU9uVXNlIiByPSIxIiBjeT0iMCIgY3g9IjAiIGlkPSJwYWludDZfcmFkaWFsXzI2MjJfNDA5NCI+JiN4YTs8c3RvcCBzdG9wLWNvbG9yPSIjMDBCQkZGIi8+JiN4YTs8c3RvcCBzdG9wLWNvbG9yPSIjMDA4QkZGIiBvZmZzZXQ9IjEiLz4mI3hhOzwvcmFkaWFsR3JhZGllbnQ+JiN4YTs8cmFkaWFsR3JhZGllbnQgZ3JhZGllbnRUcmFuc2Zvcm09InRyYW5zbGF0ZSgxNi42NTIyIDIxLjExMTUpIHJvdGF0ZSgzNS4zMDU4KSBzY2FsZSgyMS44ODA4IDE4LjgwODQpIiBncmFkaWVudFVuaXRzPSJ1c2VyU3BhY2VPblVzZSIgcj0iMSIgY3k9IjAiIGN4PSIwIiBpZD0icGFpbnQ3X3JhZGlhbF8yNjIyXzQwOTQiPiYjeGE7PHN0b3Agc3RvcC1jb2xvcj0iIzEzNDhGRiIvPiYjeGE7PHN0b3Agc3RvcC1jb2xvcj0iIzA2MjM4RCIgb2Zmc2V0PSIxIi8+JiN4YTs8L3JhZGlhbEdyYWRpZW50PiYjeGE7PHJhZGlhbEdyYWRpZW50IGdyYWRpZW50VHJhbnNmb3JtPSJ0cmFuc2xhdGUoMjQuOTY1MyAyNy44NjY1KSByb3RhdGUoMzUuNzc1Mikgc2NhbGUoMTIuMTY2OSAyMS44MDgyKSIgZ3JhZGllbnRVbml0cz0idXNlclNwYWNlT25Vc2UiIHI9IjEiIGN5PSIwIiBjeD0iMCIgaWQ9InBhaW50OF9yYWRpYWxfMjYyMl80MDk0Ij4mI3hhOzxzdG9wIHN0b3AtY29sb3I9IiMwMTk1RkYiLz4mI3hhOzxzdG9wIHN0b3AtY29sb3I9IiMxMTQ3RTkiIG9mZnNldD0iMSIvPiYjeGE7PC9yYWRpYWxHcmFkaWVudD4mI3hhOzxyYWRpYWxHcmFkaWVudCBncmFkaWVudFRyYW5zZm9ybT0idHJhbnNsYXRlKDI4Ljc4NzIgMjcuODYwNikgcm90YXRlKDU3LjE3MjMpIHNjYWxlKDguMjUwOSA5LjEyMzIzKSIgZ3JhZGllbnRVbml0cz0idXNlclNwYWNlT25Vc2UiIHI9IjEiIGN5PSIwIiBjeD0iMCIgaWQ9InBhaW50OV9yYWRpYWxfMjYyMl80MDk0Ij4mI3hhOzxzdG9wIHN0b3AtY29sb3I9IiMwMEJCRkYiLz4mI3hhOzxzdG9wIHN0b3AtY29sb3I9IiMwMDhCRkYiIG9mZnNldD0iMSIvPiYjeGE7PC9yYWRpYWxHcmFkaWVudD4mI3hhOzxjbGlwUGF0aCBpZD0iY2xpcDBfMjYyMl80MDk0Ij4mI3hhOzxyZWN0IHRyYW5zZm9ybT0idHJhbnNsYXRlKDAuNSAwLjAzNDkxMjEpIiBmaWxsPSJ3aGl0ZSIgaGVpZ2h0PSI0OCIgd2lkdGg9IjQ4Ii8+JiN4YTs8L2NsaXBQYXRoPiYjeGE7PGNsaXBQYXRoIGlkPSJjbGlwMV8yNjIyXzQwOTQiPiYjeGE7PHJlY3QgdHJhbnNmb3JtPSJ0cmFuc2xhdGUoMTIgOS41MzQ5MSkiIGZpbGw9IndoaXRlIiBoZWlnaHQ9IjI3IiB3aWR0aD0iMjciLz4mI3hhOzwvY2xpcFBhdGg+JiN4YTs8L2RlZnM+JiN4YTs8L3N2Zz4=;points=[[0,0,0,0,0],[0,0.25,0,0,0],[0,0.5,0,0,0],[0,0.75,0,0,0],[0.25,0,0,0,0],[0.5,0,0,0,0],[0.75,0,0,0,0],[1,0,0,0,0],[1,0.25,0,0,0],[1,0.5,0,0,0],[1,0.75,0,0,0]];" parent="q-DKs4rhJ-QWINOPGp90-39" vertex="1">
          <mxGeometry x="30.5" width="49" height="49" as="geometry" />
        </mxCell>
        <mxCell id="q-DKs4rhJ-QWINOPGp90-41" value="&lt;font color=&quot;#1d2d3e&quot; size=&quot;1&quot; face=&quot;arial&quot; style=&quot;&quot;&gt;&lt;b style=&quot;font-size: 14px;&quot;&gt;UI5 Web Components&lt;br&gt;for React (in TypeScript)&lt;br&gt;&lt;/b&gt;&lt;/font&gt;" style="text;html=1;align=center;verticalAlign=top;resizable=1;points=[[0,0.5,0,0,0],[0.21,1,0,0,0],[0.5,1,0,0,0],[0.85,1,0,0,0],[1,0.5,0,0,0]];autosize=0;strokeColor=none;fillColor=none;fontSize=12;fontColor=default;fontFamily=Helvetica;fixedWidth=1;imageWidth=24;whiteSpace=wrap;labelBackgroundColor=none;" parent="q-DKs4rhJ-QWINOPGp90-39" vertex="1">
          <mxGeometry x="-50" y="49" width="210" height="46" as="geometry" />
        </mxCell>
        <mxCell id="q-DKs4rhJ-QWINOPGp90-42" value="" style="group" parent="1" vertex="1" connectable="0">
          <mxGeometry x="-263" y="-271" width="110" height="95" as="geometry" />
        </mxCell>
        <mxCell id="q-DKs4rhJ-QWINOPGp90-43" value="" style="shape=image;verticalLabelPosition=bottom;verticalAlign=top;imageAspect=0;aspect=fixed;image=data:image/svg+xml,PHN2ZyB4bWxucz0iaHR0cDovL3d3dy53My5vcmcvMjAwMC9zdmciIGZpbGw9Im5vbmUiIHZpZXdCb3g9IjAgMCA0OSA0OSIgaGVpZ2h0PSI0OSIgd2lkdGg9IjQ5Ij4mI3hhOzxjaXJjbGUgc3Ryb2tlLXdpZHRoPSIwLjg1NzE0MyIgc3Ryb2tlPSIjRDVEQUREIiBmaWxsPSJ1cmwoI3BhaW50MF9saW5lYXJfMjYyMl8zMTYyKSIgcj0iMjMuNTcxNCIgY3k9IjI0LjAzNDkiIGN4PSIyNC41Ii8+JiN4YTs8ZyBjbGlwLXBhdGg9InVybCgjY2xpcDBfMjYyMl8zMTYyKSI+JiN4YTs8cGF0aCBmaWxsPSJ1cmwoI3BhaW50MV9yYWRpYWxfMjYyMl8zMTYyKSIgZD0iTTE3LjA4MjQgMTkuNjE4NkMxNi43OTA3IDE1Ljc0MzQgMTkuODk2MiAxMS41MzQ5IDI0LjMzMjcgMTEuNTM0OUMyNy43Njk1IDExLjUzNDkgMzAuMjkxNCAxMy42MTgzIDMxLjQ5NSAxNi44NTE2QzM0LjgzMzIgMTYuNjE4NCAzOC4wMDAxIDE5LjQ1ODEgMzguMDAwMSAyMy41MzU0QzM4LjAwMDEgMjYuMTI4NyAzNi43Njc4IDI4LjA5ODMgMzQuOTg2NyAyOS4yMDE0VjI1Ljc1MTNDMzQuOTg2NyAyNS42Mjg4IDM0Ljk3NTMgMjUuNTMxNiAzNC45NzIxIDI1LjUwMzZDMzQuOTY3IDI1LjQ2MDMgMzQuOTYxNCAyNS40MjM3IDM0Ljk1NzQgMjUuMzk5MkMzNC45NDk0IDI1LjM0OTUgMzQuOTQwNiAyNS4zMDM3IDM0LjkzMzMgMjUuMjY4MUMzNC45MTg2IDI1LjE5NTggMzQuOSAyNS4xMTUxIDM0Ljg3OTcgMjUuMDM2NkMzNC44NjMzIDI0Ljk3MzUgMzQuODI5NiAyNC44NDggMzQuNzc5NyAyNC43MTU2TDM0Ljc3ODIgMjQuNzExNkMzNC43Njk0IDI0LjY4ODIgMzQuNzQ1MSAyNC42MjM0IDM0LjcwMzcgMjQuNTM3MkMzNC4xMzAzIDIzLjAzODkgMzIuNzc3NCAyMi4wNjA0IDMxLjQzOTIgMjEuNDc3NEMyOS45NjU5IDIwLjgzNTUgMjguMTQ2OSAyMC41MDA0IDI2LjIwNTcgMjAuNTAwNEMyNC4yNjYzIDIwLjUwMDQgMjIuNDQ3NyAyMC44MzMgMjAuOTczMiAyMS40NzM2QzE5LjU5ODkgMjIuMDcwNiAxOC4yMTM5IDIzLjA4MTkgMTcuNjYxMyAyNC42NDIzQzE3LjU0MDIgMjQuOTIxMyAxNy40MjQ3IDI1LjMwMDMgMTcuNDI0NyAyNS43NTkzVjMwLjE4NTVIMTYuNTExNkMxMi44Nzc2IDMwLjE4NTUgMTEgMjcuOTUzOSAxMSAyNC44MzQzQzExIDIxLjU2MDQgMTMuMzkxMiAxOC45NzY2IDE3LjA4MjQgMTkuNjE4NloiIGNsaXAtcnVsZT0iZXZlbm9kZCIgZmlsbC1ydWxlPSJldmVub2RkIi8+JiN4YTs8cGF0aCBmaWxsPSJ1cmwoI3BhaW50Ml9yYWRpYWxfMjYyMl8zMTYyKSIgZD0iTTI2LjIwNTcgMjIuNTI1N0MyOS42NTU4IDIyLjUyNTcgMzIuMzM3NCAyMy43MjY0IDMyLjg1NzcgMjUuMzkxNEMzMi44ODM3IDI1LjM2NTQgMzIuOTYxNyAyNS43MDc1IDMyLjk2MTcgMjUuNzUxNlYzNS4wNzcyQzMyLjk2MTcgMzcuMDQ2MyAzMC4wNTYgMzguNTM1MiAyNi4yMDU3IDM4LjUzNTJDMjIuMzU1NCAzOC41MzUyIDE5LjQ0OTcgMzcuMDQ2MyAxOS40NDk3IDM1LjA3NzJWMjUuNzU5NkMxOS40NDk3IDI1LjYyMzUgMTkuNDg5NyAyNS41MDM1IDE5LjU0NTggMjUuMzkxNEMyMC4wNzQxIDIzLjcxODQgMjIuNzU1NyAyMi41MjU3IDI2LjIwNTcgMjIuNTI1N1pNMzEuMzYwOCAyNS45ODM4QzMxLjM2MDggMjUuMjQ3MyAyOS4zMDM2IDI0LjEyNjcgMjYuMjA1NyAyNC4xMjY3QzIzLjEwNzkgMjQuMTI2NyAyMS4wNTA2IDI1LjI0NzMgMjEuMDUwNiAyNS45ODM4QzIxLjA1MDYgMjYuNzIwMiAyMy4xMDc5IDI3Ljg0MDkgMjYuMjA1NyAyNy44NDA5QzI5LjMwMzYgMjcuODQwOSAzMS4zNjA4IDI2LjcyMDIgMzEuMzYwOCAyNS45ODM4Wk0zMS41NTU0IDMwLjA5NzdDMzEuNTU1NCAyOS41Mzg1IDMxLjEwMjEgMjkuMDg1MiAzMC41NDI5IDI5LjA4NTJDMjkuOTgzNyAyOS4wODUyIDI5LjUzMDQgMjkuNTM4NSAyOS41MzA0IDMwLjA5NzdWMzQuNzc3QzI5LjUzMDQgMzUuMzM2MiAyOS45ODM3IDM1Ljc4OTUgMzAuNTQyOSAzNS43ODk1QzMxLjEwMjEgMzUuNzg5NSAzMS41NTU0IDM1LjMzNjIgMzEuNTU1NCAzNC43NzdWMzAuMDk3N1oiIGNsaXAtcnVsZT0iZXZlbm9kZCIgZmlsbC1ydWxlPSJldmVub2RkIi8+JiN4YTs8L2c+JiN4YTs8ZGVmcz4mI3hhOzxsaW5lYXJHcmFkaWVudCBncmFkaWVudFVuaXRzPSJ1c2VyU3BhY2VPblVzZSIgeTI9IjQ0LjI3OTIiIHgyPSI0MS41NjQ1IiB5MT0iNi44NDc3NSIgeDE9IjQuODUyODciIGlkPSJwYWludDBfbGluZWFyXzI2MjJfMzE2MiI+JiN4YTs8c3RvcCBzdG9wLWNvbG9yPSJ3aGl0ZSIvPiYjeGE7PHN0b3Agc3RvcC1jb2xvcj0iI0VBRUNFRSIgb2Zmc2V0PSIxIi8+JiN4YTs8L2xpbmVhckdyYWRpZW50PiYjeGE7PHJhZGlhbEdyYWRpZW50IGdyYWRpZW50VHJhbnNmb3JtPSJ0cmFuc2xhdGUoMTUuMTg3IDE1LjQ5OTQpIHJvdGF0ZSg0NS4zMTgzKSBzY2FsZSgyNi41ODQ1IDUwLjIyOTQpIiBncmFkaWVudFVuaXRzPSJ1c2VyU3BhY2VPblVzZSIgcj0iMSIgY3k9IjAiIGN4PSIwIiBpZD0icGFpbnQxX3JhZGlhbF8yNjIyXzMxNjIiPiYjeGE7PHN0b3Agc3RvcC1jb2xvcj0iIzAxOTVGRiIvPiYjeGE7PHN0b3Agc3RvcC1jb2xvcj0iIzExNDdFOSIgb2Zmc2V0PSIxIi8+JiN4YTs8L3JhZGlhbEdyYWRpZW50PiYjeGE7PHJhZGlhbEdyYWRpZW50IGdyYWRpZW50VHJhbnNmb3JtPSJ0cmFuc2xhdGUoMTUuMTgwOSAxNS41OTY3KSByb3RhdGUoNDUuMDAwMykgc2NhbGUoMjYuNTk4IDI0LjIzNzcpIiBncmFkaWVudFVuaXRzPSJ1c2VyU3BhY2VPblVzZSIgcj0iMSIgY3k9IjAiIGN4PSIwIiBpZD0icGFpbnQyX3JhZGlhbF8yNjIyXzMxNjIiPiYjeGE7PHN0b3Agc3RvcC1jb2xvcj0iIzEzNDhGRiIvPiYjeGE7PHN0b3Agc3RvcC1jb2xvcj0iIzA2MjM4RCIgb2Zmc2V0PSIxIi8+JiN4YTs8L3JhZGlhbEdyYWRpZW50PiYjeGE7PGNsaXBQYXRoIGlkPSJjbGlwMF8yNjIyXzMxNjIiPiYjeGE7PHJlY3QgdHJhbnNmb3JtPSJ0cmFuc2xhdGUoMTEgMTEuNTM0OSkiIGZpbGw9IndoaXRlIiBoZWlnaHQ9IjI3IiB3aWR0aD0iMjciLz4mI3hhOzwvY2xpcFBhdGg+JiN4YTs8L2RlZnM+JiN4YTs8L3N2Zz4=;points=[[0,0,0,0,0],[0,0.25,0,0,0],[0,0.5,0,0,0],[0,0.75,0,0,0],[0.25,0,0,0,0],[0.5,0,0,0,0],[0.75,0,0,0,0],[1,0,0,0,0],[1,0.25,0,0,0],[1,0.5,0,0,0],[1,0.75,0,0,0]];" parent="q-DKs4rhJ-QWINOPGp90-42" vertex="1">
          <mxGeometry x="30.5" width="49" height="49" as="geometry" />
        </mxCell>
        <mxCell id="q-DKs4rhJ-QWINOPGp90-44" value="&lt;font color=&quot;#1d2d3e&quot; size=&quot;1&quot; face=&quot;arial&quot; style=&quot;&quot;&gt;&lt;b style=&quot;font-size: 14px;&quot;&gt;SAP HANA Cloud&lt;br&gt;&lt;/b&gt;&lt;/font&gt;" style="text;html=1;align=center;verticalAlign=top;resizable=1;points=[[0,0.5,0,0,0],[0.21,1,0,0,0],[0.5,1,0,0,0],[0.85,1,0,0,0],[1,0.5,0,0,0]];autosize=0;strokeColor=none;fillColor=none;fontSize=12;fontColor=default;fontFamily=Helvetica;fixedWidth=1;imageWidth=24;whiteSpace=wrap;labelBackgroundColor=none;" parent="q-DKs4rhJ-QWINOPGp90-42" vertex="1">
          <mxGeometry y="49" width="110" height="46" as="geometry" />
        </mxCell>
        <mxCell id="q-DKs4rhJ-QWINOPGp90-45" value="" style="group" parent="1" vertex="1" connectable="0">
          <mxGeometry x="-410" y="-270.99999999999994" width="110" height="95" as="geometry" />
        </mxCell>
        <mxCell id="q-DKs4rhJ-QWINOPGp90-46" value="" style="shape=image;verticalLabelPosition=bottom;verticalAlign=top;imageAspect=0;aspect=fixed;image=data:image/svg+xml,PHN2ZyB4bWxucz0iaHR0cDovL3d3dy53My5vcmcvMjAwMC9zdmciIGZpbGw9Im5vbmUiIHZpZXdCb3g9IjAgMCA0OSA0OSIgaGVpZ2h0PSI0OSIgd2lkdGg9IjQ5Ij4mI3hhOzxnIGNsaXAtcGF0aD0idXJsKCNjbGlwMF8yNjIyXzM5NTcpIj4mI3hhOzxjaXJjbGUgc3Ryb2tlLXdpZHRoPSIwLjg1NzE0MyIgc3Ryb2tlPSIjRDVEQUREIiBmaWxsPSJ1cmwoI3BhaW50MF9saW5lYXJfMjYyMl8zOTU3KSIgcj0iMjMuNTcxNCIgY3k9IjI0LjAzNDkiIGN4PSIyNC41Ii8+JiN4YTs8ZyBjbGlwLXBhdGg9InVybCgjY2xpcDFfMjYyMl8zOTU3KSI+JiN4YTs8cGF0aCBmaWxsPSJ1cmwoI3BhaW50MV9yYWRpYWxfMjYyMl8zOTU3KSIgZD0iTTIwLjE5NjkgMTQuNTgwMUMyMC4yMDk1IDEzLjY1MTEgMjAuNjYyOCAxMi45MDk3IDIxLjI0MzIgMTIuMzc2NUMyMS44MDU5IDExLjg1OTUgMjIuNTM2NCAxMS40ODU0IDIzLjMwNjEgMTEuMjEwMkMyNC44NTE5IDEwLjY1NzcgMjYuODgxOSAxMC4zOTA0IDI5LjAzNTUgMTAuMzkwNEMzMS4xODkyIDEwLjM5MDQgMzMuMjMzOCAxMC42NTc3IDM0Ljc5MDggMTEuMjA4OEMzNS41NjU0IDExLjQ4MyAzNi4zMDI3IDExLjg1NjIgMzYuODY5NCAxMi4zNzMyQzM3LjQ1NDIgMTIuOTA2NiAzNy45MTU2IDEzLjY1NiAzNy45MTU2IDE0LjU5OTNMMzcuOTE1NiAyMS44NzFDMzcuOTE1NiAyMi42MjUxIDM3LjMwNDMgMjMuMjM2NCAzNi41NTAyIDIzLjIzNjRDMzUuNzk3MSAyMy4yMzY0IDM1LjE4NjcgMjIuNjI2MiAzNS4xODYzIDIxLjg3M0MzNS4xODYxIDIxLjU0MDMgMzUuMTg1OSAyMS4yNjk3IDM1LjE4NTcgMjEuMjNDMzQuOTkzNSAyMS4yODk3IDMzLjc0NTggMjEuNDAyIDMyLjc3NjQgMjEuNDc1NEMzMi41NzY4IDIxLjQ5MDUgMzIuMzg5MSAyMS40NTE2IDMyLjIyNjEgMjEuMzcxMkMzMi4yMDI0IDIxLjM1NzggMzIuMTc4NiAyMS4zNDQ5IDMyLjE1NDYgMjEuMzMyNEMzMS44NDQzIDIxLjE0NzggMzEuNjM5MSAyMC44MDU2IDMxLjYzOTEgMjAuNDA2MUMzMS42MzkxIDE5Ljc3NjUgMzIuMTQ5MiAxOS4yNDY3IDMyLjc3NTMgMTkuMTgwNkMzMy43Mzk3IDE5LjA3ODggMzQuOTM1MiAxOC45MDc5IDM1LjE4OTYgMTguNzkwN1YxNi4zNDM1QzM1LjA1ODMgMTYuMzk3MiAzNC45MjUxIDE2LjQ0NzcgMzQuNzkwOCAxNi40OTUzQzMzLjIzMzggMTcuMDQ2MyAzMS4xODkyIDE3LjMxMzcgMjkuMDM1NSAxNy4zMTM3QzI2Ljg5OTcgMTcuMzEzNyAyNC44NzQ5IDE3LjA1MDggMjMuMzI5NSAxNi41MDg2QzIzLjE5NDkgMTYuNDYxNCAyMy4wNjE1IDE2LjQxMTIgMjIuOTI5OSAxNi4zNTc4QzIyLjkzMiAxNy4wNDk4IDIyLjM3MTYgMTcuNjExOSAyMS42Nzk1IDE3LjYxMTlIMjEuNTYzMkMyMC44MDg2IDE3LjYxMTkgMjAuMTk2OSAxNy4wMDAyIDIwLjE5NjkgMTYuMjQ1NlYxNC41ODAxWk0yOC40NzA3IDIxLjc1MjhDMjguMjggMjEuMzM0OSAyNy45OTUgMjAuOTc4MyAyNy42NzI1IDIwLjY4NjlDMjcuMTA1OCAyMC4xNzQ3IDI2LjM2ODUgMTkuODA0OSAyNS41OTM5IDE5LjUzMzNDMjQuMDM2OSAxOC45ODczIDIxLjk5MjMgMTguNzIyNCAxOS44Mzg2IDE4LjcyMjRDMTcuNjg1IDE4LjcyMjQgMTUuNjU1IDE4Ljk4NzMgMTQuMTA5MiAxOS41MzQ3QzEzLjMzOTUgMTkuODA3MyAxMi42MDkgMjAuMTc4IDEyLjA0NjMgMjAuNjkwMUMxMS40NjU5IDIxLjIxODUgMTEuMDEyNiAyMS45NTMgMTEgMjIuODczNUwxMS4wMjg0IDMyLjYyNEwxMS4wMjg1IDMyLjYyNTdDMTEuMDI5NCAzNC42OTI3IDEyLjczNTcgMzUuODA5NCAxNC4yNTE4IDM2LjM2MjhDMTUuODU2IDM2Ljk0ODUgMTcuODk0NCAzNy4xNzgyIDE5LjgzNzggMzcuMTc5NEMyMC4zNDA1IDM3LjE3OTcgMjEuMzk4NCAzNy4wNTU5IDIyLjM1NjUgMzYuOTM0QzIzLjIxMzEgMzYuODI0OSAyMy43NzI3IDM1Ljk2NjMgMjMuNTI4MSAzNS4xMzgyQzIzLjM0MDUgMzQuNTAzMyAyMi43MzMxIDM0LjEwMDYgMjIuMDc2OSAzNC4xODg0QzIxLjIzODQgMzQuMzAwNyAyMC4yMjQ5IDM0LjQzNiAxOS44Mzk0IDM0LjQzNThDMTguMDUzNCAzNC40MzQ2IDE2LjM2ODMgMzQuMjE3IDE1LjE4MTMgMzMuNzgzNkMxMy45MDY1IDMzLjMxODMgMTMuNzU0NCAzMi44NDQ4IDEzLjc1NDUgMzIuNjI0TDEzLjc1MjkgMzAuOTQwM0MxNC4yNDI3IDMxLjA4OTQgMTQuNzU2NiAzMS4yMTE4IDE1LjI3NTkgMzEuMzEyQzE2LjM5NDEgMzEuNTI3OSAxOC44NDk5IDMxLjY1NzkgMjAuNjE4NCAzMS43MDVDMjEuMzAzMSAzMS43MjMzIDIxLjg1OSAzMS4xNyAyMS44NjA2IDMwLjQ4NTFDMjEuODYyMiAyOS44IDIxLjMwODUgMjkuMjQyNCAyMC42MjM3IDI5LjIyMzhDMTguOTgyNCAyOS4xNzkxIDE2LjczNSAyOS4wNjMxIDE1Ljc4OTMgMjguODgwNkMxNC45MzA0IDI4LjcxNDggMTQuMjQwOCAyOC41MDYxIDEzLjczNjggMjguMjgzNEwxMy43MzMgMjYuMTE1M0MxMy44NjQ2IDI2LjE2ODIgMTMuOTk4IDI2LjIxOCAxNC4xMzI2IDI2LjI2NDdDMTUuNjc4IDI2LjgwMTkgMTcuNzAyOCAyNy4wNjI0IDE5LjgzODYgMjcuMDYyNEMyMC44NzkzIDI3LjA2MjQgMjEuODk0NSAyNy4wMDA2IDIyLjg0MTUgMjYuODc1TDIyLjc5OTcgMjYuNzA3NVYyNi40OTk4QzIyLjc5OTcgMjUuOTkyMyAyMi45NDM3IDI1LjQwNjcgMjMuMzczNSAyNC45MTgyTDIzLjkzNDIgMjQuMTg0OUwyMy45NTY4IDI0LjE1NzhDMjQuMzg1OCAyMy42NDMgMjUuMDIwOSAyMy4yODAyIDI1Ljc5NCAyMy4yODAyQzI2LjI5NjMgMjMuMjgwMiAyNi43NzUxIDIzLjQzNTYgMjcuMTgwOCAyMy43Mjk5TDI3LjI1MjMgMjMuNzc5NkMyNy4zOTg5IDIzLjY5NzQgMjcuNTQ4IDIzLjYyMDMgMjcuNjk5NiAyMy41NDg1TDI3LjcyMSAyMy4yMzg0TDI3LjczNDQgMjMuMTU4MkMyNy44MTc2IDIyLjY1ODYgMjguMDQzIDIyLjE3OTcgMjguNDMxIDIxLjc5MTdDMjguNDQ0IDIxLjc3ODYgMjguNDU3MyAyMS43NjU3IDI4LjQ3MDcgMjEuNzUyOFpNMjguNzE4NyAyNC45NDM1QzI4LjE5MjIgMjUuMTU2NCAyNy42OTggMjUuNDQ5OCAyNy4yMzU5IDI1LjgyMzlMMjYuMTk5NSAyNS4xMDI5QzI2LjA3OTMgMjUuMDEyOCAyNS45NDQyIDI0Ljk2NzcgMjUuNzk0IDI0Ljk2NzdDMjUuNTgzNyAyNC45Njc3IDI1LjQwMzQgMjUuMDU3OCAyNS4yNTMyIDI1LjIzODFMMjQuNjY3NCAyNi4wMDQxQzI0LjU0NzIgMjYuMTI0MyAyNC40ODcyIDI2LjI4OTUgMjQuNDg3MiAyNi40OTk4QzI0LjQ5MzIgMjYuNTIzOSAyNC40OTk0IDI2LjU0NzIgMjQuNTA1NyAyNi41Njk4QzI0Ljg4OTEgMjYuNDc3IDI1LjI1MzIgMjYuMzcxIDI1LjU5MzkgMjYuMjUxNUMyNS43MjgyIDI2LjIwNDQgMjUuODYxNCAyNi4xNTQ0IDI1Ljk5MjcgMjYuMTAxMkMyNS45OTI3IDI2LjgyNyAyNS45OTA5IDI3LjU1MjkgMjUuOTg5MSAyOC4yNzg3VjI4LjI3ODhDMjUuOTg1NiAyOS43Mjg1IDI1Ljk4MiAzMS4xNzg0IDI1Ljk5MjcgMzIuNjI4TDI4LjcxODcgMzIuNjI0VjMyLjM4QzI4LjY0MzEgMzIuMzE2OCAyOC41Njk0IDMyLjI0OTQgMjguNDk3NyAzMi4xNzc2QzI3Ljg5NjggMzEuNTc2OCAyNy41OTY0IDMwLjg0MDggMjcuNTk2NCAyOS45Njk2QzI3LjU5NjQgMjkuMDk4NCAyNy44OTY4IDI4LjM2MjQgMjguNDk3NyAyNy43NjE1QzI4LjU2OTQgMjcuNjg5OCAyOC42NDMxIDI3LjYyMjMgMjguNzE4NyAyNy41NTkxTDI4LjcxODcgMjQuOTQzNVoiIGNsaXAtcnVsZT0iZXZlbm9kZCIgZmlsbC1ydWxlPSJldmVub2RkIi8+JiN4YTs8cGF0aCBmaWxsPSJ1cmwoI3BhaW50Ml9yYWRpYWxfMjYyMl8zOTU3KSIgZD0iTTM3LjQxOTkgMzAuNDIwMkMzNy43NTAzIDMwLjU3MDQgMzcuOTE1NiAzMC44MjU3IDM3LjkxNTYgMzEuMTg2MlYzMS4yNzYzTDM3LjY5MDIgMzIuMjIyNkMzNy42MDAxIDMyLjYxMzIgMzcuMzU5OCAzMi44MDg0IDM2Ljk2OTMgMzIuODA4NEgzNi44NzkxTDM1LjQzNzEgMzIuNTgzMUMzNS4xNjY4IDMzLjE1MzkgMzQuNzMxMiAzMy42Nzk2IDM0LjEzMDMgMzQuMTYwM0wzNC42NzExIDM1LjY5MjRDMzQuNzAxMSAzNS43NTI1IDM0LjcxNjIgMzUuODI3NiAzNC43MTYyIDM1LjkxNzdDMzQuNzE2MiAzNi4yNzgyIDM0LjU4MSAzNi41MTg1IDM0LjMxMDYgMzYuNjM4N0wzMy40NTQ0IDM3LjA4OTNDMzMuMzM0MyAzNy4xNDk0IDMzLjI0NDEgMzcuMTc5NCAzMy4xODQgMzcuMTc5NEMzMi45MTM3IDM3LjE3OTQgMzIuNzAzNCAzNy4wNDQzIDMyLjU1MzIgMzYuNzczOUwzMS42OTcgMzUuMjg2OEMzMS41NDY4IDM1LjMxNjkgMzEuMzgxNiAzNS4zNDY5IDMxLjIwMTMgMzUuMzc3SDMwLjcwNTZIMzAuMjU1QzMwLjEzNDkgMzUuMzQ2OSAyOS45OTk3IDM1LjMxNjkgMjkuODQ5NSAzNS4yODY4TDI4Ljk0ODIgMzYuODE4OUMyOC43OTggMzcuMDU5MyAyOC42MDI3IDM3LjE3OTQgMjguMzYyNCAzNy4xNzk0QzI4LjIxMjIgMzcuMTc5NCAyOC4xMDcxIDM3LjE0OTQgMjguMDQ3IDM3LjA4OTNMMjcuMTkwOCAzNi42ODM4QzI2LjkyMDQgMzYuNTYzNiAyNi43ODUzIDM2LjM1MzMgMjYuNzg1MyAzNi4wNTI5QzI2Ljc4NTMgMzUuOTMyNyAyNi44MDAzIDM1Ljg0MjYgMjYuODMwMyAzNS43ODI1TDI3LjM3MTEgMzQuMjUwNEMyNi44MzAzIDMzLjg1OTkgMjYuMzk0NyAzMy4zNDkyIDI2LjA2NDMgMzIuNzE4M0wyNC41MzIyIDMyLjk0MzZIMjQuNDQyQzI0LjA1MTUgMzIuOTQzNiAyMy44MTEyIDMyLjc0ODQgMjMuNzIxIDMyLjM1NzhMMjMuNDk1NyAzMS40MTE1VjMxLjMyMTRDMjMuNDk1NyAzMC45NjA5IDIzLjY2MSAzMC43MDU1IDIzLjk5MTQgMzAuNTU1M0wyNS4yOTgyIDMwLjE0OThWMjkuOTY5NUMyNS4yOTgyIDI5LjIxODUgMjUuNDMzNCAyOC41Mjc2IDI1LjcwMzggMjcuODk2N0wyNC43MTI0IDI2Ljk5NTRDMjQuNjIyMyAyNi45MDUzIDI0LjU0NzIgMjYuNzQwMSAyNC40ODcxIDI2LjQ5OThDMjQuNDg3MSAyNi4yODk1IDI0LjU0NzIgMjYuMTI0MyAyNC42NjczIDI2LjAwNDFMMjUuMjUzMSAyNS4yMzhDMjUuNDAzNCAyNS4wNTc4IDI1LjU4MzYgMjQuOTY3NyAyNS43OTM5IDI0Ljk2NzdDMjUuOTQ0MSAyNC45Njc3IDI2LjA3OTMgMjUuMDEyNyAyNi4xOTk0IDI1LjEwMjhMMjcuMjM1OSAyNS44MjM4QzI3Ljg2NjcgMjUuMzEzMSAyOC41NTc3IDI0Ljk1MjYgMjkuMzA4NyAyNC43NDI0TDI5LjM5ODggMjMuNDM1NkMyOS40Mjg5IDIzLjI1NTMgMjkuNTA0IDIzLjEwNTEgMjkuNjI0MiAyMi45ODQ5QzI5Ljc3NDQgMjIuODM0NyAyOS45Mzk2IDIyLjc1OTYgMzAuMTE5OCAyMi43NTk2SDMxLjA2NjFDMzEuMjc2NCAyMi43NTk2IDMxLjQ0MTcgMjIuODM0NyAzMS41NjE4IDIyLjk4NDlDMzEuNzEyIDIzLjEwNTEgMzEuNzg3MSAyMy4yNTUzIDMxLjc4NzEgMjMuNDM1NkwzMS44NzczIDI0LjY5NzNDMzIuNjI4MyAyNC44Nzc1IDMzLjM0OTMgMjUuMjA4IDM0LjA0MDIgMjUuNjg4N0wzNS4wNzY3IDI0Ljk2NzdDMzUuMjI2OSAyNC44Nzc1IDM1LjM2MiAyNC44MzI1IDM1LjQ4MjIgMjQuODMyNUMzNS43MjI1IDI0LjgzMjUgMzUuOTAyOCAyNC45MjI2IDM2LjAyMyAyNS4xMDI4TDM2LjYwODggMjUuODY4OUMzNi43Mjg5IDI1Ljk4OTEgMzYuNzg5IDI2LjE1NDMgMzYuNzg5IDI2LjM2NDZDMzYuNzg5IDI2LjU0NDggMzYuNzEzOSAyNi43MTAxIDM2LjU2MzcgMjYuODYwM0wzNS42NjI1IDI3Ljc2MTVDMzUuODEyNyAyOC4wOTIgMzUuOTE3OCAyOC40Mzc0IDM1Ljk3NzkgMjguNzk3OUMzNi4wNjggMjkuMTU4NCAzNi4xMTMxIDI5LjU0OSAzNi4xMTMxIDI5Ljk2OTVWMzAuMDE0NkwzNy40MTk5IDMwLjQyMDJaTTI4LjQ5NzYgMzIuMTc3NkMyNy44OTY4IDMxLjU3NjcgMjcuNTk2NCAzMC44NDA3IDI3LjU5NjQgMjkuOTY5NUMyNy41OTY0IDI5LjA5ODMgMjcuODk2OCAyOC4zNjIzIDI4LjQ5NzYgMjcuNzYxNUMyOS4wOTg0IDI3LjE2MDcgMjkuODM0NCAyNi44NjAzIDMwLjcwNTYgMjYuODYwM0MzMS41NzY4IDI2Ljg2MDMgMzIuMzEyOSAyNy4xNjA3IDMyLjkxMzcgMjcuNzYxNUMzMy41MTQ1IDI4LjM2MjMgMzMuODE0OSAyOS4wOTgzIDMzLjgxNDkgMjkuOTY5NUMzMy44MTQ5IDMwLjg0MDcgMzMuNTE0NSAzMS41NzY3IDMyLjkxMzcgMzIuMTc3NkMzMi4zMTI5IDMyLjc3ODQgMzEuNTc2OCAzMy4wNzg4IDMwLjcwNTYgMzMuMDc4OEMyOS44MzQ0IDMzLjA3ODggMjkuMDk4NCAzMi43Nzg0IDI4LjQ5NzYgMzIuMTc3NloiIGNsaXAtcnVsZT0iZXZlbm9kZCIgZmlsbC1ydWxlPSJldmVub2RkIi8+JiN4YTs8L2c+JiN4YTs8L2c+JiN4YTs8ZGVmcz4mI3hhOzxsaW5lYXJHcmFkaWVudCBncmFkaWVudFVuaXRzPSJ1c2VyU3BhY2VPblVzZSIgeTI9IjQ0LjI3OTIiIHgyPSI0MS41NjQ1IiB5MT0iNi44NDc3NSIgeDE9IjQuODUyODciIGlkPSJwYWludDBfbGluZWFyXzI2MjJfMzk1NyI+JiN4YTs8c3RvcCBzdG9wLWNvbG9yPSJ3aGl0ZSIvPiYjeGE7PHN0b3Agc3RvcC1jb2xvcj0iI0VBRUNFRSIgb2Zmc2V0PSIxIi8+JiN4YTs8L2xpbmVhckdyYWRpZW50PiYjeGE7PHJhZGlhbEdyYWRpZW50IGdyYWRpZW50VHJhbnNmb3JtPSJ0cmFuc2xhdGUoMTUuMTczOSAxNC4zMjM4KSByb3RhdGUoNDUuMTgzKSBzY2FsZSgyNi40MzgzIDQ5Ljk1NTIpIiBncmFkaWVudFVuaXRzPSJ1c2VyU3BhY2VPblVzZSIgcj0iMSIgY3k9IjAiIGN4PSIwIiBpZD0icGFpbnQxX3JhZGlhbF8yNjIyXzM5NTciPiYjeGE7PHN0b3Agc3RvcC1jb2xvcj0iIzAxOTVGRiIvPiYjeGE7PHN0b3Agc3RvcC1jb2xvcj0iIzExNDdFOSIgb2Zmc2V0PSIxIi8+JiN4YTs8L3JhZGlhbEdyYWRpZW50PiYjeGE7PHJhZGlhbEdyYWRpZW50IGdyYWRpZW50VHJhbnNmb3JtPSJ0cmFuc2xhdGUoMjUuNzI4NiAyNC45Mjg5KSByb3RhdGUoNDUpIHNjYWxlKDE0LjIwNSAxMi45NDQ1KSIgZ3JhZGllbnRVbml0cz0idXNlclNwYWNlT25Vc2UiIHI9IjEiIGN5PSIwIiBjeD0iMCIgaWQ9InBhaW50Ml9yYWRpYWxfMjYyMl8zOTU3Ij4mI3hhOzxzdG9wIHN0b3AtY29sb3I9IiMxMzQ4RkYiLz4mI3hhOzxzdG9wIHN0b3AtY29sb3I9IiMwNjIzOEQiIG9mZnNldD0iMSIvPiYjeGE7PC9yYWRpYWxHcmFkaWVudD4mI3hhOzxjbGlwUGF0aCBpZD0iY2xpcDBfMjYyMl8zOTU3Ij4mI3hhOzxyZWN0IHRyYW5zZm9ybT0idHJhbnNsYXRlKDAuNSAwLjAzNDkxMjEpIiBmaWxsPSJ3aGl0ZSIgaGVpZ2h0PSI0OCIgd2lkdGg9IjQ4Ii8+JiN4YTs8L2NsaXBQYXRoPiYjeGE7PGNsaXBQYXRoIGlkPSJjbGlwMV8yNjIyXzM5NTciPiYjeGE7PHJlY3QgdHJhbnNmb3JtPSJ0cmFuc2xhdGUoMTEgMTAuMjg0OSkiIGZpbGw9IndoaXRlIiBoZWlnaHQ9IjI3IiB3aWR0aD0iMjciLz4mI3hhOzwvY2xpcFBhdGg+JiN4YTs8L2RlZnM+JiN4YTs8L3N2Zz4=;points=[[0,0,0,0,0],[0,0.25,0,0,0],[0,0.5,0,0,0],[0,0.75,0,0,0],[0.25,0,0,0,0],[0.5,0,0,0,0],[0.75,0,0,0,0],[1,0,0,0,0],[1,0.25,0,0,0],[1,0.5,0,0,0],[1,0.75,0,0,0]];" parent="q-DKs4rhJ-QWINOPGp90-45" vertex="1">
          <mxGeometry x="30.5" width="49" height="49" as="geometry" />
        </mxCell>
        <mxCell id="q-DKs4rhJ-QWINOPGp90-47" value="&lt;font color=&quot;#1d2d3e&quot; size=&quot;1&quot; face=&quot;arial&quot; style=&quot;&quot;&gt;&lt;b style=&quot;font-size: 14px;&quot;&gt;Object Store&lt;br&gt;&lt;/b&gt;&lt;/font&gt;" style="text;html=1;align=center;verticalAlign=top;resizable=1;points=[[0,0.5,0,0,0],[0.21,1,0,0,0],[0.5,1,0,0,0],[0.85,1,0,0,0],[1,0.5,0,0,0]];autosize=0;strokeColor=none;fillColor=none;fontSize=12;fontColor=default;fontFamily=Helvetica;fixedWidth=1;imageWidth=24;whiteSpace=wrap;labelBackgroundColor=none;" parent="q-DKs4rhJ-QWINOPGp90-45" vertex="1">
          <mxGeometry y="49" width="110" height="46" as="geometry" />
        </mxCell>
        <mxCell id="q-DKs4rhJ-QWINOPGp90-48" value="" style="group" parent="1" vertex="1" connectable="0">
          <mxGeometry x="-570" y="-271" width="110" height="95" as="geometry" />
        </mxCell>
        <mxCell id="q-DKs4rhJ-QWINOPGp90-49" value="&lt;font color=&quot;#1d2d3e&quot; size=&quot;1&quot; face=&quot;arial&quot; style=&quot;&quot;&gt;&lt;b style=&quot;font-size: 14px;&quot;&gt;Document Information Extraction&lt;br&gt;&lt;/b&gt;&lt;/font&gt;" style="text;html=1;align=center;verticalAlign=top;resizable=1;points=[[0,0.5,0,0,0],[0.21,1,0,0,0],[0.5,1,0,0,0],[0.85,1,0,0,0],[1,0.5,0,0,0]];autosize=0;strokeColor=none;fillColor=none;fontSize=12;fontColor=default;fontFamily=Helvetica;fixedWidth=1;imageWidth=24;whiteSpace=wrap;labelBackgroundColor=none;" parent="q-DKs4rhJ-QWINOPGp90-48" vertex="1">
          <mxGeometry y="49" width="110" height="46" as="geometry" />
        </mxCell>
        <mxCell id="q-DKs4rhJ-QWINOPGp90-50" value="" style="shape=image;verticalLabelPosition=bottom;verticalAlign=top;imageAspect=0;aspect=fixed;image=data:image/svg+xml,PHN2ZyB4bWxucz0iaHR0cDovL3d3dy53My5vcmcvMjAwMC9zdmciIGZpbGw9Im5vbmUiIHZpZXdCb3g9IjAgMCA0OSA0OSIgaGVpZ2h0PSI0OSIgd2lkdGg9IjQ5Ij4mI3hhOzxnIGNsaXAtcGF0aD0idXJsKCNjbGlwMF8yNjIyXzM2ODcpIj4mI3hhOzxjaXJjbGUgc3Ryb2tlLXdpZHRoPSIwLjg1NzE0MyIgc3Ryb2tlPSIjRDVEQUREIiBmaWxsPSJ1cmwoI3BhaW50MF9saW5lYXJfMjYyMl8zNjg3KSIgcj0iMjMuNTcxNCIgY3k9IjI0LjAzNDkiIGN4PSIyNC41Ii8+JiN4YTs8ZyBjbGlwLXBhdGg9InVybCgjY2xpcDFfMjYyMl8zNjg3KSI+JiN4YTs8cGF0aCBmaWxsPSJ1cmwoI3BhaW50MV9yYWRpYWxfMjYyMl8zNjg3KSIgZD0iTTI1Ljk3NjYgMzQuMjg4OEwyNy45Mjc3IDMyLjAyMTJDMjguMjA5IDMxLjcwNDggMjguNTYwNSAzMS41NDY2IDI4Ljk4MjQgMzEuNTQ2NkMyOS40MDQzIDMxLjU0NjYgMjkuNzM4MyAzMS43MDQ4IDI5Ljk4NDQgMzIuMDIxMkMzMC4zMDA4IDMyLjMzNzYgMzAuNDU5IDMyLjY4OTIgMzAuNDU5IDMzLjA3NTlDMzAuNDU5IDMzLjQ5NzggMzAuMzAwOCAzMy44MzE4IDI5Ljk4NDQgMzQuMDc3OUwyNS41NTQ3IDM4LjU2MDNDMjUuMjM4MyAzOC44NzY3IDI0Ljg4NjcgMzkuMDM0OSAyNC41IDM5LjAzNDlDMjQuMTEzMyAzOS4wMzQ5IDIzLjc2MTcgMzguODc2NyAyMy40NDUzIDM4LjU2MDNMMTguOTYyOSAzNC4wNzc5QzE4LjY4MTYgMzMuNzk2NiAxOC41NDEgMzMuNDYyNiAxOC41NDEgMzMuMDc1OUMxOC41NDEgMzIuNzI0MyAxOC42ODE2IDMyLjM3MjggMTguOTYyOSAzMi4wMjEyQzE5LjI3OTMgMzEuNzA0OCAxOS42MzA5IDMxLjU0NjYgMjAuMDE3NiAzMS41NDY2QzIwLjQwNDMgMzEuNTQ2NiAyMC43NTU5IDMxLjcwNDggMjEuMDcyMyAzMi4wMjEyTDIyLjkxOCAzNC4yODg4TDIyLjkxOCAzMi4xMjY3QzIyLjkxOCAzMS4zODg0IDIyLjc0MjIgMzAuNjg1MyAyMi4zOTA2IDMwLjAxNzNDMjIuMDc0MiAyOS4zNDkzIDIxLjU5OTYgMjguODA0NCAyMC45NjY4IDI4LjM4MjVMMTcuNDMzNiAyNi4wMDk1QzE2LjQxNDEgMjUuMzA2NCAxNS42MDU1IDI0LjM5MjMgMTUuMDA3OCAyMy4yNjczQzE0LjQ0NTMgMjIuMTc3NSAxNC4xNjQxIDIwLjk5OTcgMTQuMTY0MSAxOS43MzQxTDE0LjE2NDEgMTYuOTM5MkMxNC4xNjQxIDE1Ljk1NDggMTQuNjU2MyAxNS40NjI2IDE1LjY0MDYgMTUuNDYyNkMxNi42MjUgMTUuNDYyNiAxNy4xMTcyIDE1Ljk1NDggMTcuMTE3MiAxNi45MzkyTDE3LjExNzIgMTkuNzM0MUMxNy4xMTcyIDIxLjM1MTMgMTcuNzY3NiAyMi41OTkzIDE5LjA2ODQgMjMuNDc4MkwyMi44NjUyIDI2LjA2MjJDMjMuMjE2OCAyNi4zNDM1IDIzLjUzMzIgMjYuNjA3MiAyMy44MTQ1IDI2Ljg1MzJDMjQuMTMwOSAyNy4xMzQ1IDI0LjM3NyAyNy40NTA5IDI0LjU1MjcgMjcuODAyNUMyNS4wMDk4IDI3LjA2NDIgMjUuNjA3NCAyNi40NjY1IDI2LjM0NTcgMjYuMDA5NUwyOS45MzE2IDIzLjYzNjVDMzAuNTI5MyAyMy4yMTQ2IDMxLjAwMzkgMjIuNjY5NyAzMS4zNTU1IDIyLjAwMTdDMzEuNzA3IDIxLjM2ODkgMzEuODgyOCAyMC42NjU3IDMxLjg4MjggMTkuODkyM0wzMS44ODI4IDE3LjA5NzRDMzEuODgyOCAxNi42NDA0IDMyLjAwNTkgMTYuMjcxMiAzMi4yNTIgMTUuOTlDMzIuNTMzMiAxNS43MDg3IDMyLjkwMjMgMTUuNTY4MSAzMy4zNTk0IDE1LjU2ODFDMzMuODE2NCAxNS41NjgxIDM0LjE2OCAxNS43MDg3IDM0LjQxNDEgMTUuOTlDMzQuNjk1MyAxNi4yNzEyIDM0LjgzNTkgMTYuNjQwNCAzNC44MzU5IDE3LjA5NzRMMzQuODM1OSAxOS44OTIzQzM0LjgzNTkgMjEuMTU3OSAzNC41NTQ3IDIyLjMzNTcgMzMuOTkyMiAyMy40MjU1QzMzLjQyOTcgMjQuNTUwNSAzMi42MjExIDI1LjQ2NDYgMzEuNTY2NCAyNi4xNjc3TDI3Ljk4MDUgMjguNTQwN0MyNy4zODI4IDI4Ljk2MjYgMjYuOTA4MiAyOS40OSAyNi41NTY2IDMwLjEyMjhDMjYuMjQwMiAzMC43OTA3IDI2LjA0NjkgMzEuNTExNSAyNS45NzY2IDMyLjI4NDlMMjUuOTc2NiAzNC4yODg4WiIvPiYjeGE7PHBhdGggZmlsbD0idXJsKCNwYWludDJfcmFkaWFsXzI2MjJfMzY4NykiIGQ9Ik0yNy4zNDAzIDEzLjU0NTFDMjcuMzQwMyAxMy45MzU3IDI3LjQ2NzIgMTQuMjg0OSAyNy43MjE1IDE0LjU3NTVMMjcuNzM2OSAxNC41OTE5QzI4LjAwNiAxNC44NjEgMjguMzUwNiAxNC45ODg1IDI4Ljc0MTEgMTQuOTg4NUMyOS4xMzE3IDE0Ljk4ODUgMjkuNDc2MyAxNC44NjEgMjkuNzQ1NCAxNC41OTE5QzMwLjAzMzUgMTQuMzAzOCAzMC4xODQ2IDEzLjk0OTQgMzAuMTg0NiAxMy41NDUxQzMwLjE4NDYgMTMuMTQ3MyAzMC4wMzc2IDEyLjgwMzcgMjkuNzQ1OCAxMi41NDA1QzI5LjQ4MjYgMTIuMjQ4NyAyOS4xMzkgMTIuMTAxNyAyOC43NDExIDEyLjEwMTdDMjguMzM5NSAxMi4xMDE3IDI3Ljk5MzEgMTIuMjUxNSAyNy43Mjg5IDEyLjU0ODlDMjcuNDY1MyAxMi44MTY4IDI3LjM0MDMgMTMuMTU4NSAyNy4zNDAzIDEzLjU0NTFaTTE5LjE5OTEgMTUuMDcwM0MxOC45NDQ4IDE0Ljc3OTcgMTguODE3OSAxNC40MzA1IDE4LjgxNzkgMTQuMDM5OUMxOC44MTc5IDEzLjY0OTQgMTguOTQ1NCAxMy4zMDQ4IDE5LjIxNDUgMTMuMDM1N0MxOS40ODM2IDEyLjc2NjYgMTkuODI4MiAxMi42MzkxIDIwLjIxODcgMTIuNjM5MUMyMC42MDU0IDEyLjYzOTEgMjAuOTQ3MSAxMi43NjQgMjEuMjE1IDEzLjAyNzdDMjEuNTEyNCAxMy4yOTE5IDIxLjY2MjEgMTMuNjM4MyAyMS42NjIxIDE0LjAzOTlDMjEuNjYyMSAxNC40NDQyIDIxLjUxMTEgMTQuNzk4NiAyMS4yMjMgMTUuMDg2N0MyMC45NTM5IDE1LjM1NTggMjAuNjA5MyAxNS40ODMzIDIwLjIxODcgMTUuNDgzM0MxOS44MjgyIDE1LjQ4MzMgMTkuNDgzNiAxNS4zNTU4IDE5LjIxNDUgMTUuMDg2N0wxOS4xOTkxIDE1LjA3MDNaTTIzLjQ2OTIgMjQuMjQ5OEMyMy4yMDY0IDIzLjk4NyAyMy4xMDQ1IDIzLjYyMDEgMjMuMTA0NSAyMy4yMTM2VjIxLjc1OTdDMjMuMTA0NSAyMS4zNzMxIDIzLjIyOTUgMjEuMDMxNCAyMy40OTMyIDIwLjc2MzVDMjMuNzU3NCAyMC40NjYxIDI0LjEwMzggMjAuMzE2MyAyNC41MDU0IDIwLjMxNjNDMjQuOTI1MiAyMC4zMTYzIDI1LjI4OTYgMjAuNDU5MiAyNS41NjAxIDIwLjc2MzRDMjUuODIzOCAyMS4wMzE0IDI1Ljk0ODggMjEuMzczMSAyNS45NDg4IDIxLjc1OTdWMjMuMjEzNkMyNS45NDg4IDIzLjYyMzYgMjUuODQxNSAyMy45OTIyIDI1LjU2ODggMjQuMjU0NEMyNS4yOTg1IDI0LjUxNDQgMjQuOTIyOCAyNC42MTQ1IDI0LjUwNTQgMjQuNjE0NUMyNC4wOTg5IDI0LjYxNDUgMjMuNzMyMSAyNC41MTI3IDIzLjQ2OTIgMjQuMjQ5OFpNMjcuMzQwNSAyMC4yNDQyQzI3LjM0MDUgMjAuNjY0OSAyNy40NDU5IDIxLjA0MjQgMjcuNzE1OSAyMS4zMTIzQzI3Ljk4NTggMjEuNTgyMyAyOC4zNjMzIDIxLjY4NzcgMjguNzgzOSAyMS42ODc3QzI5LjE5MzkgMjEuNjg3NyAyOS41NjI1IDIxLjU4MDQgMjkuODI0NyAyMS4zMDc2QzMwLjA4NDcgMjEuMDM3MyAzMC4xODQ4IDIwLjY2MTcgMzAuMTg0OCAyMC4yNDQyVjE3LjAxMTZDMzAuMTg0OCAxNi41OTQyIDMwLjA4NDcgMTYuMjE4NSAyOS44MjQ3IDE1Ljk0ODJDMjkuNTYyNSAxNS42NzU1IDI5LjE5MzkgMTUuNTY4MiAyOC43ODM5IDE1LjU2ODJDMjguMzYzMyAxNS41NjgyIDI3Ljk4NTggMTUuNjczNiAyNy43MTU5IDE1Ljk0MzVDMjcuNDQ1OSAxNi4yMTM1IDI3LjM0MDUgMTYuNTkwOSAyNy4zNDA1IDE3LjAxMTZWMjAuMjQ0MlpNMTkuMTc4IDIxLjExODdDMTguOTE4MSAyMC44NDgzIDE4LjgxNzkgMjAuNDcyNyAxOC44MTc5IDIwLjA1NTNWMTcuODg2QzE4LjgxNzkgMTcuNDc5NSAxOC45MTk4IDE3LjExMjcgMTkuMTgyNiAxNi44NDk4QzE5LjQ0NTQgMTYuNTg3IDE5LjgxMjMgMTYuNDg1MSAyMC4yMTg4IDE2LjQ4NTFDMjAuNjA1NCAxNi40ODUxIDIwLjk0NzEgMTYuNjEwMSAyMS4yMTUgMTYuODczOEMyMS41MTI0IDE3LjEzOCAyMS42NjIyIDE3LjQ4NDQgMjEuNjYyMiAxNy44ODZWMjAuMDU1M0MyMS42NjIyIDIwLjQ3NTEgMjEuNTE5MyAyMC44Mzk1IDIxLjIxNTEgMjEuMTFDMjAuOTQ3MSAyMS4zNzM3IDIwLjYwNTUgMjEuNDk4NyAyMC4yMTg4IDIxLjQ5ODdDMTkuODA4OSAyMS40OTg3IDE5LjQ0MDIgMjEuMzkxNCAxOS4xNzggMjEuMTE4N1pNMjUuNTEwMSAxNi40MTY1QzI1LjI0NjkgMTYuMTI0NyAyNC45MDMyIDE1Ljk3NzggMjQuNTA1NCAxNS45Nzc4QzI0LjEwMzggMTUuOTc3OCAyMy43NTc0IDE2LjEyNzUgMjMuNDkzMiAxNi40MjQ5QzIzLjIyOTUgMTYuNjkyOCAyMy4xMDQ1IDE3LjAzNDUgMjMuMTA0NSAxNy40MjEyQzIzLjEwNDUgMTcuODExNyAyMy4yMzIgMTguMTU2NCAyMy41MDExIDE4LjQyNTVDMjMuNzcwMiAxOC42OTQ2IDI0LjExNDkgMTguODIyMSAyNC41MDU0IDE4LjgyMjFDMjQuODkyMSAxOC44MjIxIDI1LjIzMzggMTguNjk3MSAyNS41MDE3IDE4LjQzMzRDMjUuNzk5MSAxOC4xNjkyIDI1Ljk0ODggMTcuODIyOCAyNS45NDg4IDE3LjQyMTJDMjUuOTQ4OCAxNy4wMjM0IDI1LjgwMTkgMTYuNjc5NyAyNS41MTAxIDE2LjQxNjVaIiBjbGlwLXJ1bGU9ImV2ZW5vZGQiIGZpbGwtcnVsZT0iZXZlbm9kZCIvPiYjeGE7PC9nPiYjeGE7PC9nPiYjeGE7PGRlZnM+JiN4YTs8bGluZWFyR3JhZGllbnQgZ3JhZGllbnRVbml0cz0idXNlclNwYWNlT25Vc2UiIHkyPSI0NC4yNzkyIiB4Mj0iNDEuNTY0NSIgeTE9IjYuODQ3NzUiIHgxPSI0Ljg1Mjg3IiBpZD0icGFpbnQwX2xpbmVhcl8yNjIyXzM2ODciPiYjeGE7PHN0b3Agc3RvcC1jb2xvcj0id2hpdGUiLz4mI3hhOzxzdG9wIHN0b3AtY29sb3I9IiNFQUVDRUUiIG9mZnNldD0iMSIvPiYjeGE7PC9saW5lYXJHcmFkaWVudD4mI3hhOzxyYWRpYWxHcmFkaWVudCBncmFkaWVudFRyYW5zZm9ybT0idHJhbnNsYXRlKDMxLjgwMDcgMTkuMTE4MSkgcm90YXRlKDEzMS41NjUpIHNjYWxlKDIxLjgxMjQgNDAuOTE5NSkiIGdyYWRpZW50VW5pdHM9InVzZXJTcGFjZU9uVXNlIiByPSIxIiBjeT0iMCIgY3g9IjAiIGlkPSJwYWludDFfcmFkaWFsXzI2MjJfMzY4NyI+JiN4YTs8c3RvcCBzdG9wLWNvbG9yPSIjMDE5NUZGIi8+JiN4YTs8c3RvcCBzdG9wLWNvbG9yPSIjMTE0N0U5IiBvZmZzZXQ9IjEiLz4mI3hhOzwvcmFkaWFsR3JhZGllbnQ+JiN4YTs8cmFkaWFsR3JhZGllbnQgZ3JhZGllbnRUcmFuc2Zvcm09InRyYW5zbGF0ZSgyMC41NzggMTMuOTg0MSkgcm90YXRlKDQ3Ljc0NzEpIHNjYWxlKDExLjc3NTUgMTAuNjgxMykiIGdyYWRpZW50VW5pdHM9InVzZXJTcGFjZU9uVXNlIiByPSIxIiBjeT0iMCIgY3g9IjAiIGlkPSJwYWludDJfcmFkaWFsXzI2MjJfMzY4NyI+JiN4YTs8c3RvcCBzdG9wLWNvbG9yPSIjMTM0OEZGIi8+JiN4YTs8c3RvcCBzdG9wLWNvbG9yPSIjMDYyMzhEIiBvZmZzZXQ9IjEiLz4mI3hhOzwvcmFkaWFsR3JhZGllbnQ+JiN4YTs8Y2xpcFBhdGggaWQ9ImNsaXAwXzI2MjJfMzY4NyI+JiN4YTs8cmVjdCB0cmFuc2Zvcm09InRyYW5zbGF0ZSgwLjUgMC4wMzQ5MTIxKSIgZmlsbD0id2hpdGUiIGhlaWdodD0iNDgiIHdpZHRoPSI0OCIvPiYjeGE7PC9jbGlwUGF0aD4mI3hhOzxjbGlwUGF0aCBpZD0iY2xpcDFfMjYyMl8zNjg3Ij4mI3hhOzxyZWN0IHRyYW5zZm9ybT0idHJhbnNsYXRlKDExIDEyLjAzNDkpIiBmaWxsPSJ3aGl0ZSIgaGVpZ2h0PSIyNyIgd2lkdGg9IjI3Ii8+JiN4YTs8L2NsaXBQYXRoPiYjeGE7PC9kZWZzPiYjeGE7PC9zdmc+;points=[[0,0,0,0,0],[0,0.25,0,0,0],[0,0.5,0,0,0],[0,0.75,0,0,0],[0.25,0,0,0,0],[0.5,0,0,0,0],[0.75,0,0,0,0],[1,0,0,0,0],[1,0.25,0,0,0],[1,0.5,0,0,0],[1,0.75,0,0,0]];" parent="q-DKs4rhJ-QWINOPGp90-48" vertex="1">
          <mxGeometry x="30.5" width="49" height="49" as="geometry" />
        </mxCell>
        <mxCell id="q-DKs4rhJ-QWINOPGp90-82" value="&lt;font face=&quot;Helvetica&quot; size=&quot;1&quot;&gt;&lt;b style=&quot;font-size: 14px;&quot;&gt;Supplier&lt;/b&gt;&lt;/font&gt;" style="text;html=1;align=center;verticalAlign=middle;resizable=0;points=[];autosize=1;strokeColor=none;fillColor=none;fontSize=12;fontColor=#1d2d3e;fontFamily=Helvetica;" parent="1" vertex="1">
          <mxGeometry x="-990" y="-794" width="80" height="30" as="geometry" />
        </mxCell>
        <mxCell id="q-DKs4rhJ-QWINOPGp90-83" value="&lt;font face=&quot;Helvetica&quot; size=&quot;1&quot;&gt;&lt;span style=&quot;font-size: 14px;&quot;&gt;&lt;b style=&quot;&quot;&gt;Internal Accounting and External Validation&amp;nbsp;&lt;/b&gt;&lt;/span&gt;&lt;/font&gt;" style="text;html=1;align=center;verticalAlign=middle;resizable=0;points=[];autosize=1;strokeColor=none;fillColor=none;fontSize=12;fontColor=#1d2d3e;fontFamily=Helvetica;" parent="1" vertex="1">
          <mxGeometry x="-512.75" y="-794.0000000000001" width="320" height="30" as="geometry" />
        </mxCell>
        <mxCell id="q-DKs4rhJ-QWINOPGp90-103" style="edgeStyle=orthogonalEdgeStyle;rounded=0;orthogonalLoop=1;jettySize=auto;html=1;exitX=0.5;exitY=0;exitDx=0;exitDy=0;endArrow=block;endFill=1;startArrow=block;startFill=1;dashed=1;" parent="1" source="q-DKs4rhJ-QWINOPGp90-91" target="q-DKs4rhJ-QWINOPGp90-102" edge="1">
          <mxGeometry relative="1" as="geometry" />
        </mxCell>
        <mxCell id="q-DKs4rhJ-QWINOPGp90-91" value="" style="rounded=1;whiteSpace=wrap;html=1;strokeColor=#d6b656;fillColor=#fff2cc;arcSize=24;absoluteArcSize=1;imageWidth=64;imageHeight=64;strokeWidth=1.5;" parent="1" vertex="1">
          <mxGeometry x="-860" y="-600" width="100" height="110" as="geometry" />
        </mxCell>
        <mxCell id="q-DKs4rhJ-QWINOPGp90-92" value="" style="shape=image;verticalLabelPosition=bottom;verticalAlign=top;imageAspect=0;aspect=fixed;image=data:image/svg+xml,PHN2ZyB4bWxucz0iaHR0cDovL3d3dy53My5vcmcvMjAwMC9zdmciIGZpbGw9Im5vbmUiIHZpZXdCb3g9IjAgMCAxNyAxNyIgaGVpZ2h0PSIxNyIgd2lkdGg9IjE3Ij4mI3hhOzxwYXRoIGZpbGw9InVybCgjcGFpbnQwX2xpbmVhcl8yXzI4Nzk2KSIgZD0iTTEwLjc2MDcgMTMuNzE4OEMxMS4zNDQxIDEzLjcxODggMTEuNjM1NyAxMy40MjcxIDExLjYzNTcgMTIuODQzOEMxMS42MzU3IDEyLjU3MjkgMTEuNTUyNCAxMi4zNTQyIDExLjM4NTcgMTIuMTg3NUMxMS4yMzk5IDEyLjAyMDggMTEuMDMxNiAxMS45Mzc1IDEwLjc2MDcgMTEuOTM3NUg1LjQxNjk5QzUuMTQ2MTYgMTEuOTM3NSA0LjkyNzQxIDEyLjAyMDggNC43NjA3NCAxMi4xODc1QzQuNjE0OTEgMTIuMzU0MiA0LjU0MTk5IDEyLjU3MjkgNC41NDE5OSAxMi44NDM4QzQuNTQxOTkgMTMuNDI3MSA0LjgzMzY2IDEzLjcxODggNS40MTY5OSAxMy43MTg4SDEwLjc2MDdaTTEwLjc2MDcgMTEuMDYyNUMxMS4zNDQxIDExLjA2MjUgMTEuNjM1NyAxMC43NzA4IDExLjYzNTcgMTAuMTg3NUMxMS42MzU3IDkuOTE2NjcgMTEuNTUyNCA5LjY5NzkyIDExLjM4NTcgOS41MzEyNUMxMS4yMzk5IDkuMzY0NTggMTEuMDMxNiA5LjI4MTI1IDEwLjc2MDcgOS4yODEyNUg1LjQxNjk5QzUuMTQ2MTYgOS4yODEyNSA0LjkyNzQxIDkuMzY0NTggNC43NjA3NCA5LjUzMTI1QzQuNjE0OTEgOS42OTc5MiA0LjU0MTk5IDkuOTE2NjcgNC41NDE5OSAxMC4xODc1QzQuNTQxOTkgMTAuNzcwOCA0LjgzMzY2IDExLjA2MjUgNS40MTY5OSAxMS4wNjI1SDEwLjc2MDdaTTEwLjc2MDcgOC40MDYyNUMxMS4wMzE2IDguNDA2MjUgMTEuMjM5OSA4LjMyMjkyIDExLjM4NTcgOC4xNTYyNUMxMS41NTI0IDcuOTg5NTggMTEuNjM1NyA3Ljc3MDgzIDExLjYzNTcgNy41QzExLjYzNTcgNi45MTY2NyAxMS4zNDQxIDYuNjI1IDEwLjc2MDcgNi42MjVINS40MTY5OUM0LjgzMzY2IDYuNjI1IDQuNTQxOTkgNi45MTY2NyA0LjU0MTk5IDcuNUM0LjU0MTk5IDcuNzcwODMgNC42MTQ5MSA3Ljk4OTU4IDQuNzYwNzQgOC4xNTYyNUM0LjkyNzQxIDguMzIyOTIgNS4xNDYxNiA4LjQwNjI1IDUuNDE2OTkgOC40MDYyNUgxMC43NjA3Wk0xMC43NjA3IDQuODQzNzVDMTEuMzQ0MSA0Ljg0Mzc1IDExLjYzNTcgNC41NTIwOCAxMS42MzU3IDMuOTY4NzVDMTEuNjM1NyAzLjY5NzkyIDExLjU1MjQgMy40NzkxNyAxMS4zODU3IDMuMzEyNUMxMS4yMzk5IDMuMTQ1ODMgMTEuMDMxNiAzLjA2MjUgMTAuNzYwNyAzLjA2MjVDMTAuNDg5OSAzLjA2MjUgMTAuMjcxMiAzLjE0NTgzIDEwLjEwNDUgMy4zMTI1QzkuOTM3ODMgMy40NzkxNyA5Ljg1NDQ5IDMuNjk3OTIgOS44NTQ0OSAzLjk2ODc1QzkuODU0NDkgNC4yMzk1OCA5LjkzNzgzIDQuNDU4MzMgMTAuMTA0NSA0LjYyNUMxMC4yNzEyIDQuNzcwODMgMTAuNDg5OSA0Ljg0Mzc1IDEwLjc2MDcgNC44NDM3NVpNMTEuNjM1NyAwLjQwNjI1QzEyLjM4NTcgMC40MDYyNSAxMy4wMTA3IDAuNjY2NjY3IDEzLjUxMDcgMS4xODc1QzE0LjAzMTYgMS42ODc1IDE0LjI5MiAyLjMxMjUgMTQuMjkyIDMuMDYyNVYxMy43MTg4QzE0LjI5MiAxNC40Njg4IDE0LjAzMTYgMTUuMDkzOCAxMy41MTA3IDE1LjU5MzhDMTMuMDEwNyAxNi4xMTQ2IDEyLjM4NTcgMTYuMzc1IDExLjYzNTcgMTYuMzc1SDQuNTQxOTlDMy43OTE5OSAxNi4zNzUgMy4xNTY1OCAxNi4xMTQ2IDIuNjM1NzQgMTUuNTkzOEMyLjEzNTc0IDE1LjA5MzggMS44ODU3NCAxNC40Njg4IDEuODg1NzQgMTMuNzE4OFYzLjA2MjVDMS44ODU3NCAyLjMxMjUgMi4xMzU3NCAxLjY4NzUgMi42MzU3NCAxLjE4NzVDMy4xNTY1OCAwLjY2NjY2NyAzLjc5MTk5IDAuNDA2MjUgNC41NDE5OSAwLjQwNjI1SDExLjYzNTdaTTEyLjUxMDcgMy4wNjI1QzEyLjUxMDcgMi40NzkxNyAxMi4yMTkxIDIuMTg3NSAxMS42MzU3IDIuMTg3NUg0LjU0MTk5QzQuMjcxMTYgMi4xODc1IDQuMDUyNDEgMi4yNzA4MyAzLjg4NTc0IDIuNDM3NUMzLjcxOTA4IDIuNTgzMzMgMy42MzU3NCAyLjc5MTY3IDMuNjM1NzQgMy4wNjI1VjEzLjcxODhDMy42MzU3NCAxMy45ODk2IDMuNzE5MDggMTQuMjA4MyAzLjg4NTc0IDE0LjM3NUM0LjA1MjQxIDE0LjUyMDggNC4yNzExNiAxNC41OTM4IDQuNTQxOTkgMTQuNTkzOEgxMS42MzU3QzEyLjIxOTEgMTQuNTkzOCAxMi41MTA3IDE0LjMwMjEgMTIuNTEwNyAxMy43MTg4VjMuMDYyNVoiLz4mI3hhOzxkZWZzPiYjeGE7PGxpbmVhckdyYWRpZW50IGdyYWRpZW50VW5pdHM9InVzZXJTcGFjZU9uVXNlIiB5Mj0iMTYuMzc1IiB4Mj0iOC4wODg4NyIgeTE9IjAuNDA2MjUiIHgxPSI4LjA4ODg3IiBpZD0icGFpbnQwX2xpbmVhcl8yXzI4Nzk2Ij4mI3hhOzxzdG9wIHN0b3AtY29sb3I9IiM1QjczOEIiLz4mI3hhOzxzdG9wIHN0b3AtY29sb3I9IiMyMjM1NDgiIG9mZnNldD0iMSIvPiYjeGE7PC9saW5lYXJHcmFkaWVudD4mI3hhOzwvZGVmcz4mI3hhOzwvc3ZnPg==" parent="1" vertex="1">
          <mxGeometry x="-834" y="-548" width="48" height="48" as="geometry" />
        </mxCell>
        <mxCell id="q-DKs4rhJ-QWINOPGp90-93" value="&lt;font face=&quot;Helvetica&quot; style=&quot;font-size: 14px;&quot;&gt;&lt;b style=&quot;&quot;&gt;SMTP&lt;br&gt;&lt;div style=&quot;&quot;&gt;&lt;b style=&quot;background-color: initial;&quot;&gt;Server&lt;/b&gt;&lt;/div&gt;&lt;/b&gt;&lt;/font&gt;" style="text;html=1;align=center;verticalAlign=middle;resizable=0;points=[];autosize=1;strokeColor=none;fillColor=none;fontSize=12;fontColor=#1d2d3e;fontFamily=Helvetica;" parent="1" vertex="1">
          <mxGeometry x="-845" y="-601" width="70" height="50" as="geometry" />
        </mxCell>
        <mxCell id="q-DKs4rhJ-QWINOPGp90-102" value="" style="shape=image;verticalLabelPosition=bottom;verticalAlign=top;imageAspect=0;aspect=fixed;image=data:image/svg+xml,PHN2ZyB4bWxucz0iaHR0cDovL3d3dy53My5vcmcvMjAwMC9zdmciIGZpbGw9Im5vbmUiIHZpZXdCb3g9IjAgMCAxNyAxNiIgaGVpZ2h0PSIxNiIgd2lkdGg9IjE3Ij4mI3hhOzxnIGNsaXAtcGF0aD0idXJsKCNjbGlwMF82OTNfMTIyNCkiPiYjeGE7PHBhdGggZmlsbD0idXJsKCNwYWludDBfbGluZWFyXzY5M18xMjI0KSIgZD0iTTEzLjc5MzggMkMxNC40ODEyIDIgMTUuMDU0MiAyLjIzOTU4IDE1LjUxMjUgMi43MTg3NUMxNS45NzA4IDMuMTc3MDggMTYuMiAzLjczOTU4IDE2LjIgNC40MDYyNVYxMS41OTM4QzE2LjIgMTIuMjgxMiAxNS45NzA4IDEyLjg1NDIgMTUuNTEyNSAxMy4zMTI1QzE1LjA1NDIgMTMuNzcwOCAxNC40ODEyIDE0IDEzLjc5MzggMTRIMi42MDYyNUMxLjkxODc1IDE0IDEuMzQ1ODMgMTMuNzcwOCAwLjg4NzQ5NyAxMy4zMTI1QzAuNDI5MTY0IDEyLjg1NDIgMC4xOTk5OTcgMTIuMjgxMiAwLjE5OTk5NyAxMS41OTM4VjQuNDA2MjVDMC4xOTk5OTcgMy43Mzk1OCAwLjQyOTE2NCAzLjE3NzA4IDAuODg3NDk3IDIuNzE4NzVDMS4zNDU4MyAyLjIzOTU4IDEuOTE4NzUgMiAyLjYwNjI1IDJIMTMuNzkzOFpNMi42Njg3NSAzLjYyNUMyLjQ2MDQyIDMuNjI1IDIuMzM1NDIgMy42NDU4MyAyLjI5Mzc1IDMuNjg3NUw3Ljc5Mzc1IDcuMTI1QzcuOTM5NTggNy4yMDgzMyA4LjA5NTgzIDcuMjUgOC4yNjI1IDcuMjVDOC40MjkxNyA3LjI1IDguNTY0NTggNy4yMDgzMyA4LjY2ODc1IDcuMTI1TDE0LjIgMy42ODc1QzE0LjE1ODMgMy42NDU4MyAxNC4wOTU4IDMuNjI1IDE0LjAxMjUgMy42MjVDMTMuOTI5MiAzLjYyNSAxMy44NTYyIDMuNjI1IDEzLjc5MzggMy42MjVIMi42Njg3NVpNMTMuNzkzOCAxMi40MDYyQzE0LjMzNTQgMTIuNDA2MiAxNC42MDYyIDEyLjEzNTQgMTQuNjA2MiAxMS41OTM4VjUuMzc1TDkuNDgxMjUgOC41NjI1QzkuMDg1NDIgOC44MTI1IDguNjU4MzMgOC45Mzc1IDguMiA4LjkzNzVDNy43NjI1IDguOTM3NSA3LjMzNTQyIDguODEyNSA2LjkxODc1IDguNTYyNUwxLjc5Mzc1IDUuMzc1VjExLjU5MzhDMS43OTM3NSAxMi4xMzU0IDIuMDY0NTggMTIuNDA2MiAyLjYwNjI1IDEyLjQwNjJIMTMuNzkzOFoiLz4mI3hhOzwvZz4mI3hhOzxkZWZzPiYjeGE7PGxpbmVhckdyYWRpZW50IGdyYWRpZW50VW5pdHM9InVzZXJTcGFjZU9uVXNlIiB5Mj0iMTIuMzM5OSIgeDI9IjE0LjA1MTYiIHkxPSIzLjEyODgyIiB4MT0iMi4yNjc4NSIgaWQ9InBhaW50MF9saW5lYXJfNjkzXzEyMjQiPiYjeGE7PHN0b3Agc3RvcC1jb2xvcj0iIzIzOTVGRiIvPiYjeGE7PHN0b3Agc3RvcC1jb2xvcj0iIzAwNTdEMiIgb2Zmc2V0PSIxIi8+JiN4YTs8L2xpbmVhckdyYWRpZW50PiYjeGE7PGNsaXBQYXRoIGlkPSJjbGlwMF82OTNfMTIyNCI+JiN4YTs8cmVjdCB0cmFuc2Zvcm09InRyYW5zbGF0ZSgwLjE5OTk5NykiIGZpbGw9IndoaXRlIiBoZWlnaHQ9IjE2IiB3aWR0aD0iMTYiLz4mI3hhOzwvY2xpcFBhdGg+JiN4YTs8L2RlZnM+JiN4YTs8L3N2Zz4=" parent="1" vertex="1">
          <mxGeometry x="-835.5" y="-764" width="51" height="48" as="geometry" />
        </mxCell>
        <mxCell id="q-DKs4rhJ-QWINOPGp90-106" value="&lt;font style=&quot;font-size: 14px;&quot;&gt;Finance&lt;br&gt;Module&lt;/font&gt;" style="rounded=1;whiteSpace=wrap;html=1;arcSize=24;absoluteArcSize=1;imageWidth=64;imageHeight=64;strokeWidth=1.5;fontStyle=1;strokeColor=#4094f5;align=center;" parent="1" vertex="1">
          <mxGeometry x="-1117" y="-550" width="160" height="400" as="geometry" />
        </mxCell>
        <mxCell id="q-DKs4rhJ-QWINOPGp90-110" style="rounded=0;orthogonalLoop=1;jettySize=auto;html=1;exitX=0;exitY=0.5;exitDx=0;exitDy=0;exitPerimeter=0;edgeStyle=orthogonalEdgeStyle;endArrow=block;endFill=1;" parent="1" target="q-DKs4rhJ-QWINOPGp90-50" edge="1">
          <mxGeometry relative="1" as="geometry">
            <mxPoint x="-460" y="-339" as="sourcePoint" />
          </mxGeometry>
        </mxCell>
        <mxCell id="q-DKs4rhJ-QWINOPGp90-113" style="rounded=0;orthogonalLoop=1;jettySize=auto;html=1;entryX=0.5;entryY=0;entryDx=0;entryDy=0;entryPerimeter=0;endArrow=block;endFill=1;" parent="1" target="q-DKs4rhJ-QWINOPGp90-46" edge="1">
          <mxGeometry relative="1" as="geometry">
            <mxPoint x="-355" y="-290" as="sourcePoint" />
            <Array as="points">
              <mxPoint x="-355" y="-300" />
            </Array>
          </mxGeometry>
        </mxCell>
        <mxCell id="q-DKs4rhJ-QWINOPGp90-114" style="rounded=0;orthogonalLoop=1;jettySize=auto;html=1;exitX=1;exitY=0.5;exitDx=0;exitDy=0;exitPerimeter=0;entryX=0.5;entryY=0;entryDx=0;entryDy=0;entryPerimeter=0;edgeStyle=orthogonalEdgeStyle;endArrow=block;endFill=1;" parent="1" target="q-DKs4rhJ-QWINOPGp90-43" edge="1">
          <mxGeometry relative="1" as="geometry">
            <mxPoint x="-190" y="-484" as="targetPoint" />
            <mxPoint x="-250" y="-339" as="sourcePoint" />
          </mxGeometry>
        </mxCell>
        <mxCell id="q-DKs4rhJ-QWINOPGp90-23" value="" style="rounded=1;whiteSpace=wrap;html=1;strokeColor=#0070F2;strokeWidth=1.5;arcSize=16;fillColor=#FFFFFF;perimeterSpacing=0;absoluteArcSize=1;" parent="1" vertex="1">
          <mxGeometry x="-428.5" y="-134" width="146.99999999999997" height="89" as="geometry" />
        </mxCell>
        <mxCell id="q-DKs4rhJ-QWINOPGp90-24" value="" style="shape=image;verticalLabelPosition=bottom;verticalAlign=top;imageAspect=0;aspect=fixed;image=data:image/svg+xml,PHN2ZyB4bWxucz0iaHR0cDovL3d3dy53My5vcmcvMjAwMC9zdmciIGZpbGw9Im5vbmUiIHZpZXdCb3g9IjAgMCA0OSA0OSIgaGVpZ2h0PSI0OSIgd2lkdGg9IjQ5Ij4mI3hhOzxjaXJjbGUgc3Ryb2tlLXdpZHRoPSIwLjg1NzE0MyIgc3Ryb2tlPSIjRDVEQUREIiBmaWxsPSJ1cmwoI3BhaW50MF9saW5lYXJfMjYyMl8yMDQ3NSkiIHI9IjIzLjU3MTQiIGN5PSIyNC4wMzQ5IiBjeD0iMjQuNSIvPiYjeGE7PHBhdGggZmlsbD0idXJsKCNwYWludDFfcmFkaWFsXzI2MjJfMjA0NzUpIiBkPSJNMjQuMzkzMSAxMi4yMzcxQzIwLjExMDcgMTIuMjM3MSAxNy4wNjgxIDE1LjcyMzEgMTYuNTYxMSAxOS4zNjI1QzE1LjE4MzYgMTkuNDQ0NCAxMy45NjcyIDE5Ljk2MjEgMTMuMDIyNSAyMC44MzE3QzExLjc0NDUgMjIuMDA4MSAxMS4wODQ0IDIzLjcxNTYgMTEuMDg0NCAyNS41MTYzQzExLjA4NDQgMjcuMTg5NyAxMS41OTIgMjguNzcxNSAxMi43MzE2IDI5Ljk0MDlDMTMuNTg2MSAzMC44MTc4IDE0LjcwNzcgMzEuMzcyNCAxNi4wMTcgMzEuNTk4NEMxNi4xMzc2IDMxLjM1MzUgMTYuMjczNSAzMS4xMTY4IDE2LjQyNTIgMzAuODg5MkwxNi40NDEgMzAuODY1NUwxNi40NTQ4IDMwLjg0NjFDMTYuNzA2OSAzMC40OTAxIDE2Ljk5NDggMzAuMTY2IDE3LjMxNjkgMjkuODc2MUMxNy4xODMxIDI5LjQzMTcgMTcuMTE4IDI4Ljk2NDUgMTcuMTE4IDI4LjQ4MzVDMTcuMTE4IDI3Ljg1NDkgMTcuMjM4NiAyNy4yNDEzIDE3LjQ4NDkgMjYuNjU5MkMxNy43MiAyNi4xMDMzIDE4LjA1MTMgMjUuNjAwMSAxOC40ODI0IDI1LjE2OTFDMTguOTE4IDI0LjczMzQgMTkuNDI1IDI0LjM5MTYgMTkuOTkyNiAyNC4xNTE1QzIwLjU3NDcgMjMuOTA1MiAyMS4xODgyIDIzLjc4NDYgMjEuODE2OCAyMy43ODQ2QzIyLjA3NTkgMjMuNzg0NiAyMi4zMzI0IDIzLjgwNTEgMjIuNTg1MyAyMy44NDY0QzIyLjkwNjUgMjMuNjE3OSAyMy4yNTIyIDIzLjQyNTEgMjMuNjIwNCAyMy4yNjkzQzI0LjI4NTEgMjIuOTg4MSAyNC45ODYzIDIyLjg0OTcgMjUuNzA4OSAyMi44NDk3QzI2LjQzMTYgMjIuODQ5NyAyNy4xMzI3IDIyLjk4ODEgMjcuNzk3NSAyMy4yNjkzQzI4LjQ0MzYgMjMuNTQyNyAyOS4wMTc2IDIzLjkzMjYgMjkuNTA0MyAyNC40MzY1QzMwLjAwODIgMjQuOTIzMiAzMC4zOTgxIDI1LjQ5NzIgMzAuNjcxNSAyNi4xNDMzQzMwLjk1MjcgMjYuODA4MSAzMS4wOTExIDI3LjUwOTMgMzEuMDkxMSAyOC4yMzE5QzMxLjA5MTEgMjguOTI1MiAzMC45NjM3IDI5LjU5ODggMzAuNzA1IDMwLjIzOTVDMzEuMTk2OSAzMC42Mjg4IDMxLjYzNDYgMzEuMDg3NyAzMi4wMTUyIDMxLjYxMjdDMzUuMjc5MiAzMS4wNDI2IDM3Ljk5OTkgMjguMzY4IDM3Ljk5OTkgMjQuMzU5MUMzNy45OTk5IDIwLjM3NTEgMzUuMTUyNiAxNy4zMTM1IDMxLjcyNDcgMTYuOTg5N0MzMC4zNTA3IDE0LjE0ODMgMjcuOCAxMi4yMzcxIDI0LjM5MzEgMTIuMjM3MVoiIGNsaXAtcnVsZT0iZXZlbm9kZCIgZmlsbC1ydWxlPSJldmVub2RkIi8+JiN4YTs8cGF0aCBmaWxsPSJ1cmwoI3BhaW50Ml9yYWRpYWxfMjYyMl8yMDQ3NSkiIGQ9Ik0yOC4zMzY4IDMwLjgwNzhDMjkuMzA4MiAzMS4xODk0IDMwLjA5NzQgMzEuODEzOCAzMC43MDQ1IDMyLjY4MTFDMzEuMzExNiAzMy41NDg0IDMxLjYxNTIgMzQuNTI4NSAzMS42MTUyIDM1LjYyMTNWMzcuMTA0NEMzMS42MTUyIDM3LjMxMjUgMzEuNTM3MSAzNy40ODYgMzEuMzgxIDM3LjYyNDdDMzEuMjQyMiAzNy43NjM1IDMxLjA3NzQgMzcuODMyOSAzMC44ODY2IDM3LjgzMjlIMjkuNDAzNkMyOS4xOTU0IDM3LjgzMjkgMjkuMDEzMyAzNy43NjM1IDI4Ljg1NzIgMzcuNjI0N0MyOC43MTg0IDM3LjQ4NiAyOC42NDkgMzcuMzEyNSAyOC42NDkgMzcuMTA0NEMyOC42NDkgMzYuODk2MiAyOC43MTg0IDM2LjcyMjcgMjguODU3MiAzNi41ODRDMjkuMDEzMyAzNi40Mjc5IDI5LjE5NTQgMzYuMzQ5OCAyOS40MDM2IDM2LjM0OThIMzAuMTMyMVYzNS42MjEzQzMwLjEzMjEgMzUuMTE4MiAzMC4wMzY3IDM0LjY0MTIgMjkuODQ1OSAzNC4xOTAyQzI5LjY1NTEgMzMuNzM5MiAyOS4zODYyIDMzLjM0OSAyOS4wMzkzIDMzLjAxOTRDMjguNzA5NyAzMi42NzI1IDI4LjMxOTUgMzIuNDAzNiAyNy44Njg1IDMyLjIxMjhDMjcuNDM0OCAzMi4wMjIgMjYuOTU3OCAzMS45MjY2IDI2LjQzNzUgMzEuOTI2NkgyNC45ODA0QzI0LjQ2IDMxLjkyNjYgMjMuOTc0NCAzMi4wMjIgMjMuNTIzNCAzMi4yMTI4QzIzLjA4OTcgMzIuNDAzNiAyMi42OTk0IDMyLjY3MjUgMjIuMzUyNSAzMy4wMTk0QzIyLjAyMyAzMy4zNDkgMjEuNzYyOCAzMy43MzkyIDIxLjU3MiAzNC4xOTAyQzIxLjM4MTIgMzQuNjQxMiAyMS4yODU4IDM1LjExODIgMjEuMjg1OCAzNS42MjEzVjM2LjM0OThIMjIuMDE0M0MyMi4yMjI0IDM2LjM0OTggMjIuMzk1OSAzNi40Mjc5IDIyLjUzNDcgMzYuNTg0QzIyLjY3MzQgMzYuNzIyNyAyMi43NDI4IDM2Ljg5NjIgMjIuNzQyOCAzNy4xMDQ0QzIyLjc0MjggMzcuMzEyNSAyMi42NzM0IDM3LjQ4NiAyMi41MzQ3IDM3LjYyNDdDMjIuMzk1OSAzNy43NjM1IDIyLjIyMjQgMzcuODMyOSAyMi4wMTQzIDM3LjgzMjlIMjAuNTMxMkMyMC4zNDA0IDM3LjgzMjkgMjAuMTY3IDM3Ljc2MzUgMjAuMDEwOSAzNy42MjQ3QzE5Ljg3MjEgMzcuNDg2IDE5LjgwMjcgMzcuMzEyNSAxOS44MDI3IDM3LjEwNDRMMTkuODAyNyAzNi4wNTAySDE3LjgyMzRDMTcuNjMyOCAzNi4wNTAyIDE3LjQ2MTYgMzUuOTc5NSAxNy4zMTQ2IDM1Ljg0ODhMMTcuMzA3NSAzNS44NDI1QzE3LjE2ODEgMzUuNzAzMSAxNy4wOTk4IDM1LjUyNzEgMTcuMDk5OCAzNS4zMjY1VjM0LjE4MjdDMTcuMDk5OCAzMy43MzkyIDE3LjE2MjEgMzMuMzIxIDE3LjI4ODEgMzIuOTI5MUwxNy4yODkyIDMyLjkyNTlDMTcuNDI3MiAzMi41MjU2IDE3LjYwNzEgMzIuMTU4NiAxNy44MjkzIDMxLjgyNTNMMTcuODMxOCAzMS44MjE1QzE4LjA2NzggMzEuNDg4MyAxOC4zNDU4IDMxLjE5NjQgMTguNjY1MiAzMC45NDYxQzE4LjkyNDIgMzAuNzMyNCAxOS4yMDU5IDMwLjU1NSAxOS41MTAxIDMwLjQxNEMxOS4wMzk4IDI5Ljg4ODUgMTguODA1NSAyOS4yNDE5IDE4LjgwNTUgMjguNDgzNUMxOC44MDU1IDI4LjA3NDUgMTguODgzMiAyNy42ODUxIDE5LjAzOSAyNy4zMTY3QzE5LjE5MzkgMjYuOTUwNyAxOS40MDYgMjYuNjMyIDE5LjY3NTYgMjYuMzYyM0MxOS45NTc5IDI2LjA4MDEgMjAuMjgzIDI1Ljg2MDkgMjAuNjUwMSAyNS43MDU2QzIxLjAxODQgMjUuNTQ5OCAyMS40MDc4IDI1LjQ3MjEgMjEuODE2OCAyNS40NzIxQzIyLjIyNTkgMjUuNDcyMSAyMi42MTUyIDI1LjU0OTggMjIuOTgzNiAyNS43MDU2TDIzLjAwMDggMjUuNzEzQzIzLjAyNzEgMjUuNjg0OSAyMy4wNTM4IDI1LjY1NzMgMjMuMDgxIDI1LjYzQzIzLjQyOCAyNS4yODMxIDIzLjgyNjkgMjUuMDE0MiAyNC4yNzc5IDI0LjgyMzRDMjQuNzI4OSAyNC42MzI2IDI1LjIwNTkgMjQuNTM3MiAyNS43MDg5IDI0LjUzNzJDMjYuMjEyIDI0LjUzNzIgMjYuNjg5IDI0LjYzMjYgMjcuMTQgMjQuODIzNEMyNy41OTA5IDI1LjAxNDIgMjcuOTgxMiAyNS4yODMxIDI4LjMxMDggMjUuNjNDMjguNjU3NyAyNS45NTk2IDI4LjkyNjYgMjYuMzQ5OSAyOS4xMTc0IDI2LjgwMDlDMjkuMzA4MiAyNy4yNTE5IDI5LjQwMzYgMjcuNzI4OSAyOS40MDM2IDI4LjIzMTlDMjkuNDAzNiAyOC43MzQ5IDI5LjMwODIgMjkuMjEyIDI5LjExNzQgMjkuNjYzQzI4LjkyNjYgMzAuMDk2NiAyOC42NjY0IDMwLjQ3ODIgMjguMzM2OCAzMC44MDc4Wk0yMC4wMzY5IDM0LjA2MDFDMTkuOTgyMiAzNC4yMzAxIDE5LjkzNzIgMzQuNDA0MyAxOS45MDE3IDM0LjU4MjdIMTguNTY3MlYzNC4xODI3QzE4LjU2NzIgMzMuODE1NyAxOC42MzY3IDMzLjQ2OTMgMTguNzc1MiAzMy4xNDJDMTguOTE0NiAzMi44MTI0IDE5LjEwMzkgMzIuNTI5IDE5LjM0MjYgMzIuMjkwM0MxOS41OTYyIDMyLjAzNjcgMTkuODgwMyAzMS44NDEyIDIwLjE5NTMgMzEuNzAyNEMyMC41MjE2IDMxLjU2NDUgMjAuODc0MyAzMS40OTQ5IDIxLjI1NDkgMzEuNDk0OUgyMS44NzA4QzIxLjgzMTUgMzEuNTI1NCAyMS43OTI2IDMxLjU1NjYgMjEuNzU0MSAzMS41ODg0QzIxLjM1NTEgMzEuOTAwNiAyMS4wMDgyIDMyLjI2NDggMjAuNzEzNCAzMi42ODExQzIwLjQzNTggMzMuMDk3NCAyMC4yMTAzIDMzLjU1NzEgMjAuMDM2OSAzNC4wNjAxWk0yNS43MDg5IDI2LjAyMDNDMjUuMTAxOCAyNi4wMjAzIDI0LjU4MTUgMjYuMjM3MSAyNC4xNDc4IDI2LjY3MDhDMjMuNzE0MiAyNy4xMDQ0IDIzLjQ5NzMgMjcuNjI0OCAyMy40OTczIDI4LjIzMTlDMjMuNDk3MyAyOC44MzkgMjMuNzE0MiAyOS4zNTk0IDI0LjE0NzggMjkuNzkzQzI0LjU4MTUgMzAuMjI2NyAyNS4xMDE4IDMwLjQ0MzUgMjUuNzA4OSAzMC40NDM1QzI2LjMxNiAzMC40NDM1IDI2LjgzNjQgMzAuMjI2NyAyNy4yNyAyOS43OTNDMjcuNzAzNyAyOS4zNTk0IDI3LjkyMDUgMjguODM5IDI3LjkyMDUgMjguMjMxOUMyNy45MjA1IDI3LjYyNDggMjcuNzAzNyAyNy4xMDQ0IDI3LjI3IDI2LjY3MDhDMjYuODM2NCAyNi4yMzcxIDI2LjMxNiAyNi4wMjAzIDI1LjcwODkgMjYuMDIwM1pNMjIuMDE0MyAyOC4yMzE5QzIyLjAxNDMgMjguODU5NiAyMi4xNDM2IDI5LjQyMTEgMjIuNDAyMyAyOS45MTYzQzIyLjIyMjMgMjkuOTkwNiAyMi4wMjc1IDMwLjAyNzQgMjEuODE2OCAzMC4wMjc0QzIxLjM5MiAzMC4wMjc0IDIxLjAzMTcgMjkuODc3NiAyMC43MjcyIDI5LjU3MzFDMjAuNDIyOCAyOS4yNjg3IDIwLjI3MjkgMjguOTA4MyAyMC4yNzI5IDI4LjQ4MzVDMjAuMjcyOSAyOC4wNTg3IDIwLjQyMjggMjcuNjk4MyAyMC43MjcyIDI3LjM5MzlDMjEuMDMxNyAyNy4wODk0IDIxLjM5MiAyNi45Mzk2IDIxLjgxNjggMjYuOTM5NkMyMS45NjA1IDI2LjkzOTYgMjIuMDk2OSAyNi45NTY3IDIyLjIyNjIgMjYuOTkxMkMyMi4wODQ5IDI3LjM4NTUgMjIuMDE0MyAyNy43OTkxIDIyLjAxNDMgMjguMjMxOVoiIGNsaXAtcnVsZT0iZXZlbm9kZCIgZmlsbC1ydWxlPSJldmVub2RkIi8+JiN4YTs8ZGVmcz4mI3hhOzxsaW5lYXJHcmFkaWVudCBncmFkaWVudFVuaXRzPSJ1c2VyU3BhY2VPblVzZSIgeTI9IjQ0LjI3OTIiIHgyPSI0MS41NjQ1IiB5MT0iNi44NDc3NSIgeDE9IjQuODUyODciIGlkPSJwYWludDBfbGluZWFyXzI2MjJfMjA0NzUiPiYjeGE7PHN0b3Agc3RvcC1jb2xvcj0id2hpdGUiLz4mI3hhOzxzdG9wIHN0b3AtY29sb3I9IiNFQUVDRUUiIG9mZnNldD0iMSIvPiYjeGE7PC9saW5lYXJHcmFkaWVudD4mI3hhOzxyYWRpYWxHcmFkaWVudCBncmFkaWVudFRyYW5zZm9ybT0idHJhbnNsYXRlKDE1LjI1ODMgMTUuOTk1NCkgcm90YXRlKDQzLjg3NzkpIHNjYWxlKDI1Ljg1MjQgNDguODExNykiIGdyYWRpZW50VW5pdHM9InVzZXJTcGFjZU9uVXNlIiByPSIxIiBjeT0iMCIgY3g9IjAiIGlkPSJwYWludDFfcmFkaWFsXzI2MjJfMjA0NzUiPiYjeGE7PHN0b3Agc3RvcC1jb2xvcj0iIzAxOTVGRiIvPiYjeGE7PHN0b3Agc3RvcC1jb2xvcj0iIzExNDdFOSIgb2Zmc2V0PSIxIi8+JiN4YTs8L3JhZGlhbEdyYWRpZW50PiYjeGE7PHJhZGlhbEdyYWRpZW50IGdyYWRpZW50VHJhbnNmb3JtPSJ0cmFuc2xhdGUoMTUuMjUyMiAxNi4wODc2KSByb3RhdGUoNDMuNTYwMikgc2NhbGUoMjUuODcyNyAyMy41NDcxKSIgZ3JhZGllbnRVbml0cz0idXNlclNwYWNlT25Vc2UiIHI9IjEiIGN5PSIwIiBjeD0iMCIgaWQ9InBhaW50Ml9yYWRpYWxfMjYyMl8yMDQ3NSI+JiN4YTs8c3RvcCBzdG9wLWNvbG9yPSIjMTM0OEZGIi8+JiN4YTs8c3RvcCBzdG9wLWNvbG9yPSIjMDYyMzhEIiBvZmZzZXQ9IjEiLz4mI3hhOzwvcmFkaWFsR3JhZGllbnQ+JiN4YTs8L2RlZnM+JiN4YTs8L3N2Zz4=;container=0;" parent="1" vertex="1">
          <mxGeometry x="-374.30000000000007" y="-130.58925925925928" width="38.5929203539823" height="38.5929203539823" as="geometry" />
        </mxCell>
        <mxCell id="q-DKs4rhJ-QWINOPGp90-25" value="&lt;span style=&quot;font-weight: 700;&quot;&gt;&lt;font style=&quot;font-size: 14px;&quot; color=&quot;#1d2d3e&quot;&gt;SAP Cloud Identity Services&lt;/font&gt;&lt;/span&gt;" style="text;whiteSpace=wrap;html=1;align=center;" parent="1" vertex="1">
          <mxGeometry x="-420.03" y="-91.99750573582432" width="130.04999999999998" height="33.78703703703704" as="geometry" />
        </mxCell>
        <mxCell id="fXpIBQZN37lXWSrMRcfu-16" style="rounded=0;orthogonalLoop=1;jettySize=auto;html=1;endArrow=block;endFill=1;strokeColor=#cc01dc;strokeWidth=1.5;" parent="1" source="fXpIBQZN37lXWSrMRcfu-18" target="q-DKs4rhJ-QWINOPGp90-23" edge="1">
          <mxGeometry relative="1" as="geometry">
            <mxPoint x="-706" y="49.209999999999994" as="targetPoint" />
          </mxGeometry>
        </mxCell>
        <mxCell id="fXpIBQZN37lXWSrMRcfu-17" style="rounded=0;orthogonalLoop=1;jettySize=auto;html=1;exitX=0;exitY=0.5;exitDx=0;exitDy=0;endArrow=block;endFill=1;strokeColor=#cc01dc;strokeWidth=1.5;startArrow=none;startFill=0;" parent="1" source="fXpIBQZN37lXWSrMRcfu-18" edge="1">
          <mxGeometry relative="1" as="geometry">
            <mxPoint x="-930" y="-90" as="targetPoint" />
          </mxGeometry>
        </mxCell>
        <mxCell id="fXpIBQZN37lXWSrMRcfu-18" value="&lt;font size=&quot;1&quot; color=&quot;#f5f6f7&quot;&gt;&lt;b style=&quot;&quot;&gt;Trust&lt;/b&gt;&lt;/font&gt;" style="rounded=1;whiteSpace=wrap;html=1;arcSize=50;strokeColor=none;fillColor=#cc01dc;strokeWidth=1.5;" parent="1" vertex="1">
          <mxGeometry x="-702.5099999999999" y="-97.5" width="43.76" height="16" as="geometry" />
        </mxCell>
        <mxCell id="fXpIBQZN37lXWSrMRcfu-20" style="rounded=0;orthogonalLoop=1;jettySize=auto;html=1;endArrow=block;endFill=1;strokeColor=#cc01dc;strokeWidth=1.5;entryX=0.88;entryY=0.998;entryDx=0;entryDy=0;entryPerimeter=0;edgeStyle=orthogonalEdgeStyle;" parent="1" source="fXpIBQZN37lXWSrMRcfu-22" target="q-DKs4rhJ-QWINOPGp90-2" edge="1">
          <mxGeometry relative="1" as="geometry">
            <mxPoint x="50.5" y="-85" as="targetPoint" />
            <Array as="points">
              <mxPoint x="-131" y="-85" />
            </Array>
          </mxGeometry>
        </mxCell>
        <mxCell id="fXpIBQZN37lXWSrMRcfu-21" style="rounded=0;orthogonalLoop=1;jettySize=auto;html=1;exitX=0;exitY=0.5;exitDx=0;exitDy=0;endArrow=block;endFill=1;strokeColor=#cc01dc;strokeWidth=1.5;entryX=1;entryY=0.869;entryDx=0;entryDy=0;entryPerimeter=0;" parent="1" source="fXpIBQZN37lXWSrMRcfu-22" edge="1">
          <mxGeometry relative="1" as="geometry">
            <mxPoint x="-281.5" y="-86" as="targetPoint" />
          </mxGeometry>
        </mxCell>
        <mxCell id="fXpIBQZN37lXWSrMRcfu-22" value="&lt;font size=&quot;1&quot; color=&quot;#f5f6f7&quot;&gt;&lt;b style=&quot;&quot;&gt;Trust&lt;/b&gt;&lt;/font&gt;" style="rounded=1;whiteSpace=wrap;html=1;arcSize=50;strokeColor=none;fillColor=#cc01dc;strokeWidth=1.5;" parent="1" vertex="1">
          <mxGeometry x="-226.00999999999988" y="-93.5" width="43.76" height="16" as="geometry" />
        </mxCell>
        <mxCell id="zmW_hc68Nx3IGt7H10Q4-2" style="rounded=0;orthogonalLoop=1;jettySize=auto;html=1;exitX=0;exitY=0;exitDx=0;exitDy=0;exitPerimeter=0;entryX=0.5;entryY=1;entryDx=0;entryDy=0;edgeStyle=orthogonalEdgeStyle;startArrow=block;startFill=1;endArrow=block;endFill=1;dashed=1;" parent="1" target="q-DKs4rhJ-QWINOPGp90-91" edge="1">
          <mxGeometry relative="1" as="geometry">
            <mxPoint x="-379.5" y="-411" as="sourcePoint" />
            <mxPoint x="-948" y="-364" as="targetPoint" />
            <Array as="points">
              <mxPoint x="-810" y="-411" />
            </Array>
          </mxGeometry>
        </mxCell>
        <mxCell id="zmW_hc68Nx3IGt7H10Q4-4" value="" style="rounded=0;orthogonalLoop=1;jettySize=auto;html=1;exitX=0;exitY=0.75;exitDx=0;exitDy=0;exitPerimeter=0;entryX=0.991;entryY=0.444;entryDx=0;entryDy=0;entryPerimeter=0;endArrow=block;endFill=1;dashed=1;strokeColor=#000000;" parent="1" target="q-DKs4rhJ-QWINOPGp90-106" edge="1">
          <mxGeometry relative="1" as="geometry">
            <mxPoint x="-379.5" y="-374.25" as="sourcePoint" />
            <mxPoint x="-958" y="-374" as="targetPoint" />
          </mxGeometry>
        </mxCell>
        <mxCell id="zmW_hc68Nx3IGt7H10Q4-3" value="&lt;div style=&quot;&quot;&gt;&lt;span style=&quot;font-family: arial; font-size: x-small; background-color: initial;&quot;&gt;&lt;font&gt;Post Invoice&lt;/font&gt;&lt;/span&gt;&lt;/div&gt;&lt;div style=&quot;&quot;&gt;&lt;span style=&quot;font-family: arial; font-size: x-small; background-color: initial;&quot;&gt;&lt;font&gt;and&lt;/font&gt;&lt;/span&gt;&lt;/div&gt;&lt;div style=&quot;&quot;&gt;&lt;span style=&quot;font-family: arial; font-size: x-small; background-color: initial;&quot;&gt;&lt;font&gt;Store Corrected Invoice Document&lt;/font&gt;&lt;/span&gt;&lt;/div&gt;" style="text;html=1;align=center;verticalAlign=middle;resizable=0;points=[];autosize=1;strokeColor=none;fillColor=none;fontSize=12;fontColor=#556B82;fontFamily=Helvetica;" parent="1" vertex="1">
          <mxGeometry x="-900" y="-397.5" width="180" height="60" as="geometry" />
        </mxCell>
        <mxCell id="jWHRMagx3_LpMVarxtJ_-1" value="" style="shape=image;verticalLabelPosition=bottom;labelBackgroundColor=default;verticalAlign=top;aspect=fixed;imageAspect=0;image=data:image/svg+xml,PHN2ZyB4bWxuczp4bGluaz0iaHR0cDovL3d3dy53My5vcmcvMTk5OS94bGluayIgeG1sbnM9Imh0dHA6Ly93d3cudzMub3JnLzIwMDAvc3ZnIiB2aWV3Qm94PSIwIDAgMzMzLjg3NCAzOS44MzIiIGlkPSJhIj48ZGVmcz48bGluZWFyR3JhZGllbnQgZ3JhZGllbnRVbml0cz0idXNlclNwYWNlT25Vc2UiIHkyPSIzOS44MzIiIHgyPSI0MC4yNTgiIHkxPSIwIiB4MT0iNDAuMjU4IiBpZD0iYiI+PHN0b3Agc3RvcC1jb2xvcj0iIzAwYjhmMSIgb2Zmc2V0PSIwIi8+PHN0b3Agc3RvcC1jb2xvcj0iIzAwYjVlZiIgb2Zmc2V0PSIuMDE2Ii8+PHN0b3Agc3RvcC1jb2xvcj0iIzBkOTBkOCIgb2Zmc2V0PSIuMzA4Ii8+PHN0b3Agc3RvcC1jb2xvcj0iIzE2NzVjOCIgb2Zmc2V0PSIuNTc4Ii8+PHN0b3Agc3RvcC1jb2xvcj0iIzFjNjRiZSIgb2Zmc2V0PSIuODE3Ii8+PHN0b3Agc3RvcC1jb2xvcj0iIzFlNWZiYiIgb2Zmc2V0PSIxIi8+PC9saW5lYXJHcmFkaWVudD48L2RlZnM+PHBvbHlsaW5lIGZpbGwtcnVsZT0iZXZlbm9kZCIgZmlsbD0idXJsKCNiKSIgcG9pbnRzPSIwIDM5LjgzMiA0MC42OTIgMzkuODMyIDgwLjUxNyAwIDAgMCAwIDM5LjgzMiIvPjxwYXRoIGZpbGwtcnVsZT0iZXZlbm9kZCIgZmlsbD0iI2ZmZiIgZD0ibTQ3Ljc4Miw3LjQ4OWwtNy45MjUtLjAwNXYxOC44NDVsLTYuOTI0LTE4Ljg0NWgtNi44NjVsLTUuOTEyLDE1Ljc1OWMtLjYzLTMuOTczLTQuNzQtNS4zNDUtNy45NzQtNi4zNzQtMi4xMzUtLjY4Ni00LjQwMS0xLjY5NC00LjM4LTIuODA5LjAxNy0uOTE1LDEuMjE1LTEuNzY1LDMuNTg5LTEuNjM3LDEuNTk1LjA4NCwzLjAwMS4yMTMsNS44LDEuNTYzbDIuNzUzLTQuNzk1Yy0yLjU1NS0xLjMtNi4wODYtMi4xMjEtOC45NzgtMi4xMjRoLS4wMTdjLTMuMzc0LDAtNi4xODUsMS4wOTMtNy45MjgsMi44OTQtMS4yMTQsMS4yNTgtMS44NjksMi44NTYtMS44OTYsNC42MjMtLjA0NCwyLjQzMi44NDgsNC4xNTcsMi43MjEsNS41MzMsMS41ODMsMS4xNiwzLjYwNiwxLjkxMiw1LjM5LDIuNDY1LDIuMjAxLjY4MSwzLjk5NiwxLjI3NCwzLjk3NSwyLjUzOS0uMDE2LjQ1OS0uMTkxLjg4OC0uNTIxLDEuMjM2LS41NDguNTY2LTEuMzkxLjc3OS0yLjU1NS43OTktMi4yNDQuMDQ4LTMuOTEtLjMwMy02LjU2Mi0xLjg3bC0yLjQ0OCw0Ljg2MWMyLjY0NCwxLjUwNiw1Ljc3NiwyLjM4OCw4Ljk3MiwyLjM4OGwuNDExLS4wMDZjMi43ODItLjA1LDUuMDI2LS44NDIsNi44Mi0yLjI4Ni4xMDMtLjA4MS4xOTYtLjE2Ni4yOTEtLjI1bC0uNzk1LDIuMTIzaDcuMmwxLjIwOC0zLjY3NGMxLjI2NS40MzMsMi43MDQuNjcxLDQuMjMyLjY3MSwxLjQ4NywwLDIuODg5LS4yMjksNC4xMzEtLjYzNWwxLjE2NCwzLjYzN2gxMS43NDJ2LTcuNjA3aDIuNTYxYzYuMTg4LDAsOS44NTEtMy4xNTQsOS44NTEtOC40MzYsMC01Ljg4NS0zLjU1Ny04LjU4NS0xMS4xMzItOC41ODVabS0xOC4zMTcsMTYuMTI0Yy0uOTI1LDAtMS43OTItLjE2LTIuNTM5LS40NDNsMi41MTItNy45MjZoLjA0OGwyLjQ2OCw3Ljk0OGMtLjc0Mi4yNjMtMS41ODkuNDIxLTIuNDg4LjQyMVptMTguNzgzLTQuNTUzaC0xLjc0NnYtNi4zODZoMS43NDZjMi4zMjgsMCw0LjE4NS43NzMsNC4xODUsMy4xNTEsMCwyLjQ2MS0xLjg1NywzLjIzNi00LjE4NSwzLjIzNiIvPjxwYXRoIGZpbGw9IiMwMDJhODYiIGQ9Im03OC42MDUsMjguMzlsMi45OTEtMy4wMDhjMS41MTMsMS45NywzLjYyNCwzLjI5LDcuMTA3LDMuMjksMi44NSwwLDUuMDE0LS45NSw1LjAxNC0zLjI3MiwwLTIuNDQ1LTIuNDk4LTMuMTQ5LTUuODc2LTMuOTc2LTMuODg4LS45MzMtOC4xMTEtMi4yMTctOC4xMTEtNy4zODksMC00Ljg3NCwzLjk5NC03LjAwMiw5LjEzMS03LjAwMiw0LjA0NiwwLDYuOTY3LDEuMzM3LDguODg1LDMuNTcybC0yLjkwMywyLjkwM2MtMS41My0xLjc0Mi0zLjQzMS0yLjY5Mi02LjE0LTIuNjkyLTMuMDYxLDAtNC4zODEsMS4yNjctNC4zODEsMi45NTYsMCwyLjIzNCwyLjI3LDIuODMzLDUuNDAxLDMuNjI1LDQuMTcuOTg1LDguNjA0LDIuMTY0LDguNjA0LDcuNjUzLDAsNC40NTEtMy4zMjUsNy40OTUtOS43MTEsNy40OTUtNC42OCwwLTcuOTg3LTEuNTY2LTEwLjAxMS00LjE1MloiLz48cGF0aCBmaWxsPSIjMDAyYTg2IiBkPSJtMTA5Ljk0LDYuMjc1aDMuODdsLTEwLjg1NCwyNy4wNDFoLTMuODcxbDEwLjg1NS0yNy4wNDFaIi8+PHBhdGggZmlsbD0iIzAwMmE4NiIgZD0ibTEyMy40NTYsMjcuMjk5aC0xMS4zNjV2LTMuNjc3bDEwLjgxOS0xNi4yMjFoNC43MTV2MTYuMjU2aDMuMzA4djMuNjQyaC0zLjMwOHY0Ljg5MWgtNC4xNjl2LTQuODkxWm0wLTMuNjQydi04LjA0YzAtLjk4NSwwLTIuMTgyLjA3LTMuMjItLjMzNS42MTYtLjg5NywxLjQ3OC0xLjI2NywyLjA3NmwtNS4wNjcsNy42Yy0uMjk5LjQ0LS43OTIsMS4xNzktMS4wOTEsMS41ODNoNy4zNTRaIi8+PHBhdGggZmlsbD0iIzAwMmE4NiIgZD0ibTEzNC4xMjQsNy40MDFoNC42OHY5LjgxN2gxMC45NzlWNy40MDFoNC42OTd2MjQuNzg5aC00LjY5N3YtMTAuNjYyaC0xMC45Nzl2MTAuNjYyaC00LjY4VjcuNDAxWiIvPjxwYXRoIGZpbGw9IiMwMDJhODYiIGQ9Im0xNjUuODUsNy40MDFoNS40NzJsOS4wOTYsMjQuNzg5aC00LjgwM2wtMi4wMjMtNi4wMzVoLTEwLjExNmwtMi4wMjMsNi4wMzVoLTQuNjhsOS4wNzgtMjQuNzg5Wm02LjQ3NSwxNC45NzJsLTIuNTMzLTcuNTY1Yy0uNDIzLTEuMjMxLTEuMDAzLTIuOTAzLTEuMjY4LTMuODE4LS4yNjQuOTE1LS44MDksMi41ODYtMS4yMzEsMy44MThsLTIuNTMzLDcuNTY1aDcuNTY1WiIvPjxwYXRoIGZpbGw9IiMwMDJhODYiIGQ9Im0xODIuNjkzLDcuNDAxaDUuNTA3bDExLjIwNywxOS41NDZjLS4wODgtMS4wMDMtLjE1OC0zLjI1NS0uMTU4LTUuNDU0VjcuNDAxaDQuMjR2MjQuNzg5aC01LjY0N2wtMTEuMDY2LTE5LjNjLjA4OCwxLjAwMy4xNTgsMy4yMzcuMTU4LDUuNDU0djEzLjg0NmgtNC4yNFY3LjQwMVoiLz48cGF0aCBmaWxsPSIjMDAyYTg2IiBkPSJtMjE0Ljg1OSw3LjQwMWg1LjQ3Mmw5LjA5NiwyNC43ODloLTQuODAzbC0yLjAyMy02LjAzNWgtMTAuMTE2bC0yLjAyMyw2LjAzNWgtNC42OGw5LjA3OC0yNC43ODlabTYuNDc1LDE0Ljk3MmwtMi41MzMtNy41NjVjLS40MjMtMS4yMzEtMS4wMDMtMi45MDMtMS4yNjgtMy44MTgtLjI2NC45MTUtLjgwOSwyLjU4Ni0xLjIzMSwzLjgxOGwtMi41MzMsNy41NjVoNy41NjVaIi8+PHBhdGggZmlsbD0iIzAwMmE4NiIgZD0ibTIzNy4yNSwxOS43ODdjMC04LjY3Myw1LjU2LTEyLjc1NSwxMi42MTQtMTIuNzU1LDQuMjkzLDAsNy40OTUsMS40OTYsOS43NDcsNC4wODJsLTMuMTQ5LDMuMTQ5Yy0xLjQyNS0xLjg0Ny0zLjQ0OC0zLjA3OS02LjU4LTMuMDc5LTQuODkxLDAtNy43OTQsMi45OTEtNy43OTQsOC42MDNzMi45MDMsOC42MjEsNy43OTQsOC42MjFjMy4xMzIsMCw1LjE1NS0xLjIzMSw2LjU4LTMuMDc5bDMuMTQ5LDMuMTQ5Yy0yLjIzNCwyLjU2OS01LjQ3Miw0LjA2NC05Ljc0Nyw0LjA2NC03LjA1NSwwLTEyLjYxNC00LjA2NC0xMi42MTQtMTIuNzU1WiIvPjxwYXRoIGZpbGw9IiMwMDJhODYiIGQ9Im0yNjIuMDg3LDI3LjQ1OFY1Ljk1OGg0LjQ2OXYyMC43MjVjMCwxLjQ5Ni4zNTIsMi4wMjMsMS42MzYsMi4wMjMuNTQ2LDAsMS4wMjEtLjA4OCwxLjUzMS0uMTk0djMuNjc3Yy0uNzA0LjE3Ni0xLjY1NC4zMTctMi42MjIuMzE3LTMuNjI0LDAtNS4wMTQtMS43MjQtNS4wMTQtNS4wNDlaIi8+PHBhdGggZmlsbD0iIzAwMmE4NiIgZD0ibTI3MS40NDQsMjIuNTY3YzAtNi4wNyw0LjA0Ny05Ljk5Myw5LjgtOS45OTNzOS43OTksMy45MjMsOS43OTksOS45OTMtNC4wNDYsOS45NzYtOS43OTksOS45NzYtOS44LTMuOTA2LTkuOC05Ljk3NlptMTQuOTM3LDBjMC00LjE1Mi0yLjE0Ni02LjM2OS01LjEzNy02LjM2OXMtNS4xMzgsMi4yMTctNS4xMzgsNi4zNjksMi4xNDYsNi4zNjksNS4xMzgsNi4zNjksNS4xMzctMi4yMzQsNS4xMzctNi4zNjlaIi8+PHBhdGggZmlsbD0iIzAwMmE4NiIgZD0ibTI5NC4zNDYsMjUuNjI4di0xMi42ODVoNC40Njl2MTEuNjI5YzAsMi41NjkuODgsNC4xNTIsMy40NjYsNC4xNTIsMi42NTYsMCw0LjMxMS0xLjc3Nyw0LjMxMS01LjAxNHYtMTAuNzY3aDQuNDM0djE5LjI0N2gtNC4yOTN2LTQuMDY0aC0uMDg4Yy0uODgsMi4yMTctMi42MjEsNC40MTYtNi4zMTYsNC40MTYtNC4xMTYsMC01Ljk4MS0yLjgxNS01Ljk4MS02LjkxNVoiLz48cGF0aCBmaWxsPSIjMDAyYTg2IiBkPSJtMzE0LjUzOSwyMi41NjdjMC02LDMuMDA5LTkuOTkzLDcuOTg3LTkuOTkzLDMuNzQ3LDAsNS45MTEsMi4wMDYsNi44MDksNC4xODhoLjA4OFY1Ljk1OGg0LjQ1MXYyNi4yMzJoLTQuMjkzdi0zLjk1OGgtLjA4OGMtLjkzMiwyLjIxNy0yLjcyNyw0LjMxMS02Ljc5MSw0LjMxMS00Ljg5MSwwLTguMTYzLTMuNzgzLTguMTYzLTkuOTc2Wm0xNC45MTksMGMwLTQuMTUyLTIuMTI5LTYuMzY5LTUuMTE5LTYuMzY5LTMuMDA5LDAtNS4xMzgsMi4yMTctNS4xMzgsNi4zNjlzMi4xMjksNi4zNjksNS4xMzgsNi4zNjljMi45OSwwLDUuMTE5LTIuMjM0LDUuMTE5LTYuMzY5WiIvPjwvc3ZnPg==;" parent="1" vertex="1">
          <mxGeometry x="-1117" y="-585.28" width="154.89" height="18.55" as="geometry" />
        </mxCell>
        <mxCell id="9XI46xNjrfptmni4B0TJ-1" value="&lt;div style=&quot;&quot;&gt;&lt;span style=&quot;font-family: arial; font-size: x-small; background-color: initial;&quot;&gt;&lt;font&gt;Incoming Invoice&lt;/font&gt;&lt;/span&gt;&lt;/div&gt;" style="text;html=1;align=center;verticalAlign=middle;resizable=0;points=[];autosize=1;strokeColor=none;fillColor=none;fontSize=12;fontColor=#556B82;fontFamily=Helvetica;" parent="1" vertex="1">
          <mxGeometry x="-612.75" y="-441" width="100" height="30" as="geometry" />
        </mxCell>
        <mxCell id="5uWed2QWg4kMRm_KWYj0-1" value="" style="group" vertex="1" connectable="0" parent="1">
          <mxGeometry x="-409.75" y="-411" width="160" height="95" as="geometry" />
        </mxCell>
        <mxCell id="5uWed2QWg4kMRm_KWYj0-2" value="" style="shape=image;verticalLabelPosition=bottom;verticalAlign=top;imageAspect=0;aspect=fixed;image=data:image/svg+xml,PHN2ZyB4bWxucz0iaHR0cDovL3d3dy53My5vcmcvMjAwMC9zdmciIGZpbGw9Im5vbmUiIHZpZXdCb3g9IjAgMCA0OSA0OSIgaGVpZ2h0PSI0OSIgd2lkdGg9IjQ5Ij4mI3hhOzxnIGNsaXAtcGF0aD0idXJsKCNjbGlwMF8yNjIyXzM5NjcpIj4mI3hhOzxjaXJjbGUgc3Ryb2tlLXdpZHRoPSIwLjg1NzE0MyIgc3Ryb2tlPSIjRDVEQUREIiBmaWxsPSJ1cmwoI3BhaW50MF9saW5lYXJfMjYyMl8zOTY3KSIgcj0iMjMuNTcxNCIgY3k9IjI0LjAzNDkiIGN4PSIyNC41Ii8+JiN4YTs8ZyBjbGlwLXBhdGg9InVybCgjY2xpcDFfMjYyMl8zOTY3KSI+JiN4YTs8cGF0aCBmaWxsPSJ1cmwoI3BhaW50MV9yYWRpYWxfMjYyMl8zOTY3KSIgZD0iTTIyLjI0MjkgMzcuNDA4NUMyMS45MTMzIDM3LjMwNDcgMjEuNjAwMyAzNy4xMzQyIDIxLjMwNCAzNi44OTcyQzIwLjgxMTggMzYuNTEwNCAyMC41MTMgMzYuMDAwNyAyMC40MDc1IDM1LjM2NzlMMjAuMDM4NCAzMy42Mjc2TDE3Ljc3MDggMzIuMjU2NUwxNi4xODg4IDMyLjk0MjFDMTUuODM3MiAzMy4wNDc1IDE1LjUwMzIgMzMuMTAwMyAxNS4xODY4IDMzLjEwMDNDMTQuNjk0NiAzMy4xMDAzIDE0LjIyIDMyLjk3NzIgMTMuNzYzIDMyLjczMTFDMTMuMzQxMSAzMi40ODUgMTMuMDA3MSAzMi4xMTU5IDEyLjc2MSAzMS42MjM3TDExLjc1OTEgMjkuNjcyNUMxMS41ODMzIDI5LjI1MDcgMTEuNDk1NCAyOC44NjQgMTEuNDk1NCAyOC41MTI0QzExLjQ5NTQgMjcuNTk4MyAxMS44NjQ2IDI2Ljg2IDEyLjYwMjggMjYuMjk3NUwxMy44MTU3IDI1LjQwMTFWMjIuNjU4OUwxMi41NTAxIDIxLjcwOTdDMTEuODQ3IDIxLjE4MjMgMTEuNDk1NCAyMC40NjE2IDExLjQ5NTQgMTkuNTQ3NUMxMS40OTU0IDE5LjE5NiAxMS41ODMzIDE4LjgwOTMgMTEuNzU5MSAxOC4zODc0TDEyLjc2MSAxNi40MzYyQzEzLjAwNzEgMTUuOTQ0IDEzLjM0MTEgMTUuNTc0OSAxMy43NjMgMTUuMzI4OEMxNC4yMiAxNS4wODI3IDE0LjY5NDYgMTQuOTU5NyAxNS4xODY4IDE0Ljk1OTdDMTUuNTczNSAxNC45NTk3IDE1LjkwNzUgMTUuMDMgMTYuMTg4OCAxNS4xNzA2TDE3Ljc3MDggMTUuODAzNEwyMC4wMzg0IDE0LjQzMjNMMjAuNDA3NSAxMi42OTIxQzIwLjU0ODEgMTIuMDU5MyAyMC44NjQ1IDExLjU0OTUgMjEuMzU2NyAxMS4xNjI4QzIxLjg0ODkgMTAuNzQwOSAyMi40MTE0IDEwLjUzIDIzLjA0NDIgMTAuNTNIMjQuODg5OUMyNS41MjI3IDEwLjUzIDI2LjA4NTIgMTAuNzQwOSAyNi41Nzc0IDExLjE2MjhDMjcuMDY5NiAxMS41NDk1IDI3LjM4NiAxMi4wNTkzIDI3LjUyNjYgMTIuNjkyMUwyNy44NDMgMTQuNDMyM0wzMC4xNjM0IDE1LjgwMzRMMzEuNzQ1NCAxNS4xNzA2QzMyLjAyNjYgMTUuMDMgMzIuMzYwNiAxNC45NTk3IDMyLjc0NzMgMTQuOTU5N0MzMy4yMzk1IDE0Ljk1OTcgMzMuNjk2NiAxNS4wODI3IDM0LjExODQgMTUuMzI4OEMzNC41NzU1IDE1LjU3NDkgMzQuOTI3IDE1Ljk0NCAzNS4xNzMxIDE2LjQzNjJMMzYuMTIyMyAxOC4zODc0QzM2LjMzMzMgMTguNzM5IDM2LjQzODcgMTkuMTQzMiAzNi40Mzg3IDE5LjYwMDNDMzYuNDM4NyAyMC40NzkyIDM2LjA2OTYgMjEuMTgyMyAzNS4zMzEzIDIxLjcwOTdMMzQuNjMyMyAyMi4yMzM5SDI5LjA1NzJDMjkuMDI0MiAyMi4xNDYxIDI4Ljk4ODYgMjIuMDU5MiAyOC45NTA1IDIxLjk3MzNDMjguNjY5MiAyMS4zMDU0IDI4LjI4MjUgMjAuNzI1MyAyNy43OTAzIDIwLjIzMzFDMjcuMjk4MSAxOS43NDA5IDI2LjcxODEgMTkuMzU0MiAyNi4wNTAxIDE5LjA3MjlDMjUuMzgyMSAxOC43OTE3IDI0LjY3OSAxOC42NTExIDIzLjk0MDcgMTguNjUxMUMyMy4yMDI0IDE4LjY1MTEgMjIuNDk5MyAxOC43OTE3IDIxLjgzMTMgMTkuMDcyOUMyMS4xOTg1IDE5LjM1NDIgMjAuNjM2IDE5Ljc0MDkgMjAuMTQzOCAyMC4yMzMxQzE5LjY1MTcgMjAuNzI1MyAxOS4yNjQ5IDIxLjMwNTQgMTguOTgzNyAyMS45NzMzQzE4LjcwMjQgMjIuNjA2MSAxOC41NjE4IDIzLjI5MTcgMTguNTYxOCAyNC4wM0MxOC41NjE4IDI0Ljc2ODIgMTguNzAyNCAyNS40NzE0IDE4Ljk4MzcgMjYuMTM5M0MxOS4yNjQ5IDI2Ljc3MjIgMTkuNjUxNyAyNy4zMzQ3IDIwLjE0MzggMjcuODI2OEMyMC42MzYgMjguMzE5IDIxLjE5ODUgMjguNzA1NyAyMS44MzEzIDI4Ljk4N0MyMS45NjcxIDI5LjA0NDIgMjIuMTA0MyAyOS4wOTU1IDIyLjI0MjkgMjkuMTQxTDIyLjI0MjkgMzcuNDA4NVoiIGNsaXAtcnVsZT0iZXZlbm9kZCIgZmlsbC1ydWxlPSJldmVub2RkIi8+JiN4YTs8cGF0aCBmaWxsPSJ1cmwoI3BhaW50Ml9yYWRpYWxfMjYyMl8zOTY3KSIgZD0iTTI2LjYzMDQgMjQuOTMzOEMyNS42OTg1IDI0LjkzMzggMjQuOTQyOSAyNS42ODk0IDI0Ljk0MjkgMjYuNjIxM1YzNS44MDcyQzI0Ljk0MjkgMzYuNzM5MiAyNS42OTg1IDM3LjQ5NDcgMjYuNjMwNCAzNy40OTQ3SDM2Ljc4MjVDMzcuNzE0NSAzNy40OTQ3IDM4LjQ3IDM2LjczOTIgMzguNDcgMzUuODA3MlYyNi42MjEzQzM4LjQ3IDI1LjY4OTQgMzcuNzE0NSAyNC45MzM4IDM2Ljc4MjUgMjQuOTMzOEgyNi42MzA0Wk0zMS43MDc2IDI3LjQ3MTRDMzEuNzA3NiAyNy44OTg2IDMxLjM2MTMgMjguMjQ1IDMwLjkzNDEgMjguMjQ1QzMwLjUwNjggMjguMjQ1IDMwLjE2MDUgMjcuODk4NiAzMC4xNjA1IDI3LjQ3MTRDMzAuMTYwNSAyNy4wNDQyIDMwLjUwNjggMjYuNjk3OSAzMC45MzQxIDI2LjY5NzlDMzEuMzYxMyAyNi42OTc5IDMxLjcwNzYgMjcuMDQ0MiAzMS43MDc2IDI3LjQ3MTRaTTM0LjAyNjYgMjcuNDcxNEMzNC4wMjY2IDI3Ljg5ODYgMzMuNjgwMiAyOC4yNDUgMzMuMjUzIDI4LjI0NUMzMi44MjU4IDI4LjI0NSAzMi40Nzk1IDI3Ljg5ODYgMzIuNDc5NSAyNy40NzE0QzMyLjQ3OTUgMjcuMDQ0MiAzMi44MjU4IDI2LjY5NzkgMzMuMjUzIDI2LjY5NzlDMzMuNjgwMiAyNi42OTc5IDM0LjAyNjYgMjcuMDQ0MiAzNC4wMjY2IDI3LjQ3MTRaTTM1LjU3MTkgMjguMjQ1QzM1Ljk5OTEgMjguMjQ1IDM2LjM0NTUgMjcuODk4NiAzNi4zNDU1IDI3LjQ3MTRDMzYuMzQ1NSAyNy4wNDQyIDM1Ljk5OTEgMjYuNjk3OSAzNS41NzE5IDI2LjY5NzlDMzUuMTQ0NyAyNi42OTc5IDM0Ljc5ODQgMjcuMDQ0MiAzNC43OTg0IDI3LjQ3MTRDMzQuNzk4NCAyNy44OTg2IDM1LjE0NDcgMjguMjQ1IDM1LjU3MTkgMjguMjQ1Wk0yNi44NzU0IDMxLjEwOTNDMjYuODc1NCAzMC44OTU5IDI3LjA0ODQgMzAuNzIyOCAyNy4yNjE5IDMwLjcyMjhIMzYuMTUxMUMzNi4zNjQ2IDMwLjcyMjggMzYuNTM3NiAzMC44OTU5IDM2LjUzNzYgMzEuMTA5M1YzNC45Nzc3QzM2LjUzNzYgMzUuMTkxMSAzNi4zNjQ2IDM1LjM2NDEgMzYuMTUxMSAzNS4zNjQxSDI3LjI2MTlDMjcuMDQ4NCAzNS4zNjQxIDI2Ljg3NTQgMzUuMTkxMSAyNi44NzU0IDM0Ljk3NzdWMzEuMTA5M1oiIGNsaXAtcnVsZT0iZXZlbm9kZCIgZmlsbC1ydWxlPSJldmVub2RkIi8+JiN4YTs8L2c+JiN4YTs8L2c+JiN4YTs8ZGVmcz4mI3hhOzxsaW5lYXJHcmFkaWVudCBncmFkaWVudFVuaXRzPSJ1c2VyU3BhY2VPblVzZSIgeTI9IjQ0LjI3OTIiIHgyPSI0MS41NjQ1IiB5MT0iNi44NDc3NSIgeDE9IjQuODUyODciIGlkPSJwYWludDBfbGluZWFyXzI2MjJfMzk2NyI+JiN4YTs8c3RvcCBzdG9wLWNvbG9yPSJ3aGl0ZSIvPiYjeGE7PHN0b3Agc3RvcC1jb2xvcj0iI0VBRUNFRSIgb2Zmc2V0PSIxIi8+JiN4YTs8L2xpbmVhckdyYWRpZW50PiYjeGE7PHJhZGlhbEdyYWRpZW50IGdyYWRpZW50VHJhbnNmb3JtPSJ0cmFuc2xhdGUoMTUuMzYzNSAxNC40NzY1KSByb3RhdGUoNDcuNDU1Nykgc2NhbGUoMjUuNTQwNCA0OC4wODI0KSIgZ3JhZGllbnRVbml0cz0idXNlclNwYWNlT25Vc2UiIHI9IjEiIGN5PSIwIiBjeD0iMCIgaWQ9InBhaW50MV9yYWRpYWxfMjYyMl8zOTY3Ij4mI3hhOzxzdG9wIHN0b3AtY29sb3I9IiMwMTk1RkYiLz4mI3hhOzxzdG9wIHN0b3AtY29sb3I9IiMxMTQ3RTkiIG9mZnNldD0iMSIvPiYjeGE7PC9yYWRpYWxHcmFkaWVudD4mI3hhOzxyYWRpYWxHcmFkaWVudCBncmFkaWVudFRyYW5zZm9ybT0idHJhbnNsYXRlKDI3LjA5NTcgMjYuODE5KSByb3RhdGUoNDIuODc4OSkgc2NhbGUoMTIuOTI3NCAxNS42NDYyKSIgZ3JhZGllbnRVbml0cz0idXNlclNwYWNlT25Vc2UiIHI9IjEiIGN5PSIwIiBjeD0iMCIgaWQ9InBhaW50Ml9yYWRpYWxfMjYyMl8zOTY3Ij4mI3hhOzxzdG9wIHN0b3AtY29sb3I9IiMwMEJCRkYiLz4mI3hhOzxzdG9wIHN0b3AtY29sb3I9IiMwMDhCRkYiIG9mZnNldD0iMSIvPiYjeGE7PC9yYWRpYWxHcmFkaWVudD4mI3hhOzxjbGlwUGF0aCBpZD0iY2xpcDBfMjYyMl8zOTY3Ij4mI3hhOzxyZWN0IHRyYW5zZm9ybT0idHJhbnNsYXRlKDAuNSAwLjAzNDkxMjEpIiBmaWxsPSJ3aGl0ZSIgaGVpZ2h0PSI0OCIgd2lkdGg9IjQ4Ii8+JiN4YTs8L2NsaXBQYXRoPiYjeGE7PGNsaXBQYXRoIGlkPSJjbGlwMV8yNjIyXzM5NjciPiYjeGE7PHJlY3QgdHJhbnNmb3JtPSJ0cmFuc2xhdGUoMTEuNSAxMC41MzQ5KSIgZmlsbD0id2hpdGUiIGhlaWdodD0iMjciIHdpZHRoPSIyNyIvPiYjeGE7PC9jbGlwUGF0aD4mI3hhOzwvZGVmcz4mI3hhOzwvc3ZnPg==;points=[[0,0,0,0,0],[0,0.25,0,0,0],[0,0.5,0,0,0],[0,0.75,0,0,0],[0,1,0,-45,66],[0.25,0,0,0,0],[0.5,0,0,0,0],[0.75,0,0,0,0],[1,0,0,0,0],[1,0.25,0,0,0],[1,0.5,0,0,0],[1,0.75,0,0,0],[1,1,0,167,59],[1,1,0,185,119],[1,1,0,227,108],[1,1,0,253,92]];" vertex="1" parent="5uWed2QWg4kMRm_KWYj0-1">
          <mxGeometry x="30.5" width="49" height="49" as="geometry" />
        </mxCell>
        <mxCell id="5uWed2QWg4kMRm_KWYj0-3" value="&lt;b style=&quot;border-color: var(--border-color); color: rgb(29, 45, 62); font-family: arial; font-size: 14px;&quot;&gt;SAP Cloud Application Programming Model (CAP) Backend&lt;/b&gt;&lt;font color=&quot;#1d2d3e&quot; size=&quot;1&quot; face=&quot;arial&quot; style=&quot;&quot;&gt;&lt;b style=&quot;font-size: 14px;&quot;&gt;&lt;br&gt;&lt;/b&gt;&lt;/font&gt;" style="text;html=1;align=center;verticalAlign=top;resizable=1;points=[[0,0.5,0,0,0],[0.21,1,0,0,0],[0.5,1,0,0,0],[0.85,1,0,0,0],[1,0.5,0,0,0]];autosize=0;strokeColor=none;fillColor=none;fontSize=12;fontColor=default;fontFamily=Helvetica;fixedWidth=1;imageWidth=24;whiteSpace=wrap;labelBackgroundColor=none;" vertex="1" parent="5uWed2QWg4kMRm_KWYj0-1">
          <mxGeometry x="-50" y="49" width="210" height="46" as="geometry" />
        </mxCell>
        <mxCell id="5uWed2QWg4kMRm_KWYj0-5" style="rounded=0;orthogonalLoop=1;jettySize=auto;html=1;entryX=0.5;entryY=0;entryDx=0;entryDy=0;entryPerimeter=0;endArrow=block;endFill=1;exitX=0.5;exitY=1;exitDx=0;exitDy=0;exitPerimeter=0;" edge="1" parent="1" source="q-DKs4rhJ-QWINOPGp90-41" target="5uWed2QWg4kMRm_KWYj0-2">
          <mxGeometry relative="1" as="geometry">
            <mxPoint x="-345" y="-280" as="sourcePoint" />
            <mxPoint x="-345" y="-261" as="targetPoint" />
          </mxGeometry>
        </mxCell>
      </root>
    </mxGraphModel>
  </diagram>
</mxfile>
